<?xml version="1.0" standalone="no"?>
<!DOCTYPE svg PUBLIC "-//W3C//DTD SVG 1.1//EN" "http://www.w3.org/Graphics/SVG/1.1/DTD/svg11.dtd" >
<svg xmlns="http://www.w3.org/2000/svg" xmlns:xlink="http://www.w3.org/1999/xlink" version="1.1">
<metadata></metadata>
<defs>
<font id="btplight" horiz-adv-x="1241" >
<font-face units-per-em="2048" ascent="1536" descent="-512" />
<missing-glyph horiz-adv-x="538" />
<glyph horiz-adv-x="0" />
<glyph horiz-adv-x="682" />
<glyph unicode=" "  horiz-adv-x="538" />
<glyph unicode="&#x09;" horiz-adv-x="538" />
<glyph unicode="&#xa0;" horiz-adv-x="538" />
<glyph unicode="!" horiz-adv-x="477" d="M76 129l162 170l163 -170l-161 -166zM188 459v1065h97v-1065h-97z" />
<glyph unicode="&#x22;" horiz-adv-x="503" d="M92 1028v496h94v-496h-94zM317 1028v496h95v-496h-95z" />
<glyph unicode="#" d="M123 483v82h217l70 326h-287v84h307l131 590l80 -19l-125 -571h354l127 588l84 -17l-125 -571h207v-84h-229l-68 -326h297v-82h-317l-109 -518l-90 19l113 499h-357l-108 -516l-84 19l111 497h-199zM424 565h356l68 326h-350z" />
<glyph unicode="$" horiz-adv-x="1236" d="M82 188l65 78l138 -121l174 -57v723l-164 82l-107 104l-59 127v156l172 190l158 48v165h94v-141h168v141h94v-163l160 -50l139 -122l-67 -82l-142 118l-90 29v-655l156 -76l82 -84l82 -166v-196l-148 -158l-172 -60v-208h-94v178h-168v-178h-94v178h-15l-251 88z M227 1159l56 -123l75 -63l101 -49v489l-105 -31l-127 -135v-88zM553 86h160l8 2v604l-168 76v-682zM553 879l168 -76v639h-168v-563zM815 119l96 31l125 118v144l-63 129l-64 59l-94 47v-528z" />
<glyph unicode="%" horiz-adv-x="1591" d="M127 43l1120 1296h-327l-340 117h-23l78 -205v-164l-90 -200l-125 -80h-82l-127 76l-82 204v164l82 234l127 57h254l328 -119h393l98 115l64 -55l-1282 -1497zM199 1098l47 -105l221 457l-49 12h-78l-72 -41l-69 -188v-135zM297 930l35 -27h90l67 39l70 156v135l-45 133z M961 270v158l86 236l124 59h86l127 -55l89 -240v-158l-91 -202l-127 -80h-84l-124 75zM1034 279l47 -101l222 434l-46 23h-83l-72 -35l-68 -192v-129zM1130 109l35 -27h95l67 39l68 153v134l-41 137z" />
<glyph unicode="&#x26;" horiz-adv-x="1531" d="M135 303v135l82 162l78 76l268 168l-221 252v188l84 162l197 98h92l190 -94l84 -166v-129l-76 -156l-233 -178l395 -465l99 148l88 246l86 -37l-82 -228l-138 -200l148 -162l123 -62h129v-79h-150l-168 84l-141 141l-141 -144l-166 -81h-299l-166 81l-78 74zM236 317 l61 -129l72 -59l129 -61h231l141 67l152 146l-414 483l-256 -164l-57 -61l-59 -119v-103zM432 1124l201 -231l198 147l72 131v95l-63 120l-125 68h-92l-131 -68l-60 -129v-133z" />
<glyph unicode="'" horiz-adv-x="446" d="M72 1067l161 178l-161 154l161 170l140 -148v-112l-68 -113l-172 -186z" />
<glyph unicode="(" horiz-adv-x="722" d="M96 539v102l78 387l152 301l151 234l152 151l73 -74l-149 -149l-137 -207l-148 -291l-69 -356v-96l69 -357l148 -290l137 -205l149 -152l-73 -72l-150 148l-153 235l-152 302z" />
<glyph unicode=")" horiz-adv-x="722" d="M20 -463l150 152l137 205l148 290l69 357v96l-69 356l-148 291l-137 207l-150 149l74 74l152 -151l151 -234l152 -301l78 -387v-102l-78 -389l-152 -302l-153 -235l-150 -148z" />
<glyph unicode="*" horiz-adv-x="976" d="M113 932l299 166l-293 172l45 78l278 -179v355h86v-353l281 177l51 -80l-301 -170l305 -166l-53 -80l-283 176v-354h-86v354l-274 -176z" />
<glyph unicode="+" horiz-adv-x="1249" d="M115 563v94h463v463h94v-463h463v-94h-463v-463h-94v463h-463z" />
<glyph unicode="," horiz-adv-x="475" d="M102 158l162 170l139 -148v-112l-67 -113l-172 -186l-62 57l162 178z" />
<glyph unicode="-" horiz-adv-x="948" d="M102 467v94h744v-94h-744z" />
<glyph unicode="." horiz-adv-x="530" d="M102 129l162 170l164 -170l-162 -166z" />
<glyph unicode="/" horiz-adv-x="954" d="M-20 -455l847 2171l86 -33l-845 -2168z" />
<glyph unicode="0" horiz-adv-x="1341" d="M123 664v192l74 371l157 237l238 78h164l227 -74l164 -245l72 -365v-194l-74 -365l-162 -244l-229 -67h-162l-240 71l-157 238zM221 672l72 -350l61 -103l580 1167l-201 60h-119l-198 -64l-127 -184l-68 -350v-176zM418 141l192 -57h119l199 59l123 183l69 350v176 l-69 344l-60 96z" />
<glyph unicode="1" horiz-adv-x="714" d="M39 1233v96h80l174 105l90 90h119v-1524h-94v1421l-84 -75l-183 -113h-102z" />
<glyph unicode="2" horiz-adv-x="1204" d="M90 0v102l703 643l133 201l65 131v121l-61 125l-58 55l-131 68h-264l-123 -68l-55 -53l-66 -131v-92h-96v119l80 161l76 76l168 84h305l164 -84l78 -76l79 -159v-166l-71 -148l-156 -229l-643 -586h877v-94h-1004z" />
<glyph unicode="3" horiz-adv-x="1267" d="M57 291l93 43l63 -131l61 -60l191 -59h201l194 59l125 125l68 199v84l-64 194l-213 148h-207l-65 -29l-68 78l441 492h-662v90h784v-92l-405 -449h229l248 -172l78 -242v-116l-78 -236l-156 -160l-233 -69h-233l-230 69l-82 80z" />
<glyph unicode="4" horiz-adv-x="1214" d="M82 565v70l651 889h111v-869h270v-90h-270v-565h-99v565h-663zM207 655h538v734z" />
<glyph unicode="5" horiz-adv-x="1306" d="M96 295l88 43l68 -131l57 -60l195 -63h203l188 63l129 123l66 193v96l-66 193l-127 129l-190 63h-203l-129 -39l-78 -69l-137 24l80 664h800v-92h-710l-56 -486l213 96h230l237 -77l156 -156l78 -240v-116l-78 -236l-158 -156l-233 -73h-234l-229 73l-82 80z" />
<glyph unicode="6" horiz-adv-x="1257" d="M127 508v348l74 371l159 237l238 78h160l235 -78l82 -159l-86 -41l-61 114l-185 68h-125l-198 -68l-125 -184l-78 -342l-4 -205l61 125l148 131l174 68h90l229 -80l160 -156l78 -231v-55l-78 -230l-157 -162l-232 -69h-92l-225 67l-168 166zM231 494l60 -224l127 -127 l192 -59h60l192 59l125 125l74 207l-70 205l-127 125l-198 67h-58l-155 -53l-123 -117z" />
<glyph unicode="7" horiz-adv-x="1093" d="M39 1434v90h1016v-92l-703 -1432h-112l704 1434h-905z" />
<glyph unicode="8" horiz-adv-x="1284" d="M123 301l2 172l68 139l155 160l174 55l-139 43l-104 62l-82 162v161l102 201l231 86h222l233 -86l102 -201v-161l-73 -154l-127 -76l-129 -33l180 -59l154 -160l67 -139l2 -172l-80 -160l-84 -84l-229 -69h-252l-229 69l-84 84zM221 326l62 -123l57 -60l192 -59h220 l192 59l57 60l62 123l-2 123l-66 131l-125 129l-223 82l-239 -82l-119 -129l-66 -131zM295 1112l59 -115l109 -67l178 -56l180 56l109 65l59 119v117l-69 139l-181 76h-194l-180 -76l-70 -141v-117z" />
<glyph unicode="9" horiz-adv-x="1257" d="M104 1020v53l78 234l156 159l235 78h84l232 -69l168 -166l73 -291v-350l-73 -365l-160 -237l-240 -78h-157l-236 78l-82 159l88 41l60 -114l188 -68h119l199 68l127 182l77 348l-2 162l-49 -90l-158 -146l-172 -55h-84l-237 78l-156 157zM199 1047l69 -203l125 -125 l199 -68h55l162 54l127 118l92 189l-61 245l-127 129l-193 60h-61l-189 -64l-129 -129z" />
<glyph unicode=":" horiz-adv-x="530" d="M102 129l162 170l164 -170l-162 -166zM102 899l162 170l164 -170l-162 -166z" />
<glyph unicode=";" horiz-adv-x="499" d="M102 129l162 170l139 -147v-113l-67 -113l-172 -186l-62 57l162 178zM102 899l162 170l164 -170l-162 -166z" />
<glyph unicode="&#x3c;" horiz-adv-x="1040" d="M109 760l743 778l74 -63l-680 -715l678 -711l-74 -63z" />
<glyph unicode="=" horiz-adv-x="1249" d="M115 381v94h1020v-94h-1020zM115 760v94h1020v-94h-1020z" />
<glyph unicode="&#x3e;" horiz-adv-x="1040" d="M119 1475l74 63l741 -778l-741 -774l-72 63l676 711z" />
<glyph unicode="?" horiz-adv-x="995" d="M0 1133v90l82 161l80 80l160 78h294l156 -78l82 -78l80 -165v-172l-80 -166l-74 -72l-262 -135v-217h-96v280l301 152l61 72l50 114v115l-46 106l-67 76l-141 74h-230l-131 -68l-69 -69l-58 -113v-65h-92zM309 129l162 170l164 -170l-162 -166z" />
<glyph unicode="@" horiz-adv-x="1759" d="M92 365v145l64 219l67 164l137 162l164 80l226 75h243l228 -75l151 -80l156 -162l71 -164l68 -219v-109l-61 -239l-168 -174h-183l-106 106v43l-154 -149h-247l-166 82l-88 90l-82 166v245l82 160l88 88l166 84h247l154 -149v94h104v-713l54 -51h92l119 129l53 209v65 l-66 215l-59 136l-127 135l-125 67l-221 74h-203l-219 -74l-135 -67l-113 -135l-51 -136l-64 -215v-104l64 -219l51 -135l113 -135l135 -68l219 -74h203l213 70l35 -90l-228 -76h-243l-226 76l-164 80l-137 163l-67 162zM510 344l68 -131l59 -63l133 -70h197l194 194v349 l-194 186h-199l-131 -70l-59 -61l-68 -127v-207z" />
<glyph unicode="A" d="M20 0l545 1524h113l543 -1524h-107l-186 563h-613l-186 -563h-109zM348 655h543l-270 779z" />
<glyph unicode="B" horiz-adv-x="1314" d="M152 0v1524h641l241 -78l86 -86l82 -170v-127l-67 -174l-107 -88l72 -78l102 -182v-207l-80 -168l-90 -86l-233 -80h-647zM250 98h530l201 66l57 57l66 131v146l-109 209l-88 45h-657v-654zM250 850h651l123 55l80 152v114l-66 132l-53 51l-209 71h-526v-575z" />
<glyph unicode="C" horiz-adv-x="1300" d="M102 604v316l76 227l78 156l156 155l170 84h241l166 -86l152 -147l78 -152l-93 -47l-69 137l-127 133l-129 64h-201l-125 -64l-137 -133l-70 -147l-63 -197v-282l63 -195l74 -156l133 -127l127 -57h197l131 59l127 131l67 138l95 -43l-74 -152l-156 -156l-168 -75h-239 l-172 75l-150 150l-82 162z" />
<glyph unicode="D" horiz-adv-x="1304" d="M152 0v1524h499l238 -78l162 -162l75 -156l76 -225v-280l-78 -234l-75 -147l-164 -164l-230 -78h-503zM250 98h387l199 66l129 137l65 127l74 217v238l-70 207l-69 137l-125 127l-207 71h-383v-1327z" />
<glyph unicode="E" horiz-adv-x="1101" d="M152 0v1524h899v-88h-801v-586h459v-98h-459v-662h801v-90h-899z" />
<glyph unicode="F" horiz-adv-x="1099" d="M152 0v1524h907v-99h-809v-575h459v-98h-459v-752h-98z" />
<glyph unicode="G" horiz-adv-x="1329" d="M102 604v316l76 227l78 156l156 155l170 84h241l164 -86l154 -147l78 -152l-93 -47l-69 143l-129 127l-127 64h-201l-125 -64l-137 -133l-70 -147l-63 -197v-282l63 -195l74 -156l133 -127l127 -57h197l129 57l131 129l65 134v180h-419v94h522v-297l-86 -168l-154 -152 l-166 -75h-239l-172 75l-150 150l-82 162z" />
<glyph unicode="H" horiz-adv-x="1353" d="M152 0v1524h98v-674h854v674h98v-1524h-98v752h-854v-752h-98z" />
<glyph unicode="I" horiz-adv-x="417" d="M160 0v1524h98v-1524h-98z" />
<glyph unicode="J" horiz-adv-x="999" d="M61 385v199h99v-185l65 -202l58 -58l133 -59h88l129 59l53 51l72 218v1116h98v-1139l-76 -233l-90 -89l-166 -75h-131l-166 71l-86 91z" />
<glyph unicode="K" horiz-adv-x="1191" d="M152 0v1524h98v-901l848 901h125l-643 -686l624 -838h-119l-573 766l-262 -279v-487h-98z" />
<glyph unicode="L" horiz-adv-x="1034" d="M152 0v1524h100v-1426h752v-98h-852z" />
<glyph unicode="M" horiz-adv-x="1548" d="M160 0v1524h102l512 -1387l512 1387h103v-1524h-97v1286l-473 -1286h-88l-475 1288v-1288h-96z" />
<glyph unicode="N" horiz-adv-x="1370" d="M160 0v1524h114l838 -1356v1356h98v-1524h-110l-842 1366v-1366h-98z" />
<glyph unicode="O" horiz-adv-x="1400" d="M102 606v314l76 227l78 156l156 155l166 84h241l170 -84l156 -155l78 -156l75 -227v-316l-77 -229l-82 -160l-150 -152l-172 -75h-237l-172 75l-150 150l-82 162zM203 621l65 -201l68 -146l135 -131l129 -57h197l129 57l135 131l61 138l74 213v274l-74 215l-59 133 l-135 133l-129 64h-201l-125 -66l-135 -131l-62 -135l-73 -213v-278z" />
<glyph unicode="P" horiz-adv-x="1259" d="M152 0v1524h587l242 -78l84 -86l82 -170v-295l-80 -166l-90 -86l-234 -80h-493v-563h-98zM250 657h475l199 70l59 59l66 129v256l-66 132l-55 51l-207 76h-471v-773z" />
<glyph unicode="Q" horiz-adv-x="1400" d="M102 604v316l76 227l78 156l156 155l170 84h237l170 -84l156 -155l78 -156l75 -227v-316l-75 -231l-78 -152l-129 -131l182 -182l-59 -58l-191 193l-129 -55h-237l-172 75l-150 150l-82 162zM203 625l73 -219l62 -132l133 -139l131 -55h213l68 29l-168 182l57 53 l176 -190l117 116l61 146l72 209v274l-76 215l-59 133l-135 133l-129 64h-201l-125 -66l-135 -131l-62 -135l-73 -213v-274z" />
<glyph unicode="R" horiz-adv-x="1253" d="M152 0v1524h610l239 -78l84 -80l86 -172v-111l-86 -174l-84 -80l-208 -67l307 -762h-109l-291 752h-450v-752h-98zM250 846h500l196 67l58 60l69 131v67l-69 132l-52 51l-207 76h-495v-584z" />
<glyph unicode="S" horiz-adv-x="1136" d="M61 221l86 53l109 -129l180 -59h176l199 64l125 118v144l-64 129l-63 59l-543 293l-106 104l-60 127v156l172 190l234 72h137l231 -72l113 -129l-84 -65l-98 108l-178 58h-107l-194 -60l-127 -135v-88l69 -131l62 -55l540 -291l82 -84l82 -166v-196l-147 -158l-260 -90 h-211l-252 88z" />
<glyph unicode="T" horiz-adv-x="1009" d="M33 1436v88h944v-88h-420v-1436h-102v1436h-422z" />
<glyph unicode="U" horiz-adv-x="1339" d="M143 457v1067h101v-1053l55 -195l125 -126l190 -64h117l178 57l125 127l62 207v1047h100v-1067l-66 -234l-169 -160l-213 -75h-156l-213 67l-168 168z" />
<glyph unicode="V" horiz-adv-x="1224" d="M10 1524h109l493 -1391l496 1391h106l-548 -1524h-107z" />
<glyph unicode="W" horiz-adv-x="1585" d="M49 1524h107l284 -1350l299 1350h107l299 -1350l285 1350h106l-344 -1524h-94l-305 1386l-306 -1386h-94z" />
<glyph unicode="X" horiz-adv-x="1114" d="M10 0l488 762l-486 762h115l428 -674l432 674h117l-488 -762l486 -762h-115l-432 674l-428 -674h-117z" />
<glyph unicode="Y" horiz-adv-x="1146" d="M-51 1524h125l499 -647l496 647h129l-575 -746v-778h-99v778z" />
<glyph unicode="Z" horiz-adv-x="1136" d="M72 0v100l878 1325h-835v99h950v-101l-879 -1325h875v-98h-989z" />
<glyph unicode="[" horiz-adv-x="761" d="M141 -510v2247h559v-99h-460v-2048h460v-100h-559z" />
<glyph unicode="\" horiz-adv-x="913" d="M0 1683l86 33l848 -2171l-88 -30z" />
<glyph unicode="]" horiz-adv-x="749" d="M61 -410h461v2048h-461v99h560v-2247h-560v100z" />
<glyph unicode="^" horiz-adv-x="999" d="M109 1077l391 393l391 -393l-70 -69l-321 321l-322 -321z" />
<glyph unicode="_" horiz-adv-x="1177" d="M102 0v94h973v-94h-973z" />
<glyph unicode="`" horiz-adv-x="958" d="M158 1370l30 88l656 -237l-33 -91z" />
<glyph unicode="a" horiz-adv-x="1290" d="M113 457v92l75 227l158 158l168 80h201l162 -78l86 -82v147h96v-753l153 -205l-77 -61l-121 170l-295 -164h-203l-174 82l-154 155zM213 475l70 -205l120 -118l132 -68h167l261 149v490l-134 123l-129 74h-168l-124 -70l-125 -119l-70 -205v-51z" />
<glyph unicode="b" horiz-adv-x="1243" d="M184 0v1524h95v-674l92 86l157 78h201l168 -80l158 -158l75 -227v-92l-75 -232l-154 -155l-174 -82h-203l-139 57l-106 84v-129h-95zM279 233l129 -98l133 -51h168l131 68l125 118l69 205v51l-69 205l-129 119l-125 70h-168l-129 -74l-135 -119v-494z" />
<glyph unicode="c" horiz-adv-x="1112" d="M113 457v92l75 227l154 154l170 84h233l168 -82l117 -121l-69 -74l-109 111l-127 72h-197l-125 -72l-120 -117l-70 -205v-51l70 -205l120 -118l129 -68h195l125 74l113 112l65 -73l-117 -123l-172 -86h-227l-172 80l-154 157z" />
<glyph unicode="d" horiz-adv-x="1243" d="M113 457v92l75 227l158 158l168 80h201l162 -78l88 -82v670h94v-1524h-94v129l-107 -84l-139 -57h-203l-174 82l-154 155zM209 475l70 -205l124 -118l132 -68h167l134 51l129 98v494l-136 123l-129 70h-168l-124 -70l-129 -119l-70 -205v-51z" />
<glyph unicode="e" horiz-adv-x="1157" d="M113 457v92l69 227l150 154l166 84h219l176 -92l111 -134l40 -182v-131h-837l69 -205l119 -116l133 -70h195l125 70l117 114l65 -71l-121 -123l-172 -86h-227l-176 82l-152 155zM219 565h744l-29 158l-98 117l-140 80h-182l-121 -72l-117 -117z" />
<glyph unicode="f" horiz-adv-x="690" d="M51 911v90h207v197l82 238l164 88h155v-97h-135l-106 -55l-64 -196v-175h285v-90h-285v-911h-96v911h-207z" />
<glyph unicode="g" horiz-adv-x="1224" d="M113 457v92l75 227l158 158l168 80h215l162 -80l84 -80v147h96v-1114l-70 -227l-86 -84l-167 -86h-234l-256 129l37 86l233 -119h197l125 62l63 61l62 203v217l-107 -84l-137 -57h-217l-172 82l-154 155zM213 475l70 -205l123 -120l129 -66h180l131 51l129 98v490 l-133 123l-129 74h-181l-124 -70l-125 -119l-70 -205v-51z" />
<glyph unicode="h" horiz-adv-x="1155" d="M184 0v1524h97v-670l96 78l182 82h205l156 -115l71 -172v-727h-96v702l-57 136l-101 82h-155l-146 -68l-155 -125v-727h-97z" />
<glyph unicode="i" horiz-adv-x="464" d="M70 1397l161 170l164 -170l-162 -166zM184 0v1001h97v-1001h-97z" />
<glyph unicode="j" horiz-adv-x="475" d="M-102 -416h135l114 62l56 192v1163h96v-1185l-72 -238l-178 -88h-151v94zM90 1397l162 170l164 -170l-162 -166z" />
<glyph unicode="k" horiz-adv-x="1097" d="M184 0v1524h97v-1125l604 602h137l-436 -434l501 -567h-133l-438 496l-235 -232v-264h-97z" />
<glyph unicode="l" horiz-adv-x="581" d="M195 254v1270h96v-1260l59 -114l53 -56h121v-94h-157l-93 94z" />
<glyph unicode="m" horiz-adv-x="1859" d="M184 0v1001h95v-149l106 86l162 82h219l156 -115l30 -86l142 119l161 82h220l155 -115l66 -176v-729h-97v705l-51 139l-100 82h-170l-125 -68l-166 -131v-727h-96v705l-51 139l-101 82h-170l-125 -68l-165 -131v-727h-95z" />
<glyph unicode="n" horiz-adv-x="1153" d="M184 0v1001h95v-149l102 80l182 82h205l156 -115l65 -176v-723h-96v698l-51 140l-101 82h-155l-146 -68l-161 -125v-727h-95z" />
<glyph unicode="o" horiz-adv-x="1234" d="M113 459v88l80 225l155 160l166 86h207l164 -86l159 -160l78 -225v-90l-78 -228l-159 -159l-166 -86h-205l-166 86l-155 159zM217 477l68 -201l123 -122l127 -74h170l122 74l121 118l72 207v45l-68 203l-125 121l-125 70h-174l-120 -68l-123 -125l-68 -201v-47z" />
<glyph unicode="p" horiz-adv-x="1243" d="M184 -492v1493h95v-151l92 86l157 78h201l168 -80l158 -158l75 -227v-92l-75 -232l-154 -155l-174 -82h-203l-139 57l-106 84v-621h-95zM279 233l129 -98l133 -51h168l131 68l125 118l69 205v51l-69 205l-129 119l-125 70h-168l-129 -74l-135 -119v-494z" />
<glyph unicode="q" horiz-adv-x="1243" d="M113 457v92l75 227l158 158l168 80h201l162 -78l88 -82v147h94v-1493h-94v621l-107 -84l-139 -57h-203l-174 82l-154 155zM209 475l70 -205l124 -118l132 -68h167l134 51l129 98v494l-136 123l-129 70h-168l-124 -70l-129 -119l-70 -205v-51z" />
<glyph unicode="r" horiz-adv-x="782" d="M184 0v1001h95v-143l165 156h150l133 -90l55 -142l-86 -32l-45 110l-98 60h-70l-204 -187v-733h-95z" />
<glyph unicode="s" horiz-adv-x="1009" d="M92 242l88 53l84 -135l187 -76h118l162 70l57 73l17 70l-43 94l-137 62l-271 55l-159 74l-74 170l72 168l235 96h162l235 -92l93 -152l-87 -45l-77 113l-187 78h-121l-186 -72l-35 -96l39 -95l133 -55l271 -51l174 -86l65 -158l-30 -117l-78 -120l-205 -80h-162l-239 100 z" />
<glyph unicode="t" horiz-adv-x="761" d="M61 911v90h205v363h94v-363h285v-90h-285v-569l62 -184l119 -60h108v-98h-131l-170 86l-82 240v585h-205z" />
<glyph unicode="u" horiz-adv-x="1153" d="M164 279v722h96v-698l51 -139l101 -82h155l146 68l159 124v727h97v-1001h-97v150l-100 -80l-182 -82h-205l-156 114z" />
<glyph unicode="v" horiz-adv-x="978" d="M20 1001h107l365 -870l360 870h106l-426 -1001h-81z" />
<glyph unicode="w" horiz-adv-x="1298" d="M61 1001h105l225 -825l225 825h66l225 -825l226 825h104l-293 -1001h-82l-213 795l-213 -795h-82z" />
<glyph unicode="x" horiz-adv-x="1042" d="M61 1001h134l325 -417l330 417h127l-391 -499l395 -502h-131l-330 418l-325 -418h-132l394 502z" />
<glyph unicode="y" horiz-adv-x="1079" d="M55 -410h90l127 64l138 141l82 189l-437 1017h111l379 -897l385 897h108l-446 -1044l-105 -229l-153 -154l-166 -84h-113v100z" />
<glyph unicode="z" horiz-adv-x="1009" d="M102 0v100l691 813h-650v88h762v-100l-688 -809h690v-92h-805z" />
<glyph unicode="{" horiz-adv-x="614" d="M125 -70l84 166l76 76l63 129v68l-192 192v103l192 190v68l-63 129l-76 73l-84 168v117l84 166l86 86l149 76l43 -92l-133 -66l-63 -63l-68 -132v-71l68 -127l74 -76l81 -166v-129l-170 -170l-47 -33l47 -32l170 -170v-129l-81 -168l-74 -74l-68 -129v-76l68 -127l63 -63 l133 -68l-43 -88l-149 74l-86 88l-84 166v114z" />
<glyph unicode="|" horiz-adv-x="419" d="M164 -510v2245h92v-2245h-92z" />
<glyph unicode="}" horiz-adv-x="614" d="M127 -426l135 70l66 63l63 127v76l-63 129l-76 74l-84 168v129l172 170l47 32l-47 33l-172 170v129l84 166l76 76l63 127v71l-63 132l-66 63l-135 66l43 92l152 -76l86 -86l81 -166v-117l-81 -168l-74 -73l-68 -129v-68l195 -190v-103l-195 -192v-68l68 -129l74 -76 l81 -166v-114l-81 -166l-86 -88l-152 -74z" />
<glyph unicode="~" d="M92 446l238 226h202l222 -221h108l205 206l70 -65l-230 -232h-198l-222 220h-116l-215 -197z" />
<glyph unicode="&#xa1;" horiz-adv-x="477" d="M76 1395l162 166l163 -166l-161 -170zM193 0v1065h96v-1065h-96z" />
<glyph unicode="&#xa2;" horiz-adv-x="1122" d="M102 457v92l76 227l154 154l170 84h47v203h94v-203h92l168 -82l117 -121l-70 -74l-108 111l-127 72h-72v-836h74l125 74l112 112l66 -73l-117 -123l-172 -86h-88v-172h-94v172h-45l-172 80l-154 157zM203 475l69 -205l121 -118l129 -68h27v836h-31l-125 -72l-121 -117 l-69 -205v-51z" />
<glyph unicode="&#xa3;" horiz-adv-x="1214" d="M102 0v133l170 154l60 188v279h-205v90h205v295l67 237l90 90l162 78h148l164 -92l118 -188v-142h-94v117l-86 135l-127 74h-102l-127 -68l-58 -55l-59 -209v-272h328v-90h-328v-260l-74 -258l-155 -142h893v-94h-990z" />
<glyph unicode="&#xa4;" horiz-adv-x="1099" d="M74 915l76 68l184 -201l69 56l64 22h160l67 -24l70 -56l188 203l74 -70l-184 -198l30 -43l43 -146v-63l-41 -150l-30 -43l182 -196l-76 -70l-184 201l-70 -55l-65 -23h-158l-70 27l-69 53l-187 -201l-71 68l182 198l-33 45l-41 146v63l41 148l31 43zM283 494l41 -146 l143 -125h172l137 123l41 146l-43 149l-135 123h-170l-145 -123z" />
<glyph unicode="&#xa5;" horiz-adv-x="1161" d="M37 1524h127l424 -680l403 680h133l-481 -772h365v-90h-373v-123h373v-90h-373v-449h-98v449h-375v90h375v123h-375v90h364z" />
<glyph unicode="&#xa6;" horiz-adv-x="419" d="M164 -510v1045h92v-1045h-92zM164 745v990h92v-990h-92z" />
<glyph unicode="&#xa7;" horiz-adv-x="1040" d="M162 758l86 176l139 88l-141 74l-84 182l86 186l225 78h148l221 -82l61 -110l-84 -39l-39 65l-172 80h-112l-185 -67l-49 -109l53 -131l140 -70l227 -51l160 -82l73 -133v-61l-86 -158l-145 -84l150 -76l69 -121v-84l-82 -170l-209 -77h-149l-227 79l-62 113l88 43 l43 -78l176 -69h105l164 63l79 131l-59 109l-113 63l-243 68l-172 82zM268 758l54 -117l137 -68l133 -28l156 92l88 141l-48 99l-161 77l-156 31l-141 -104z" />
<glyph unicode="&#xa8;" horiz-adv-x="1054" d="M141 1307l162 170l164 -170l-162 -166zM588 1307l162 170l163 -170l-161 -166z" />
<glyph unicode="&#xa9;" horiz-adv-x="1736" d="M92 690v146l58 225l79 164l154 161l162 80l227 76h182l234 -76l162 -80l151 -161l82 -164l62 -225v-146l-62 -227l-82 -162l-151 -164l-162 -80l-227 -75h-189l-227 75l-162 80l-154 164l-79 162zM188 709l56 -220l67 -135l127 -135l135 -67l220 -74h147l219 74l135 67 l125 135l70 135l57 220v104l-57 221l-70 135l-125 136l-141 71l-213 70h-147l-220 -74l-135 -67l-127 -136l-67 -135l-56 -221v-104zM418 651v246l82 166l88 88l166 84h247l166 -84l80 -80l-69 -67l-68 63l-131 68h-203l-131 -68l-61 -59l-64 -134v-204l64 -129l61 -62 l133 -65h201l131 65l68 66l69 -68l-80 -82l-166 -82h-247l-166 82l-88 90z" />
<glyph unicode="&#xaa;" horiz-adv-x="917" d="M98 1135v79l60 197l176 131h182l139 -82v68h86v-512l103 -156l-74 -49l-96 129l-139 -125h-197l-186 146zM193 1176l30 -148l150 -119h127l155 127v322l-159 96h-129l-134 -115z" />
<glyph unicode="&#xab;" horiz-adv-x="1269" d="M82 516l518 535l68 -68l-451 -467l451 -467l-68 -67zM575 516l519 535l67 -68l-450 -467l450 -467l-67 -67z" />
<glyph unicode="&#xac;" d="M94 768v98h1055v-604h-98v506h-957z" />
<glyph unicode="&#xad;" horiz-adv-x="948" d="M102 467v94h744v-94h-744z" />
<glyph unicode="&#xae;" horiz-adv-x="1736" d="M92 690v146l58 225l79 164l154 161l162 80l227 76h182l234 -76l162 -80l151 -161l82 -164l62 -225v-146l-62 -227l-82 -162l-151 -164l-162 -80l-227 -75h-189l-227 75l-162 80l-154 164l-79 162zM188 709l56 -220l67 -135l127 -135l135 -67l220 -74h147l219 74l135 67 l125 135l70 135l57 220v104l-57 221l-70 135l-125 136l-141 71l-213 70h-147l-220 -74l-135 -67l-127 -136l-67 -135l-56 -221v-104zM573 338v879h394l137 -48l55 -55l49 -100v-99l-49 -98l-55 -53l-74 -25l187 -401h-117l-168 377h-258v-377h-101zM674 813h266l102 29 l62 86v76l-62 90l-102 24h-266v-305z" />
<glyph unicode="&#xaf;" horiz-adv-x="950" d="M121 1276v100h710v-100h-710z" />
<glyph unicode="&#xb0;" horiz-adv-x="929" d="M92 1053v237l121 183l145 69h213l144 -69l123 -183v-237l-123 -183l-144 -69h-213l-145 69zM184 1077l164 -180h242l158 180v189l-166 182h-250l-148 -186v-185z" />
<glyph unicode="&#xb1;" horiz-adv-x="1249" d="M115 141v95h1020v-95h-1020zM115 782v95h463v462h94v-462h463v-95h-463v-417h-94v417h-463z" />
<glyph unicode="&#xb2;" horiz-adv-x="587" d="M111 1303v94l63 98l102 47h86l99 -47l65 -98v-107l-327 -385h350v-90h-430v115l319 377v73l-73 72h-103l-69 -70v-79h-82z" />
<glyph unicode="&#xb3;" horiz-adv-x="622" d="M74 967l76 47l71 -117h191l77 150l-96 141h-119l-22 -14l-57 59l206 211h-272v80h354v-105l-139 -143l131 -41l90 -145v-115l-61 -103l-152 -71h-92l-137 84z" />
<glyph unicode="&#xb4;" horiz-adv-x="948" d="M150 1221l655 237l31 -88l-654 -240z" />
<glyph unicode="&#xb5;" horiz-adv-x="1173" d="M172 -492v1493h96v-698l51 -139l101 -82h155l146 68l160 124v727h96v-1001h-96v150l-101 -80l-182 -82h-205l-125 92v-572h-96z" />
<glyph unicode="&#xb6;" horiz-adv-x="1181" d="M147 868v303l89 177l96 98l241 78h445v-1524h-92v516h-176v-516h-93v516h-84l-241 82l-96 94z" />
<glyph unicode="&#xb7;" horiz-adv-x="557" d="M74 516l205 207l204 -207l-204 -205z" />
<glyph unicode="&#xb8;" horiz-adv-x="600" d="M125 -418l63 56l66 -66h158v215h-156v285h82v-205h82l82 -98v-168l-99 -113h-186z" />
<glyph unicode="&#xb9;" horiz-adv-x="473" d="M57 1307v112h56l133 105h114v-709h-90v625l-159 -133h-54z" />
<glyph unicode="&#xba;" horiz-adv-x="704" d="M156 1241v145l69 115l82 41h105l84 -37l69 -112v-158l-59 -111l-92 -39h-105l-84 41zM168 860v86h399v-86h-399zM233 1264l78 -97h101l80 97v102l-80 96h-109l-70 -98v-100z" />
<glyph unicode="&#xbb;" horiz-adv-x="1261" d="M100 49l451 467l-451 467l68 68l518 -535l-518 -534zM594 49l450 467l-450 467l68 68l518 -535l-518 -534z" />
<glyph unicode="&#xbc;" horiz-adv-x="1636" d="M186 51l1284 1495l64 -55l-1282 -1497zM211 1307v112h55l133 105h115v-709h-90v625l-160 -133h-53zM979 215v88l299 404h100v-408h140v-84h-140v-217h-88v217h-311zM1075 299h219v299z" />
<glyph unicode="&#xbd;" horiz-adv-x="1611" d="M162 51l1284 1495l63 -55l-1282 -1497zM211 1307v112h55l133 105h115v-709h-90v625l-160 -133h-53zM1034 485v95l64 98l102 47h86l98 -47l66 -98v-107l-328 -385h351v-90h-431v115l320 376v74l-74 72h-102l-70 -70v-80h-82z" />
<glyph unicode="&#xbe;" horiz-adv-x="1697" d="M168 967l76 47l71 -117h191l78 150l-97 141h-118l-23 -14l-57 59l207 211h-273v80h355v-105l-140 -143l131 -41l90 -145v-115l-61 -103l-152 -71h-92l-137 84zM207 51l1284 1495l63 -55l-1282 -1497zM983 215v88l299 404h100v-408h140v-84h-140v-217h-88v217h-311z M1079 299h219v299z" />
<glyph unicode="&#xbf;" horiz-adv-x="1036" d="M61 309v172l80 166l74 72l262 135v217h96v-280l-301 -152l-61 -72l-49 -114v-115l45 -107l67 -75l142 -74h229l131 68l70 69l57 113v65h92v-90l-82 -162l-79 -79l-160 -78h-295l-156 78l-82 77zM360 1401l162 166l164 -166l-162 -170z" />
<glyph unicode="&#xc0;" d="M20 0l545 1524h113l543 -1524h-107l-186 563h-613l-186 -563h-109zM295 1882l31 88l686 -250l-33 -90zM348 655h543l-270 779z" />
<glyph unicode="&#xc1;" d="M20 0l545 1524h113l543 -1524h-107l-186 563h-613l-186 -563h-109zM260 1720l686 250l31 -88l-684 -252zM348 655h543l-270 779z" />
<glyph unicode="&#xc2;" d="M20 0l545 1524h113l543 -1524h-107l-186 563h-613l-186 -563h-109zM231 1726l385 246l385 -252l-53 -73l-330 215l-329 -215zM348 655h543l-270 779z" />
<glyph unicode="&#xc3;" d="M20 0l545 1524h113l543 -1524h-107l-186 563h-613l-186 -563h-109zM221 1741l225 227h119l228 -227l200 203l64 -64l-215 -217h-105l-229 231l-221 -221zM348 655h543l-270 779z" />
<glyph unicode="&#xc4;" d="M20 0l545 1524h113l543 -1524h-107l-186 563h-613l-186 -563h-109zM236 1837l161 170l164 -170l-162 -166zM348 655h543l-270 779zM682 1837l162 170l164 -170l-162 -166z" />
<glyph unicode="&#xc5;" d="M20 0l541 1513h-12l-86 43l-74 109v145l74 113l84 43h141l84 -43l74 -113v-143l-74 -113l-84 -41h-6l539 -1513h-107l-186 563h-613l-186 -563h-109zM348 655h543l-270 779zM477 1690l84 -95h115l88 95v100l-90 96h-121l-76 -100v-96z" />
<glyph unicode="&#xc6;" horiz-adv-x="1902" d="M20 0l533 1524h92l391 -1200v1200h815v-88h-716v-586h469v-98h-469v-662h716v-90h-815v12l-176 551h-547l-184 -563h-109zM350 655h477l-229 731z" />
<glyph unicode="&#xc7;" horiz-adv-x="1300" d="M102 604v316l76 227l78 156l156 155l170 84h241l166 -86l152 -147l78 -152l-93 -47l-69 137l-127 133l-129 64h-201l-125 -64l-137 -133l-70 -147l-63 -197v-282l63 -195l74 -156l133 -127l127 -57h197l131 59l127 131l67 138l95 -43l-74 -152l-156 -156l-168 -75h-80 v-121h82l82 -98v-168l-98 -113h-186l-93 94l64 56l65 -66h158v215h-156v201h-77l-172 75l-150 150l-82 162z" />
<glyph unicode="&#xc8;" horiz-adv-x="1101" d="M152 0v1524h899v-88h-801v-586h459v-98h-459v-662h801v-90h-899zM309 1882l31 88l686 -250l-33 -90z" />
<glyph unicode="&#xc9;" horiz-adv-x="1101" d="M152 0v1524h899v-88h-801v-586h459v-98h-459v-662h801v-90h-899zM274 1720l687 250l30 -88l-684 -252z" />
<glyph unicode="&#xca;" horiz-adv-x="1101" d="M152 0v1524h899v-88h-801v-586h459v-98h-459v-662h801v-90h-899zM246 1726l385 246l385 -252l-53 -73l-330 215l-330 -215z" />
<glyph unicode="&#xcb;" horiz-adv-x="1101" d="M152 0v1524h899v-88h-801v-586h459v-98h-459v-662h801v-90h-899zM250 1837l162 170l163 -170l-161 -166zM696 1837l162 170l164 -170l-162 -166z" />
<glyph unicode="&#xcc;" horiz-adv-x="417" d="M-115 1882l31 88l686 -250l-33 -90zM160 0v1524h98v-1524h-98z" />
<glyph unicode="&#xcd;" horiz-adv-x="417" d="M-150 1720l687 250l30 -88l-684 -252zM160 0v1524h98v-1524h-98z" />
<glyph unicode="&#xce;" horiz-adv-x="417" d="M-178 1726l385 246l385 -252l-53 -73l-330 215l-330 -215zM160 0v1524h98v-1524h-98z" />
<glyph unicode="&#xcf;" horiz-adv-x="417" d="M-174 1837l162 170l164 -170l-162 -166zM160 0v1524h98v-1524h-98zM272 1837l162 170l164 -170l-162 -166z" />
<glyph unicode="&#xd0;" horiz-adv-x="1304" d="M-27 743v101h179v680h499l238 -78l162 -162l75 -156l76 -225v-280l-78 -234l-75 -147l-164 -164l-230 -78h-503v743h-179zM250 98h387l199 66l129 137l65 127l74 217v238l-70 207l-69 137l-125 127l-207 71h-383v-581h412v-101h-412v-645z" />
<glyph unicode="&#xd1;" horiz-adv-x="1370" d="M160 0v1524h114l838 -1356v1356h98v-1524h-110l-842 1366v-1366h-98zM326 1741l225 227h119l227 -227l201 203l63 -64l-215 -217h-104l-230 231l-221 -221z" />
<glyph unicode="&#xd2;" horiz-adv-x="1400" d="M102 606v314l76 227l78 156l156 155l166 84h241l170 -84l156 -155l78 -156l75 -227v-316l-77 -229l-82 -160l-150 -152l-172 -75h-237l-172 75l-150 150l-82 162zM203 621l65 -201l68 -146l135 -131l129 -57h197l129 57l135 131l61 138l74 213v274l-74 215l-59 133 l-135 133l-129 64h-201l-125 -66l-135 -131l-62 -135l-73 -213v-278zM379 1882l31 88l686 -250l-33 -90z" />
<glyph unicode="&#xd3;" horiz-adv-x="1400" d="M102 606v314l76 227l78 156l156 155l166 84h241l170 -84l156 -155l78 -156l75 -227v-316l-77 -229l-82 -160l-150 -152l-172 -75h-237l-172 75l-150 150l-82 162zM203 621l65 -201l68 -146l135 -131l129 -57h197l129 57l135 131l61 138l74 213v274l-74 215l-59 133 l-135 133l-129 64h-201l-125 -66l-135 -131l-62 -135l-73 -213v-278zM344 1720l686 250l31 -88l-684 -252z" />
<glyph unicode="&#xd4;" horiz-adv-x="1400" d="M102 606v314l76 227l78 156l156 155l166 84h241l170 -84l156 -155l78 -156l75 -227v-316l-77 -229l-82 -160l-150 -152l-172 -75h-237l-172 75l-150 150l-82 162zM203 621l65 -201l68 -146l135 -131l129 -57h197l129 57l135 131l61 138l74 213v274l-74 215l-59 133 l-135 133l-129 64h-201l-125 -66l-135 -131l-62 -135l-73 -213v-278zM315 1726l385 246l385 -252l-53 -73l-330 215l-329 -215z" />
<glyph unicode="&#xd5;" horiz-adv-x="1400" d="M102 606v314l76 227l78 156l156 155l166 84h241l170 -84l156 -155l78 -156l75 -227v-316l-77 -229l-82 -160l-150 -152l-172 -75h-237l-172 75l-150 150l-82 162zM203 621l65 -201l68 -146l135 -131l129 -57h197l129 57l135 131l61 138l74 213v274l-74 215l-59 133 l-135 133l-129 64h-201l-125 -66l-135 -131l-62 -135l-73 -213v-278zM305 1741l225 227h119l228 -227l200 203l64 -64l-215 -217h-105l-229 231l-221 -221z" />
<glyph unicode="&#xd6;" horiz-adv-x="1400" d="M102 606v314l76 227l78 156l156 155l166 84h241l170 -84l156 -155l78 -156l75 -227v-316l-77 -229l-82 -160l-150 -152l-172 -75h-237l-172 75l-150 150l-82 162zM203 621l65 -201l68 -146l135 -131l129 -57h197l129 57l135 131l61 138l74 213v274l-74 215l-59 133 l-135 133l-129 64h-201l-125 -66l-135 -131l-62 -135l-73 -213v-278zM319 1837l162 170l164 -170l-162 -166zM766 1837l162 170l164 -170l-162 -166z" />
<glyph unicode="&#xd7;" horiz-adv-x="1255" d="M143 180l422 422l-409 418l65 65l410 -415l413 413l66 -65l-414 -416l416 -422l-65 -65l-416 422l-422 -422z" />
<glyph unicode="&#xd8;" horiz-adv-x="1400" d="M102 606v314l76 227l78 156l156 155l166 84h241l135 -67l39 94l86 -33l-49 -121l115 -112l78 -156l75 -227v-316l-77 -229l-82 -160l-150 -152l-172 -75h-237l-101 43l-41 -105l-88 31l47 117l-139 139l-82 162zM203 621l65 -201l68 -146l102 -100l482 1210l-121 60h-201 l-125 -66l-135 -131l-62 -135l-73 -213v-278zM516 123l84 -37h197l129 57l135 131l61 138l74 213v274l-74 215l-59 133l-72 70z" />
<glyph unicode="&#xd9;" horiz-adv-x="1339" d="M143 457v1067h101v-1053l55 -195l125 -126l190 -64h117l178 57l125 127l62 207v1047h100v-1067l-66 -234l-169 -160l-213 -75h-156l-213 67l-168 168zM365 1882l30 88l686 -250l-32 -90z" />
<glyph unicode="&#xda;" horiz-adv-x="1339" d="M143 457v1067h101v-1053l55 -195l125 -126l190 -64h117l178 57l125 127l62 207v1047h100v-1067l-66 -234l-169 -160l-213 -75h-156l-213 67l-168 168zM330 1720l686 250l31 -88l-685 -252z" />
<glyph unicode="&#xdb;" horiz-adv-x="1339" d="M143 457v1067h101v-1053l55 -195l125 -126l190 -64h117l178 57l125 127l62 207v1047h100v-1067l-66 -234l-169 -160l-213 -75h-156l-213 67l-168 168zM301 1726l385 246l385 -252l-53 -73l-330 215l-330 -215z" />
<glyph unicode="&#xdc;" horiz-adv-x="1339" d="M143 457v1067h101v-1053l55 -195l125 -126l190 -64h117l178 57l125 127l62 207v1047h100v-1067l-66 -234l-169 -160l-213 -75h-156l-213 67l-168 168zM305 1837l162 170l164 -170l-162 -166zM752 1837l161 170l164 -170l-162 -166z" />
<glyph unicode="&#xdd;" horiz-adv-x="1146" d="M-51 1524h125l499 -647l496 647h129l-575 -746v-778h-99v778zM217 1720l686 250l31 -88l-684 -252z" />
<glyph unicode="&#xde;" horiz-adv-x="1290" d="M152 0v1526h98v-305h520l242 -78l84 -86l82 -170v-223l-80 -166l-90 -86l-234 -80h-524v-332h-98zM250 426h506l198 70l60 59l65 129v184l-65 131l-56 52l-206 75h-502v-700z" />
<glyph unicode="&#xdf;" horiz-adv-x="1183" d="M184 0v1198l82 238l164 88h232l241 -78l86 -86l82 -170v-127l-67 -174l-107 -88l72 -78l102 -182v-207l-80 -168l-90 -86l-233 -80h-127v98h108l201 66l57 57l66 131v146l-109 209l-88 45h-168v98h162l123 55l80 152v114l-66 132l-53 51l-209 73h-194l-107 -55l-63 -196 v-1176h-97z" />
<glyph unicode="&#xe0;" horiz-adv-x="1290" d="M113 457v92l75 227l158 158l168 80h201l162 -78l86 -82v147h96v-753l153 -205l-77 -61l-121 170l-295 -164h-203l-174 82l-154 155zM213 475l70 -205l120 -118l132 -68h167l261 149v490l-134 123l-129 74h-168l-124 -70l-125 -119l-70 -205v-51zM332 1370l30 88l656 -237 l-33 -91z" />
<glyph unicode="&#xe1;" horiz-adv-x="1290" d="M113 457v92l75 227l158 158l168 80h201l162 -78l86 -82v147h96v-753l153 -205l-77 -61l-121 170l-295 -164h-203l-174 82l-154 155zM213 475l70 -205l120 -118l132 -68h167l261 149v490l-134 123l-129 74h-168l-124 -70l-125 -119l-70 -205v-51zM289 1221l655 237l31 -88 l-653 -240z" />
<glyph unicode="&#xe2;" horiz-adv-x="1290" d="M113 457v92l75 227l158 158l168 80h201l162 -78l86 -82v147h96v-753l153 -205l-77 -61l-121 170l-295 -164h-203l-174 82l-154 155zM213 475l70 -205l120 -118l132 -68h167l261 149v490l-134 123l-129 74h-168l-124 -70l-125 -119l-70 -205v-51zM279 1233l358 229 l360 -235l-53 -74l-305 199l-303 -199z" />
<glyph unicode="&#xe3;" horiz-adv-x="1290" d="M113 457v92l75 227l158 158l168 80h201l162 -78l86 -82v147h96v-753l153 -205l-77 -61l-121 170l-295 -164h-203l-174 82l-154 155zM213 475l70 -205l120 -118l132 -68h167l261 149v490l-134 123l-129 74h-168l-124 -70l-125 -119l-70 -205v-51zM264 1253l209 203h113 l219 -211l184 180l64 -63l-199 -195h-96l-223 215l-205 -196z" />
<glyph unicode="&#xe4;" horiz-adv-x="1290" d="M113 457v92l75 227l158 158l168 80h201l162 -78l86 -82v147h96v-753l153 -205l-77 -61l-121 170l-295 -164h-203l-174 82l-154 155zM213 475l70 -205l120 -118l132 -68h167l261 149v490l-134 123l-129 74h-168l-124 -70l-125 -119l-70 -205v-51zM256 1307l162 170 l164 -170l-162 -166zM702 1307l162 170l164 -170l-162 -166z" />
<glyph unicode="&#xe5;" horiz-adv-x="1290" d="M113 457v92l75 227l158 158l168 80h39l-70 35l-73 108v146l73 112l84 43h142l84 -43l73 -112v-144l-73 -112l-74 -37l158 -74l86 -82v147h96v-753l153 -205l-77 -61l-121 170l-295 -164h-203l-174 82l-154 155zM213 475l70 -205l120 -118l132 -68h167l261 149v490 l-134 123l-129 74h-168l-124 -70l-125 -119l-70 -205v-51zM498 1182l84 -95h114l88 95v100l-90 96h-121l-75 -100v-96z" />
<glyph unicode="&#xe6;" horiz-adv-x="1505" d="M92 289v49l60 154l100 94l106 53h154l127 -86v238l-186 110h-76l-86 -43l-25 -47l-98 43l29 72l180 88h57l121 -53l166 -115l82 84l143 84h156l145 -92l105 -134l41 -182v-131h-656l-4 -102l43 -103l76 -116l125 -70h131l111 72l96 106l63 -65l-114 -123l-142 -86h-164 l-167 82l-66 84l-176 -166h-184l-113 49l-105 98zM195 307l45 -119l135 -104h133l113 94l32 121l-35 154l-110 90h-135l-131 -103zM743 565h568l-29 158l-90 125l-111 72h-118l-99 -72l-92 -105l-29 -106v-72z" />
<glyph unicode="&#xe7;" horiz-adv-x="1155" d="M160 457v92l76 227l153 154l170 84h234l168 -82l116 -121l-69 -74l-109 111l-127 72h-197l-124 -72l-121 -117l-70 -205v-51l70 -205l121 -118l129 -68h194l125 74l113 112l65 -73l-116 -123l-173 -86h-170v-121h82l82 -98v-168l-98 -113h-186l-92 94l63 56l66 -66h157 v215h-155v213l-148 68l-153 157z" />
<glyph unicode="&#xe8;" horiz-adv-x="1157" d="M113 457v92l69 227l150 154l166 84h219l176 -92l111 -134l40 -182v-131h-837l69 -205l119 -116l133 -70h195l125 70l117 114l65 -71l-121 -123l-172 -86h-227l-176 82l-152 155zM219 565h744l-29 158l-98 117l-140 80h-182l-121 -72l-117 -117zM322 1370l30 88l656 -237 l-33 -91z" />
<glyph unicode="&#xe9;" horiz-adv-x="1157" d="M113 457v92l69 227l150 154l166 84h219l176 -92l111 -134l40 -182v-131h-837l69 -205l119 -116l133 -70h195l125 70l117 114l65 -71l-121 -123l-172 -86h-227l-176 82l-152 155zM219 565h744l-29 158l-98 117l-140 80h-182l-121 -72l-117 -117zM279 1221l655 237l31 -88 l-654 -240z" />
<glyph unicode="&#xea;" horiz-adv-x="1157" d="M113 457v92l69 227l150 154l166 84h219l176 -92l111 -134l40 -182v-131h-837l69 -205l119 -116l133 -70h195l125 70l117 114l65 -71l-121 -123l-172 -86h-227l-176 82l-152 155zM219 565h744l-29 158l-98 117l-140 80h-182l-121 -72l-117 -117zM268 1233l359 229 l360 -235l-53 -74l-305 199l-303 -199z" />
<glyph unicode="&#xeb;" horiz-adv-x="1157" d="M113 457v92l69 227l150 154l166 84h219l176 -92l111 -134l40 -182v-131h-837l69 -205l119 -116l133 -70h195l125 70l117 114l65 -71l-121 -123l-172 -86h-227l-176 82l-152 155zM219 565h744l-29 158l-98 117l-140 80h-182l-121 -72l-117 -117zM246 1307l162 170 l163 -170l-161 -166zM692 1307l162 170l164 -170l-162 -166z" />
<glyph unicode="&#xec;" horiz-adv-x="464" d="M-76 1370l31 88l655 -237l-32 -91zM184 0v1001h97v-1001h-97z" />
<glyph unicode="&#xed;" horiz-adv-x="464" d="M-119 1221l656 237l30 -88l-653 -240zM184 0v1001h97v-1001h-97z" />
<glyph unicode="&#xee;" horiz-adv-x="464" d="M-129 1233l358 229l361 -235l-53 -74l-306 199l-303 -199zM184 0v1001h97v-1001h-97z" />
<glyph unicode="&#xef;" horiz-adv-x="464" d="M-152 1307l162 170l164 -170l-162 -166zM184 0v1001h97v-1001h-97zM295 1307l162 170l164 -170l-162 -166z" />
<glyph unicode="&#xf0;" horiz-adv-x="1255" d="M109 449v55l77 231l160 156l229 80h91l174 -68l147 -131l62 -125l-5 205l-77 342l-93 135l-165 -182l-74 67l162 179l-154 53h-125l-164 -62l-28 95l178 63h160l206 -67l93 100l73 -66l-96 -106l121 -176l74 -371v-348l-74 -287l-168 -166l-225 -67h-93l-231 69l-158 162 zM201 475l73 -207l125 -125l193 -59h59l193 59l127 127l59 224l-98 208l-123 117l-156 53h-57l-199 -67l-127 -125z" />
<glyph unicode="&#xf1;" horiz-adv-x="1153" d="M184 0v1001h95v-149l102 80l182 82h205l156 -115l65 -176v-723h-96v698l-51 140l-101 82h-155l-146 -68l-161 -125v-727h-95zM227 1253l209 203h113l219 -211l184 180l64 -63l-199 -195h-96l-223 215l-205 -196z" />
<glyph unicode="&#xf2;" horiz-adv-x="1234" d="M113 459v88l80 225l155 160l166 86h207l164 -86l159 -160l78 -225v-90l-78 -228l-159 -159l-166 -86h-205l-166 86l-155 159zM217 477l68 -201l123 -122l127 -74h170l122 74l121 118l72 207v45l-68 203l-125 121l-125 70h-174l-120 -68l-123 -125l-68 -201v-47zM311 1370 l31 88l655 -237l-32 -91z" />
<glyph unicode="&#xf3;" horiz-adv-x="1234" d="M113 459v88l80 225l155 160l166 86h207l164 -86l159 -160l78 -225v-90l-78 -228l-159 -159l-166 -86h-205l-166 86l-155 159zM217 477l68 -201l123 -122l127 -74h170l122 74l121 118l72 207v45l-68 203l-125 121l-125 70h-174l-120 -68l-123 -125l-68 -201v-47zM268 1221 l656 237l30 -88l-653 -240z" />
<glyph unicode="&#xf4;" horiz-adv-x="1234" d="M113 459v88l80 225l155 160l166 86h207l164 -86l159 -160l78 -225v-90l-78 -228l-159 -159l-166 -86h-205l-166 86l-155 159zM217 477l68 -201l123 -122l127 -74h170l122 74l121 118l72 207v45l-68 203l-125 121l-125 70h-174l-120 -68l-123 -125l-68 -201v-47zM258 1233 l358 229l361 -235l-53 -74l-306 199l-303 -199z" />
<glyph unicode="&#xf5;" horiz-adv-x="1234" d="M113 459v88l80 225l155 160l166 86h207l164 -86l159 -160l78 -225v-90l-78 -228l-159 -159l-166 -86h-205l-166 86l-155 159zM217 477l68 -201l123 -122l127 -74h170l122 74l121 118l72 207v45l-68 203l-125 121l-125 70h-174l-120 -68l-123 -125l-68 -201v-47zM244 1253 l209 203h112l219 -211l185 180l63 -63l-198 -195h-97l-223 215l-205 -196z" />
<glyph unicode="&#xf6;" horiz-adv-x="1234" d="M113 459v88l80 225l155 160l166 86h207l164 -86l159 -160l78 -225v-90l-78 -228l-159 -159l-166 -86h-205l-166 86l-155 159zM217 477l68 -201l123 -122l127 -74h170l122 74l121 118l72 207v45l-68 203l-125 121l-125 70h-174l-120 -68l-123 -125l-68 -201v-47zM236 1307 l161 170l164 -170l-162 -166zM682 1307l162 170l164 -170l-162 -166z" />
<glyph unicode="&#xf7;" d="M115 559v103h1020v-103h-1020zM463 207l151 149l152 -149l-152 -152zM463 1001l151 152l152 -152l-152 -149z" />
<glyph unicode="&#xf8;" horiz-adv-x="1222" d="M113 459v88l80 225l155 160l166 86h207l37 -21l41 101l90 -37l-45 -109l41 -20l159 -160l78 -225v-90l-78 -228l-159 -159l-166 -86h-205l-51 24l-39 -98l-92 37l43 108l-27 15l-155 159zM217 477l68 -201l123 -122l6 -4l307 757l-19 11h-174l-120 -68l-123 -125 l-68 -201v-47zM500 98l35 -18h170l122 74l121 118l72 207v45l-68 203l-125 121l-20 10z" />
<glyph unicode="&#xf9;" horiz-adv-x="1153" d="M164 279v722h96v-698l51 -139l101 -82h155l146 68l159 124v727h97v-1001h-97v150l-100 -80l-182 -82h-205l-156 114zM262 1370l31 88l655 -237l-33 -91z" />
<glyph unicode="&#xfa;" horiz-adv-x="1153" d="M164 279v722h96v-698l51 -139l101 -82h155l146 68l159 124v727h97v-1001h-97v150l-100 -80l-182 -82h-205l-156 114zM219 1221l655 237l31 -88l-653 -240z" />
<glyph unicode="&#xfb;" horiz-adv-x="1153" d="M164 279v722h96v-698l51 -139l101 -82h155l146 68l159 124v727h97v-1001h-97v150l-100 -80l-182 -82h-205l-156 114zM209 1233l358 229l361 -235l-54 -74l-305 199l-303 -199z" />
<glyph unicode="&#xfc;" horiz-adv-x="1153" d="M164 279v722h96v-698l51 -139l101 -82h155l146 68l159 124v727h97v-1001h-97v150l-100 -80l-182 -82h-205l-156 114zM186 1307l162 170l164 -170l-162 -166zM633 1307l162 170l163 -170l-161 -166z" />
<glyph unicode="&#xfd;" horiz-adv-x="1079" d="M55 1001h111l379 -897l385 897h108l-446 -1044l-107 -229l-153 -154l-166 -84h-84v100h61l127 64l138 141l84 189zM164 1159l655 238l31 -88l-653 -240z" />
<glyph unicode="&#xfe;" horiz-adv-x="1243" d="M184 -492v2016h95v-674l92 86l157 78h201l168 -80l158 -158l75 -227v-92l-75 -232l-154 -155l-174 -82h-203l-139 57l-106 84v-621h-95zM279 233l129 -98l133 -51h168l131 68l125 118l69 205v51l-69 205l-129 119l-125 70h-168l-129 -74l-135 -119v-494z" />
<glyph unicode="&#xff;" horiz-adv-x="1079" d="M55 1001h111l379 -897l385 897h108l-446 -1044l-107 -229l-153 -154l-166 -84h-84v100h61l127 64l138 141l84 189zM131 1245l162 170l164 -170l-162 -166zM578 1245l161 170l164 -170l-162 -166z" />
<glyph unicode="&#x152;" horiz-adv-x="1949" d="M102 606v314l76 227l78 156l156 155l166 84h159l170 -84l156 -155l49 -99v320h786v-88h-688v-586h346v-98h-346v-662h688v-90h-786v322l-55 -107l-150 -152l-172 -75h-155l-172 75l-150 150l-82 162zM203 621l65 -201l68 -146l135 -131l129 -57h115l129 57l135 131 l61 138l72 213v274l-72 215l-59 133l-135 133l-129 64h-119l-125 -66l-135 -131l-62 -135l-73 -213v-278z" />
<glyph unicode="&#x153;" horiz-adv-x="1636" d="M113 459v88l53 225l127 160l143 86h129l144 -86l125 -172l120 170l144 84h155l146 -92l104 -134l41 -182v-131h-655l-4 -102l43 -103l76 -116l124 -70h132l110 72l96 106l64 -65l-115 -123l-141 -86h-164l-168 82l-108 172l-125 -172l-146 -86h-127l-143 86l-127 159z M217 477l41 -201l94 -122l105 -74h92l102 74l92 118l45 207v45l-40 203l-97 121l-104 70h-96l-99 -68l-92 -125l-43 -201v-47zM895 565h567l-28 158l-91 125l-110 72h-119l-98 -72l-88 -117l-33 -94v-72z" />
<glyph unicode="&#x178;" horiz-adv-x="1146" d="M-51 1524h125l499 -647l496 647h129l-575 -746v-778h-99v778zM193 1837l161 170l164 -170l-162 -166zM639 1837l162 170l164 -170l-162 -166z" />
<glyph unicode="&#x2c6;" horiz-adv-x="1003" d="M141 1233l359 229l360 -235l-53 -74l-305 199l-303 -199z" />
<glyph unicode="&#x2dc;" horiz-adv-x="1101" d="M178 1253l209 203h113l219 -211l184 180l64 -63l-199 -195h-96l-223 215l-205 -196z" />
<glyph unicode="&#x2000;" horiz-adv-x="1003" />
<glyph unicode="&#x2001;" horiz-adv-x="2007" />
<glyph unicode="&#x2002;" horiz-adv-x="1003" />
<glyph unicode="&#x2003;" horiz-adv-x="2007" />
<glyph unicode="&#x2004;" horiz-adv-x="669" />
<glyph unicode="&#x2005;" horiz-adv-x="501" />
<glyph unicode="&#x2006;" horiz-adv-x="334" />
<glyph unicode="&#x2007;" horiz-adv-x="334" />
<glyph unicode="&#x2008;" horiz-adv-x="250" />
<glyph unicode="&#x2009;" horiz-adv-x="401" />
<glyph unicode="&#x200a;" horiz-adv-x="111" />
<glyph unicode="&#x2010;" horiz-adv-x="948" d="M102 467v94h744v-94h-744z" />
<glyph unicode="&#x2011;" horiz-adv-x="948" d="M102 467v94h744v-94h-744z" />
<glyph unicode="&#x2012;" horiz-adv-x="948" d="M102 467v94h744v-94h-744z" />
<glyph unicode="&#x2013;" horiz-adv-x="1210" d="M102 467v94h1006v-94h-1006z" />
<glyph unicode="&#x2014;" horiz-adv-x="1912" d="M102 467v94h1708v-94h-1708z" />
<glyph unicode="&#x2018;" horiz-adv-x="425" d="M63 1128v113l68 113l172 186l62 -57l-162 -178l162 -154l-162 -170z" />
<glyph unicode="&#x2019;" horiz-adv-x="405" d="M41 1038l162 179l-162 153l162 170l139 -147v-113l-68 -113l-172 -186z" />
<glyph unicode="&#x201a;" horiz-adv-x="464" d="M113 129l161 170l140 -147v-113l-68 -113l-172 -186l-61 57l161 178z" />
<glyph unicode="&#x201c;" horiz-adv-x="782" d="M41 1128v113l68 113l172 186l61 -57l-162 -178l162 -154l-162 -170zM420 1128v113l67 113l172 186l62 -57l-162 -178l162 -154l-162 -170z" />
<glyph unicode="&#x201d;" horiz-adv-x="761" d="M41 1038l162 179l-162 153l162 170l139 -147v-113l-68 -113l-172 -186zM420 1038l162 179l-162 153l162 170l139 -147v-113l-68 -113l-172 -186z" />
<glyph unicode="&#x201e;" horiz-adv-x="843" d="M113 129l161 170l140 -147v-113l-68 -113l-172 -186l-61 57l161 178zM492 129l161 170l140 -147v-113l-68 -113l-172 -186l-61 57l161 178z" />
<glyph unicode="&#x2022;" horiz-adv-x="847" d="M92 410v213l109 161l127 64h192l127 -64l109 -161v-213l-109 -162l-127 -64h-192l-127 64z" />
<glyph unicode="&#x2026;" horiz-adv-x="1353" d="M102 129l162 170l164 -170l-162 -166zM516 129l160 170l164 -170l-162 -166zM926 129l161 170l164 -170l-161 -166z" />
<glyph unicode="&#x202f;" horiz-adv-x="401" />
<glyph unicode="&#x2039;" horiz-adv-x="780" d="M82 516l518 535l68 -68l-451 -467l451 -467l-68 -67z" />
<glyph unicode="&#x203a;" horiz-adv-x="780" d="M82 49l450 467l-450 467l68 68l518 -535l-518 -534z" />
<glyph unicode="&#x205f;" horiz-adv-x="501" />
<glyph unicode="&#x20ac;" horiz-adv-x="1554" d="M111 567v90h172v193h-172v90h178l63 207l78 156l156 155l170 84h313l166 -86l151 -147l70 -135l-92 -48l-61 121l-127 133l-129 64h-273l-125 -64l-137 -133l-70 -147l-53 -160h660v-90h-672v-193h672v-90h-654l47 -141l74 -156l133 -127l127 -57h268l132 59l127 131 l59 119l94 -43l-65 -133l-156 -156l-168 -75h-311l-172 75l-150 150l-82 162l-59 192h-182z" />
<glyph unicode="&#x2122;" horiz-adv-x="1286" d="M45 1444v80h434v-80h-174v-584h-86v584h-174zM588 860v664h112l189 -514l184 514h113v-664h-78v535l-201 -535h-39l-204 524v-524h-76z" />
<glyph unicode="&#x25fc;" horiz-adv-x="1003" d="M0 0v1004h1004v-1004h-1004z" />
<glyph unicode="&#xfb01;" horiz-adv-x="1167" d="M51 911v90h207v197l82 238l164 88h155v-97h-135l-106 -55l-64 -196v-175h285v-90h-285v-911h-96v911h-207zM772 1397l162 170l164 -170l-162 -166zM887 0v1001h96v-1001h-96z" />
<glyph unicode="&#xfb02;" horiz-adv-x="1232" d="M51 911v90h207v197l82 238l164 88h155v-97h-135l-106 -55l-64 -196v-175h285v-90h-285v-911h-96v911h-207zM846 254v1270h96v-1260l59 -114l54 -56h121v-94h-158l-92 94z" />
<glyph unicode="&#xfb03;" horiz-adv-x="1835" d="M51 911v90h207v197l82 238l164 88h155v-97h-135l-106 -55l-64 -196v-175h285v-90h-285v-911h-96v911h-207zM719 911v90h207v197l82 238l163 88h156v-97h-135l-107 -55l-63 -196v-175h285v-90h-285v-911h-96v911h-207zM1440 1397l162 170l163 -170l-161 -166zM1554 0v1001 h97v-1001h-97z" />
<glyph unicode="&#xfb04;" horiz-adv-x="1904" d="M51 911v90h207v197l82 238l164 88h155v-97h-135l-106 -55l-64 -196v-175h285v-90h-285v-911h-96v911h-207zM723 911v90h207v197l82 238l164 88h155v-97h-135l-106 -55l-64 -196v-175h285v-90h-285v-911h-96v911h-207zM1518 254v1270h96v-1260l59 -114l53 -56h121v-94 h-157l-93 94z" />
</font>
</defs>
</svg>
