<?xml version="1.0" standalone="no"?>
<!DOCTYPE svg PUBLIC "-//W3C//DTD SVG 1.1//EN" "http://www.w3.org/Graphics/SVG/1.1/DTD/svg11.dtd" >
<svg xmlns="http://www.w3.org/2000/svg" xmlns:xlink="http://www.w3.org/1999/xlink" version="1.1">
<metadata></metadata>
<defs>
<font id="btplight_rotated" horiz-adv-x="1331" >
<font-face units-per-em="2048" ascent="1536" descent="-512" />
<missing-glyph horiz-adv-x="538" />
<glyph horiz-adv-x="0" />
<glyph horiz-adv-x="682" />
<glyph unicode=" "  horiz-adv-x="538" />
<glyph unicode="&#x09;" horiz-adv-x="538" />
<glyph unicode="&#xa0;" horiz-adv-x="538" />
<glyph unicode="!" horiz-adv-x="608" d="M43 113l195 133l124 -201l-192 -129zM223 412l221 1042l95 -20l-222 -1043z" />
<glyph unicode="&#x22;" horiz-adv-x="636" d="M117 1067l102 485l92 -20l-102 -485zM336 1020l102 485l92 -20l-102 -486z" />
<glyph unicode="#" horiz-adv-x="1400" d="M121 86l211 465l-195 41l17 80l213 -45l135 303l-281 59l19 84l301 -65l250 551l73 -35l-239 -533l346 -73l246 548l79 -34l-241 -533l202 -43l-18 -82l-223 47l-135 -305l290 -61l-16 -80l-311 65l-213 -483l-84 37l213 465l-348 73l-213 -481zM449 608l348 -73l135 305 l-344 71z" />
<glyph unicode="$" horiz-adv-x="1308" d="M29 305l80 64l108 -148l160 -92l149 707l-143 114l-82 125l-33 137l33 152l209 149l164 15l35 162l92 -19l-31 -139l166 -35l29 139l92 -20l-35 -160l147 -82l111 -149l-84 -66l-113 146l-84 47l-135 -641l137 -107l62 -100l45 -178l-39 -193l-178 -123l-180 -22 l-43 -205l-93 20l37 174l-163 35l-39 -174l-93 19l39 174l-14 4l-229 137zM373 1225l28 -131l62 -78l88 -70l100 479l-108 -8l-152 -106zM469 109l156 -35l8 2l125 590l-148 108zM633 883l149 -109l131 625l-163 35zM731 86l100 10l148 90l29 140l-35 139l-49 72l-82 65z " />
<glyph unicode="%" horiz-adv-x="1611" d="M-8 199l1366 1036l-322 68l-307 186l-22 2l32 -215l-32 -162l-132 -176l-139 -53l-80 20l-108 99l-37 217l35 159l127 211l137 31l248 -53l297 -185l383 -79l121 90l51 -68l-1567 -1198zM281 1217l24 -113l311 401l-45 21l-75 16l-80 -24l-107 -170zM342 1030l29 -33 l88 -18l73 25l101 137l29 133l-17 139zM854 248l33 153l133 213l135 33l84 -18l113 -80l37 -254l-33 -154l-131 -178l-142 -53l-82 20l-106 99zM928 240l26 -107l306 379l-39 31l-82 18l-78 -20l-107 -174zM987 55l29 -35l92 -18l74 23l98 137l27 131l-11 141z" />
<glyph unicode="&#x26;" horiz-adv-x="1474" d="M92 459l27 131l114 141l93 57l297 109l-164 293l39 184l116 142l213 55l91 -19l165 -133l47 -180l-26 -125l-107 -137l-264 -125l289 -537l127 123l137 221l76 -53l-127 -205l-176 -168l110 -188l109 -86l125 -27l-17 -77l-145 30l-147 117l-109 168l-168 -111l-180 -47 l-291 64l-145 114l-62 89zM193 451l32 -140l60 -71l112 -88l228 -48l151 37l178 111l-305 559l-282 -109l-70 -47l-82 -104zM553 1200l147 -268l226 102l98 113l18 92l-36 133l-109 90l-90 21l-141 -39l-86 -115z" />
<glyph unicode="'" horiz-adv-x="309" d="M92 1059l195 141l-125 182l194 134l105 -175l-25 -108l-88 -96l-205 -146z" />
<glyph unicode="(" horiz-adv-x="772" d="M160 209l4 395l20 101l158 362l211 264l197 197l180 117l55 -89l-176 -114l-178 -174l-205 -254l-141 -334l-21 -94l-6 -363l84 -315l92 -230l115 -180l-88 -53l-115 174l-100 262z" />
<glyph unicode=")" horiz-adv-x="774" d="M-209 -381l178 117l176 172l205 254l144 334l20 94l6 362l-84 316l-92 231l-115 178l88 56l115 -179l100 -260l86 -327l-4 -394l-20 -100l-158 -364v2l-211 -267l-198 -196l-179 -115z" />
<glyph unicode="*" horiz-adv-x="970" d="M117 1071l340 29l-199 276l74 51l182 -274l145 324l78 -37l-143 -320l328 47l14 -96l-344 -31l211 -274l-80 -53l-188 276l-146 -325l-78 36l144 324l-322 -49z" />
<glyph unicode="+" horiz-adv-x="1323" d="M117 752l18 92l453 -96l96 452l92 -18l-96 -453l453 -96l-19 -92l-452 96l-97 -453l-92 19l96 452z" />
<glyph unicode="," horiz-adv-x="542" d="M-8 -94l219 96l-84 205l217 90l68 -193l-47 -100l-107 -76l-231 -100z" />
<glyph unicode="-" horiz-adv-x="942" d="M78 451l20 92l727 -154l-20 -92z" />
<glyph unicode="." horiz-adv-x="526" d="M76 150l192 131l125 -201l-192 -127z" />
<glyph unicode="/" horiz-adv-x="964" d="M-209 -313l1282 1947l76 -51l-1278 -1945z" />
<glyph unicode="0" d="M104 406l7 374l39 189l149 346l203 201l250 26l159 -35l207 -118l109 -275l-4 -373l-41 -190l-148 -340l-209 -205l-239 -18l-158 32l-219 121zM205 410l39 -113l809 1022l-185 98l-114 25l-209 -21l-162 -153l-139 -328l-37 -172zM289 207l178 -96l115 -25l206 18 l158 152l141 328l37 172l4 352l-38 106z" />
<glyph unicode="1" horiz-adv-x="782" d="M172 1311l21 94l77 -16l193 67l106 68l117 -25l-317 -1489l-93 19l295 1390l-96 -57l-203 -72z" />
<glyph unicode="2" horiz-adv-x="1208" d="M-70 141l21 101l821 483l172 168l92 115l25 118l-35 136l-43 65l-115 94l-258 54l-135 -39l-65 -41l-91 -115l-20 -90l-94 20l24 115l113 143l90 58l182 47l297 -64l144 -116l61 -90l45 -173l-35 -161l-100 -131l-201 -191l-751 -440l858 -182l-21 -93z" />
<glyph unicode="3" horiz-adv-x="1286" d="M-14 393l98 25l35 -142l47 -71l174 -99l197 -40l202 16l148 96l108 180l17 84l-21 203l-178 189l-203 43l-69 -15l-49 90l532 389l-647 138l18 88l768 -162l-20 -90l-490 -354l226 -50l206 -219l25 -252l-25 -114l-124 -215l-185 -123l-244 -21l-227 49l-211 115l-63 96z " />
<glyph unicode="4" horiz-adv-x="1243" d="M47 694l14 70l822 733l108 -22l-180 -850l264 -56l-18 -88l-266 56l-117 -553l-96 20l116 553zM186 758l529 -113l151 717z" />
<glyph unicode="5" horiz-adv-x="1325" d="M23 410l94 24l39 -143l45 -70l176 -102l198 -41l199 22l152 93l102 176l21 94l-23 201l-98 153l-174 101l-197 43l-135 -11l-90 -53l-129 53l215 633l784 -168l-20 -90l-695 148l-155 -463l229 51l223 -49l217 -125l119 -185l27 -249l-25 -115l-125 -215l-186 -119 l-244 -24l-227 49l-209 121l-63 94z" />
<glyph unicode="6" horiz-adv-x="1261" d="M86 621l74 340l149 348l205 198l248 27l158 -33l213 -125l47 -174l-93 -22l-36 125l-166 104l-123 27l-207 -25l-162 -156l-147 -317l-45 -199l86 109l170 98l184 29l88 -19l209 -125l123 -186l29 -242l-13 -55l-123 -207l-188 -127l-240 -18l-90 18l-207 113l-131 197z M186 584l13 -230l96 -151l176 -99l59 -12l201 19l148 96l114 186l-24 215l-99 150l-180 106l-57 13l-162 -21l-145 -88z" />
<glyph unicode="7" horiz-adv-x="1101" d="M78 6l987 1256l-885 188l19 88l993 -211l-18 -90l-986 -1253z" />
<glyph unicode="8" horiz-adv-x="1325" d="M55 416l39 168l94 121l187 124l182 17l-129 72l-88 81l-47 177l35 157l141 174l244 37l217 -45l211 -133l57 -217l-33 -160l-104 -135l-141 -47l-132 -4l164 -96l117 -189l37 -149l-35 -170l-110 -140l-101 -65l-237 -19l-248 52l-209 116l-66 99zM158 418l35 -133 l43 -70l176 -98l215 -45l200 18l68 47l86 107l23 121l-37 141l-95 151l-200 127l-252 -30l-144 -101l-92 -114zM393 1174l35 -125l92 -91l162 -90l188 17l119 41l84 104l25 115l-41 149l-160 113l-190 41l-193 -37l-96 -125z" />
<glyph unicode="9" horiz-adv-x="1259" d="M78 324l94 22l35 -125l170 -106l117 -25l206 25l162 153l150 324l30 158l-65 -78l-184 -109l-181 -18l-82 18l-217 125l-118 186l-29 242l12 53l125 211l184 125l246 27l84 -16l211 -117l129 -197l12 -301l-71 -342l-150 -342l-205 -199l-249 -26l-156 33l-213 125z M264 1124l27 -213l96 -149l180 -107l54 -12l170 19l147 90l131 166l-10 251l-96 154l-177 98l-61 13l-197 -23l-153 -100z" />
<glyph unicode=":" horiz-adv-x="462" d="M47 117l195 131l125 -199l-193 -129zM209 868l192 133l125 -200l-192 -127z" />
<glyph unicode=";" horiz-adv-x="532" d="M41 -203l195 142l-125 182l192 133l107 -172l-25 -111l-88 -96l-207 -147zM270 874l193 134l125 -201l-193 -129z" />
<glyph unicode="&#x3c;" horiz-adv-x="1132" d="M186 846l889 608l58 -78l-814 -559l517 -835l-84 -48z" />
<glyph unicode="=" horiz-adv-x="1323" d="M76 492l20 92l998 -211l-19 -92zM156 862l18 92l1000 -211l-21 -92z" />
<glyph unicode="&#x3e;" horiz-adv-x="1132" d="M-18 150l809 555l-515 839l84 47l564 -915l-885 -604z" />
<glyph unicode="?" horiz-adv-x="1030" d="M63 1153l19 88l113 141l96 62l172 43l289 -62l135 -108l63 -92l45 -178l-37 -170l-112 -146l-86 -53l-285 -78l-45 -213l-94 21l57 274l326 86l76 57l71 101l25 112l-23 115l-51 88l-123 100l-223 48l-143 -39l-82 -54l-80 -98l-12 -63zM156 109l194 131l125 -199 l-192 -129z" />
<glyph unicode="@" horiz-adv-x="1765" d="M100 600l31 141l109 201l100 148l168 129l176 45l236 26l239 -51l207 -121l131 -110l119 -191l35 -174l20 -229l-22 -107l-109 -221l-201 -135l-178 39l-82 125l8 43l-180 -115l-243 51l-146 115l-67 106l-45 181l51 239l112 139l105 68l180 47l242 -51l121 -178l18 92 l102 -21l-147 -698l41 -61l90 -19l143 103l95 192l14 64l-19 225l-30 143l-97 160l-108 92l-201 117l-198 43l-230 -27l-145 -39l-139 -108l-78 -121l-107 -197l-22 -102l16 -227l23 -144l81 -155l119 -95l199 -118l199 -41l223 22l14 -94l-237 -27l-240 50l-203 122 l-145 111l-98 191l-33 172zM506 492l39 -142l45 -74l115 -96l192 -41l231 150l72 340l-151 223l-195 41l-141 -41l-72 -47l-92 -111z" />
<glyph unicode="A" d="M-8 213l848 1378l110 -24l215 -1602l-104 21l-66 592l-598 127l-301 -512zM449 786l530 -110l-102 817z" />
<glyph unicode="B" horiz-adv-x="1357" d="M63 100l318 1491l627 -133l221 -127l65 -100l45 -184l-26 -125l-103 -156l-123 -64l56 -92l61 -198l-43 -203l-112 -148l-107 -65l-246 -29zM180 176l520 -108l209 22l68 43l92 115l31 141l-64 227l-75 64l-644 135zM336 911l639 -135l131 29l108 133l25 111l-37 143 l-41 59l-190 115l-514 109z" />
<glyph unicode="C" horiz-adv-x="1355" d="M119 758l65 309l121 207l109 135l184 121l184 47l236 -51l145 -119l117 -176l45 -164l-100 -27l-39 150l-96 156l-115 90l-195 41l-137 -37l-162 -101l-98 -131l-102 -178l-60 -276l23 -205l39 -166l104 -154l113 -82l192 -41l139 31l152 103l94 120l84 -61l-104 -133 l-185 -121l-180 -39l-233 49l-154 111l-115 178l-45 174z" />
<glyph unicode="D" horiz-adv-x="1347" d="M63 100l318 1491l489 -104l215 -125l125 -193l41 -168l29 -235l-59 -274l-125 -211l-105 -129l-194 -127l-240 -29zM180 176l379 -80l209 23l154 108l90 111l118 197l50 231l-27 217l-39 150l-96 149l-187 113l-374 80z" />
<glyph unicode="E" horiz-adv-x="1171" d="M74 129l317 1491l881 -188l-19 -86l-784 165l-121 -571l449 -96l-21 -96l-448 96l-138 -647l783 -166l-19 -90z" />
<glyph unicode="F" horiz-adv-x="1140" d="M78 43l317 1491l889 -188l-20 -97l-793 168l-119 -563l449 -94l-21 -96l-448 94l-158 -735z" />
<glyph unicode="G" horiz-adv-x="1390" d="M113 745l65 308l121 207l109 137l184 119l184 47l236 -50l143 -118l119 -176l45 -164l-100 -29l-39 156l-99 151l-112 88l-195 41l-137 -35l-162 -102l-98 -129l-103 -180l-59 -277l23 -202l38 -168l105 -152l113 -82l192 -41l137 29l156 98l92 117l37 176l-412 88l21 92 l510 -108l-62 -291l-118 -145l-183 -117l-178 -41l-233 51l-152 109l-117 178l-45 176z" />
<glyph unicode="H" horiz-adv-x="1404" d="M59 145l318 1491l96 -20l-141 -660l835 -176l142 660l96 -21l-318 -1491l-96 21l156 735l-834 176l-157 -735z" />
<glyph unicode="I" horiz-adv-x="516" d="M102 39l318 1491l96 -21l-317 -1491z" />
<glyph unicode="J" horiz-adv-x="1067" d="M68 518l36 174l97 -20l-35 -160l22 -211l43 -70l119 -84l86 -18l139 31l62 39l115 196l233 1092l96 -21l-237 -1112l-123 -213l-107 -67l-178 -39l-127 26l-147 105l-66 106z" />
<glyph unicode="K" horiz-adv-x="1320" d="M72 143l317 1491l96 -20l-186 -881l1016 705l123 -25l-772 -539l436 -948l-117 25l-401 868l-314 -219l-102 -475z" />
<glyph unicode="L" horiz-adv-x="1093" d="M115 125l317 1491l98 -21l-297 -1394l736 -156l-21 -96z" />
<glyph unicode="M" horiz-adv-x="1548" d="M45 164l317 1489l101 -21l213 -1462l788 1249l101 -22l-318 -1489l-94 20l268 1258l-731 -1159l-86 16l-196 1360l-269 -1260z" />
<glyph unicode="N" horiz-adv-x="1413" d="M61 145l318 1491l113 -22l536 -1501l283 1327l96 -21l-317 -1491l-109 23l-539 1511l-284 -1337z" />
<glyph unicode="O" horiz-adv-x="1433" d="M100 750l66 307l121 207l108 135l185 121l180 47l237 -49l148 -119l121 -185l43 -167l26 -238l-65 -309l-123 -209l-115 -139l-176 -117l-184 -39l-234 51l-151 109l-115 178l-47 174zM203 743l22 -208l35 -158l105 -156l114 -84l193 -41l137 31l160 100l90 121l115 193 l57 268l-27 225l-30 144l-105 157l-113 90l-196 41l-135 -36l-160 -101l-88 -121l-117 -192z" />
<glyph unicode="P" horiz-adv-x="1267" d="M74 43l317 1489l574 -121l221 -127l63 -102l45 -183l-61 -288l-113 -146l-106 -65l-244 -29l-483 102l-117 -550zM307 666l465 -101l209 29l70 45l90 113l53 249l-37 142l-43 61l-186 119l-461 96z" />
<glyph unicode="Q" horiz-adv-x="1433" d="M123 764l65 307l121 207l109 137l184 119l184 47l234 -49l147 -117l121 -186l43 -168l27 -238l-66 -309l-121 -211l-108 -131l-154 -102l142 -215l-72 -43l-145 227l-138 -27l-233 49l-152 109l-114 178l-47 174zM225 762l27 -230l33 -141l100 -164l117 -80l209 -45 l71 15l-125 213l66 39l133 -222l139 91l90 129l113 188l57 268l-28 228l-31 141l-104 160l-113 88l-197 41l-135 -37l-160 -101l-88 -118l-116 -195z" />
<glyph unicode="R" horiz-adv-x="1310" d="M96 137l318 1491l596 -127l219 -127l65 -94l47 -186l-22 -109l-121 -154l-98 -59l-217 -22l141 -809l-106 22l-127 795l-443 94l-155 -735zM369 944l489 -104l205 24l70 47l94 115l14 66l-41 143l-39 59l-186 117l-486 105z" />
<glyph unicode="S" horiz-adv-x="1216" d="M41 354l94 35l80 -149l164 -95l172 -36l209 20l145 90l31 139l-35 140l-51 71l-469 400l-82 125l-33 137l33 151l209 150l242 22l135 -28l211 -119l84 -150l-97 -47l-73 127l-162 95l-105 22l-202 -18l-152 -107l-18 -86l41 -141l47 -68l469 -397l63 -98l45 -181 l-41 -192l-176 -123l-274 -35l-205 45l-229 137z" />
<glyph unicode="T" horiz-adv-x="886" d="M92 1489l19 86l923 -197l-18 -86l-410 88l-299 -1405l-100 21l299 1405z" />
<glyph unicode="U" horiz-adv-x="1382" d="M121 549l223 1042l98 -20l-219 -1030l13 -201l96 -152l174 -100l112 -25l187 19l149 98l103 191l217 1024l98 -23l-221 -1042l-113 -215l-198 -121l-226 -31l-151 33l-195 110l-129 199z" />
<glyph unicode="V" horiz-adv-x="1124" d="M102 1597l107 -22l192 -1462l775 1257l104 -22l-854 -1377l-104 23z" />
<glyph unicode="W" horiz-adv-x="1527" d="M168 1640l104 -20l-2 -1380l574 1257l104 -22l13 -1381l559 1260l102 -23l-653 -1417l-92 18l-11 1420l-585 -1293l-93 21z" />
<glyph unicode="X" horiz-adv-x="1204" d="M-43 150l637 643l-318 845l113 -22l279 -750l563 570l115 -25l-637 -643l317 -846l-113 23l-282 749l-559 -569z" />
<glyph unicode="Y" horiz-adv-x="1030" d="M20 1589l123 -24l355 -738l618 531l127 -29l-719 -608l-162 -762l-96 21l162 761z" />
<glyph unicode="Z" horiz-adv-x="1165" d="M-2 147l20 97l1135 1114l-817 174l20 96l930 -198l-20 -97l-1135 -1114l854 -182l-20 -96z" />
<glyph unicode="[" horiz-adv-x="806" d="M-70 -428l467 2197l547 -114l-20 -96l-451 94l-426 -2003l451 -94l-21 -99z" />
<glyph unicode="\" horiz-adv-x="823" d="M190 1774l93 14l376 -2300l-92 -12z" />
<glyph unicode="]" horiz-adv-x="806" d="M-143 -428l20 98l451 -94l426 2003l-451 94l21 96l546 -114l-467 -2198z" />
<glyph unicode="^" horiz-adv-x="1155" d="M172 1161l463 305l301 -467l-82 -53l-248 381l-381 -248z" />
<glyph unicode="_" horiz-adv-x="1155" d="M86 164l20 92l953 -203l-21 -92z" />
<glyph unicode="`" horiz-adv-x="897" d="M150 1440l49 80l592 -369l-52 -82z" />
<glyph unicode="a" horiz-adv-x="1206" d="M86 590l18 90l121 207l189 121l180 45l197 -43l141 -109l67 -98l31 143l94 -20l-157 -738l108 -231l-88 -43l-84 190l-321 -98l-199 41l-154 117l-118 184zM188 588l25 -215l94 -142l113 -94l166 -35l284 93l103 479l-105 147l-112 101l-164 34l-137 -43l-146 -90 l-110 -186z" />
<glyph unicode="b" horiz-adv-x="1183" d="M57 102l318 1491l92 -20l-139 -660l106 66l172 43l195 -41l149 -113l121 -188l27 -238l-19 -90l-123 -211l-182 -118l-188 -46l-199 43l-123 84l-88 105l-26 -125zM199 311l106 -123l119 -77l164 -35l143 39l146 90l110 186l12 49l-26 215l-101 144l-108 94l-164 35 l-141 -45l-158 -88z" />
<glyph unicode="c" horiz-adv-x="1093" d="M90 573l21 91l120 206l183 119l184 47l227 -49l148 -115l90 -143l-84 -57l-84 131l-109 96l-192 41l-137 -45l-144 -88l-110 -186l-10 -50l26 -215l92 -141l113 -94l190 -39l138 45l133 88l49 -86l-139 -96l-187 -49l-221 47l-154 114l-116 187z" />
<glyph unicode="d" horiz-adv-x="1189" d="M86 571l18 91l121 206l189 121l180 45l197 -43l141 -108l69 -101l140 656l92 -19l-318 -1491l-92 21l27 125l-121 -60l-147 -26l-199 41l-154 116l-118 185zM184 569l25 -215l98 -141l113 -94l166 -35l139 22l147 70l103 483l-107 148l-112 96l-164 35l-137 -43l-150 -90 l-110 -184z" />
<glyph unicode="e" horiz-adv-x="1128" d="M86 573l18 91l115 206l178 119l181 49l215 -47l151 -125l82 -153l2 -187l-29 -129l-819 174l27 -215l92 -139l115 -94l190 -41l137 41l138 88l49 -84l-144 -94l-186 -49l-221 47l-156 116l-117 185zM211 657l727 -155l6 162l-72 133l-120 108l-179 37l-133 -45l-137 -90z " />
<glyph unicode="f" horiz-adv-x="757" d="M115 905l20 88l201 -43l41 193l131 215l178 53l152 -33l-21 -94l-131 29l-117 -33l-102 -178l-37 -170l279 -60l-19 -88l-278 60l-189 -893l-94 20l188 891z" />
<glyph unicode="g" horiz-adv-x="1175" d="M47 -272l55 75l203 -163l193 -41l135 32l74 47l102 187l45 211l-121 -60l-145 -26l-213 45l-152 115l-117 184l-26 241l18 91l123 206l187 123l180 43l211 -45l141 -112l66 -95l30 144l94 -21l-231 -1089l-115 -207l-102 -66l-182 -49l-230 49zM182 573l25 -215l96 -143 l113 -90l176 -39l137 23l148 69l102 479l-105 148l-112 100l-176 37l-135 -43l-148 -90l-110 -184z" />
<glyph unicode="h" horiz-adv-x="1171" d="M92 94l318 1491l94 -20l-139 -656l110 58l195 41l200 -43l127 -144l35 -184l-151 -711l-95 21l148 686l-29 145l-82 101l-151 32l-156 -37l-178 -88l-152 -712z" />
<glyph unicode="i" horiz-adv-x="485" d="M82 23l209 981l94 -21l-209 -981zM260 1413l195 133l125 -200l-195 -129z" />
<glyph unicode="j" horiz-adv-x="514" d="M-289 -408l21 93l131 -27l125 35l94 178l244 1137l94 -19l-248 -1161l-119 -217l-192 -49zM297 1417l192 133l125 -200l-192 -127z" />
<glyph unicode="k" horiz-adv-x="1069" d="M72 121l317 1491l94 -21l-233 -1099l717 462l133 -28l-516 -334l372 -660l-131 29l-325 576l-279 -179l-55 -258z" />
<glyph unicode="l" horiz-adv-x="557" d="M131 268l264 1243l94 -20l-262 -1233l35 -125l41 -63l117 -27l-19 -92l-153 33l-72 112z" />
<glyph unicode="m" horiz-adv-x="1882" d="M104 186l209 979l93 -18l-31 -146l121 62l176 45l215 -45l127 -143l12 -93l164 88l174 48l215 -48l129 -143l27 -186l-152 -713l-94 18l147 691l-22 147l-80 100l-166 35l-137 -39l-189 -94l-151 -711l-94 19l145 690l-20 148l-82 100l-166 35l-135 -39l-191 -94 l-151 -711z" />
<glyph unicode="n" horiz-adv-x="1175" d="M92 111l209 981l90 -21l-31 -145l117 55l197 43l200 -43l127 -143l29 -187l-151 -706l-95 18l146 684l-21 148l-82 100l-151 33l-156 -37l-184 -88l-152 -711z" />
<glyph unicode="o" horiz-adv-x="1169" d="M82 578l18 86l125 202l187 125l180 49l201 -43l143 -118l123 -189l28 -237l-18 -88l-123 -205l-190 -125l-181 -49l-198 43l-146 118l-118 189zM188 573l25 -211l94 -145l109 -98l166 -35l137 45l141 92l115 187l8 45l-25 213l-96 143l-108 94l-170 37l-131 -41l-148 -98 l-106 -183z" />
<glyph unicode="p" horiz-adv-x="1228" d="M0 -365l309 1461l92 -19l-30 -149l108 65l170 43l197 -41l147 -114l121 -187l27 -237l-19 -90l-123 -211l-182 -121l-186 -43l-199 41l-125 86l-86 104l-129 -608zM242 326l106 -123l119 -78l164 -35l143 39l148 90l110 184l10 52l-26 215l-101 143l-108 94l-164 35 l-141 -45l-158 -90z" />
<glyph unicode="q" horiz-adv-x="1177" d="M86 573l18 91l123 206l187 121l180 43l197 -41l141 -110l69 -99l31 146l92 -21l-309 -1460l-92 21l129 606l-123 -60l-147 -28l-199 43l-154 116l-116 185zM184 571l25 -215l98 -141l115 -94l164 -35l141 23l145 69l103 484l-107 147l-110 94l-166 35l-135 -41l-152 -90 l-110 -186z" />
<glyph unicode="r" horiz-adv-x="878" d="M94 31l207 979l92 -19l-28 -141l194 119l146 -33l112 -115l25 -149l-92 -15l-21 117l-84 80l-67 14l-240 -141l-152 -717z" />
<glyph unicode="s" horiz-adv-x="970" d="M27 354l96 33l55 -149l166 -113l117 -25l172 35l72 60l30 65l-22 100l-121 89l-254 110l-141 107l-37 180l106 149l250 45l158 -32l211 -140l59 -168l-94 -26l-51 127l-166 114l-119 25l-197 -31l-55 -86l19 -100l118 -82l254 -106l152 -121l33 -168l-56 -107l-100 -102 l-217 -37l-158 35l-215 147z" />
<glyph unicode="t" horiz-adv-x="727" d="M111 993l20 88l199 -41l76 355l92 -21l-76 -354l278 -59l-18 -89l-279 60l-118 -557l22 -193l105 -84l106 -22l-20 -96l-129 28l-148 119l-31 252l121 573z" />
<glyph unicode="u" horiz-adv-x="1165" d="M131 383l152 707l94 -19l-146 -684l21 -147l82 -101l151 -33l156 37l182 88l152 713l94 -20l-209 -981l-92 20l31 148l-115 -58l-197 -43l-200 43l-127 144z" />
<glyph unicode="v" horiz-adv-x="1013" d="M104 1065l105 -23l174 -925l535 776l104 -23l-625 -890l-80 16z" />
<glyph unicode="w" horiz-adv-x="1294" d="M109 1096l102 -21l49 -854l391 760l64 -14l49 -854l393 761l103 -22l-496 -920l-80 19l-43 821l-375 -733l-80 16z" />
<glyph unicode="x" horiz-adv-x="1044" d="M-39 123l490 409l-283 570l129 -27l231 -477l410 340l125 -27l-488 -407l283 -572l-127 27l-235 477l-406 -340z" />
<glyph unicode="y" horiz-adv-x="1064" d="M-184 -403l20 98l88 -19l137 35l164 111l119 166l-215 1087l109 -22l184 -957l563 797l105 -23l-654 -927l-149 -203l-183 -119l-180 -47z" />
<glyph unicode="z" horiz-adv-x="1011" d="M10 115l23 98l844 651l-635 135l18 86l746 -157l-23 -99l-840 -647l674 -143l-18 -92z" />
<glyph unicode="{" horiz-adv-x="643" d="M-27 -129l25 113l117 143l90 59l88 113l14 66l-149 229l22 100l228 146l14 65l-35 142l-59 86l-47 182l24 115l117 145l102 65l162 43l23 -98l-144 -37l-76 -49l-94 -115l-14 -69l39 -139l57 -89l45 -180l-26 -125l-201 -131l-53 -22l39 -43l131 -201l-27 -127l-115 -147 l-88 -56l-92 -112l-16 -74l39 -139l49 -76l117 -92l-62 -78l-131 102l-66 105z" />
<glyph unicode="|" horiz-adv-x="450" d="M-35 -473l465 2195l90 -20l-465 -2196z" />
<glyph unicode="}" horiz-adv-x="643" d="M-74 -367l146 41l78 50l88 110l16 74l-35 139l-59 88l-47 182l26 125l203 131l53 23l-39 41l-133 203l27 127l117 143l90 59l88 111l14 70l-35 141l-49 76l-119 92l62 82l131 -107l67 -100l46 -180l-25 -115l-115 -147l-88 -56l-92 -112l-14 -66l151 -227l-22 -101 l-230 -147l-14 -66l39 -141l57 -90l45 -178l-24 -113l-115 -145l-102 -68l-164 -41z" />
<glyph unicode="~" horiz-adv-x="1175" d="M59 557l279 170l199 -41l170 -262l106 -23l244 160l53 -80l-272 -178l-195 41l-170 260l-115 25l-252 -148z" />
<glyph unicode="&#xa1;" horiz-adv-x="522" d="M84 -37l221 1043l94 -21l-221 -1042zM260 1352l193 129l127 -197l-195 -133z" />
<glyph unicode="&#xa2;" horiz-adv-x="1157" d="M111 586l18 90l121 207l182 118l184 48l48 -11l41 199l92 -20l-41 -199l90 -19l147 -114l88 -144l-84 -57l-82 131l-110 96l-70 15l-174 -817l72 -15l139 45l133 88l49 -86l-141 -96l-184 -49l-88 18l-35 -168l-92 21l35 168l-43 8l-152 115l-117 186zM213 584l25 -215 l94 -142l112 -92l25 -6l174 817l-31 6l-137 -43l-141 -90l-111 -186z" />
<glyph unicode="&#xa3;" horiz-adv-x="1202" d="M-51 156l26 131l199 114l98 172l58 273l-201 43l18 88l201 -43l62 289l114 219l109 69l174 41l143 -30l142 -123l77 -209l-30 -139l-92 20l24 113l-55 151l-109 99l-100 20l-139 -39l-68 -43l-100 -192l-58 -267l322 -67l-21 -88l-319 67l-53 -254l-127 -237l-183 -105 l875 -186l-21 -92z" />
<glyph unicode="&#xa4;" horiz-adv-x="1155" d="M29 227l221 156l-23 51l-10 150l12 63l72 135l39 35l-137 234l88 49l139 -234l78 39l67 10l156 -34l62 -37l57 -70l225 160l60 -84l-224 -156l23 -49l10 -149l-12 -64l-72 -137l-39 -35l137 -231l-88 -52l-139 234l-78 -39l-69 -8l-154 33l-63 39l-58 67l-223 -158z M319 594l11 -150l112 -153l170 -35l160 92l70 133l-11 156l-108 147l-166 35l-168 -90z" />
<glyph unicode="&#xa5;" horiz-adv-x="1247" d="M145 489l19 89l366 -78l25 121l-367 77l19 88l358 -75l-319 856l125 -27l272 -754l537 582l131 -27l-633 -655l356 -76l-18 -88l-365 78l-24 -121l364 -78l-18 -88l-365 78l-94 -438l-96 20l94 439z" />
<glyph unicode="&#xa6;" horiz-adv-x="409" d="M-72 -475l217 1022l91 -21l-218 -1022zM188 752l205 968l90 -20l-204 -967z" />
<glyph unicode="&#xa7;" horiz-adv-x="978" d="M8 260l96 25l25 -86l158 -105l102 -20l174 26l105 113l-35 119l-96 84l-226 116l-151 117l-41 185l121 155l153 58l-123 100l-45 196l123 164l238 29l143 -31l201 -125l37 -120l-90 -21l-25 72l-152 114l-110 23l-195 -29l-69 -94l24 -139l121 -99l211 -96l139 -114 l45 -146l-12 -59l-117 -137l-159 -52l131 -104l43 -133l-19 -82l-115 -150l-221 -32l-145 30l-207 125zM221 811l29 -125l121 -94l123 -55l172 57l114 121l-24 104l-142 111l-147 61l-160 -71z" />
<glyph unicode="&#xa8;" horiz-adv-x="993" d="M119 1386l192 134l125 -201l-192 -129zM555 1294l195 133l124 -200l-192 -129z" />
<glyph unicode="&#xa9;" horiz-adv-x="1773" d="M117 854l30 141l103 209l112 144l185 127l174 43l237 26l179 -37l213 -123l141 -112l115 -189l47 -178l12 -233l-31 -142l-106 -208l-115 -142l-182 -129l-174 -45l-238 -26l-184 38l-207 121l-141 113l-117 192l-45 174zM215 852l8 -227l39 -146l94 -160l119 -94 l199 -116l145 -31l230 26l145 39l152 105l96 119l100 202l23 103l-11 227l-41 148l-92 157l-125 101l-192 110l-146 31l-229 -27l-145 -37l-154 -106l-94 -117l-100 -207zM428 748l51 239l113 146l104 67l181 49l243 -53l144 -117l61 -94l-82 -51l-53 76l-113 94l-198 41 l-144 -39l-71 -45l-91 -117l-43 -201l37 -139l47 -72l117 -92l195 -43l143 37l80 51l53 -79l-94 -64l-180 -47l-242 51l-145 115l-68 106z" />
<glyph unicode="&#xaa;" horiz-adv-x="985" d="M174 1208l16 78l99 180l200 93l179 -37l118 -111l15 68l84 -19l-107 -502l68 -172l-82 -32l-68 145l-161 -94l-193 41l-154 182zM274 1079l121 -147l125 -27l178 92l66 314l-135 129l-127 26l-154 -86l-74 -151v-150z" />
<glyph unicode="&#xab;" horiz-adv-x="1275" d="M125 629l616 413l54 -79l-539 -363l344 -551l-80 -51zM606 526l619 414l53 -80l-539 -362l344 -551l-79 -51z" />
<glyph unicode="&#xac;" horiz-adv-x="1241" d="M147 872l21 97l1032 -219l-125 -590l-96 20l104 494z" />
<glyph unicode="&#xad;" horiz-adv-x="942" d="M78 451l20 92l727 -154l-20 -92z" />
<glyph unicode="&#xae;" horiz-adv-x="1773" d="M113 854l30 141l103 209l112 144l185 127l174 43l237 26l179 -37l213 -123l141 -112l115 -189l47 -178l12 -233l-31 -142l-106 -208l-115 -142l-182 -129l-174 -45l-238 -26l-184 38l-207 121l-141 113l-117 192l-45 174zM211 852l8 -227l39 -146l94 -160l119 -94 l199 -116l145 -31l229 26l146 39l151 105l97 119l100 202l23 103l-11 227l-41 148l-92 157l-125 101l-192 110l-146 31l-229 -27l-145 -37l-154 -106l-94 -117l-101 -207zM510 408l182 860l385 -82l125 -74l43 -65l27 -109l-21 -96l-67 -86l-66 -41l-78 -8l99 -433l-115 25 l-84 403l-254 54l-78 -369zM707 852l260 -55l106 6l78 71l16 76l-41 101l-96 45l-260 55z" />
<glyph unicode="&#xaf;" horiz-adv-x="888" d="M88 1352l21 98l694 -150l-21 -98z" />
<glyph unicode="&#xb0;" horiz-adv-x="929" d="M76 1133l49 233l156 152l157 38l207 -45l127 -98l82 -203l-49 -233l-158 -152l-155 -39l-207 45l-129 99zM170 1137l123 -209l237 -51l191 143l41 184l-125 213l-246 53l-182 -151z" />
<glyph unicode="&#xb1;" horiz-adv-x="1239" d="M2 362l18 93l998 -211l-19 -92zM135 989l19 92l452 -96l96 453l93 -19l-97 -452l453 -97l-18 -92l-453 96l-88 -409l-92 20l88 408z" />
<glyph unicode="&#xb2;" horiz-adv-x="612" d="M135 866l25 113l391 303l14 72l-57 86l-100 20l-82 -53l-17 -78l-80 17l19 92l84 82l108 26l86 -18l86 -68l43 -108l-22 -105l-400 -309l342 -72l-18 -88z" />
<glyph unicode="&#xb3;" horiz-adv-x="622" d="M100 1022l84 31l45 -129l187 -41l106 131l-63 157l-117 25l-25 -8l-43 69l246 164l-266 56l16 77l346 -71l-22 -103l-166 -112l121 -68l57 -160l-24 -112l-80 -88l-164 -37l-90 18l-117 111z" />
<glyph unicode="&#xb4;" horiz-adv-x="886" d="M111 1294l690 97l12 -95l-688 -98z" />
<glyph unicode="&#xb5;" horiz-adv-x="1173" d="M29 -373l309 1460l94 -20l-145 -682l20 -147l82 -101l152 -33l157 35l183 90l151 711l92 -20l-206 -979l-95 20l31 145l-115 -57l-194 -43l-201 43l-104 117l-119 -559z" />
<glyph unicode="&#xb6;" horiz-adv-x="1239" d="M199 956l63 297l123 154l115 76l252 26l436 -92l-318 -1491l-90 19l107 506l-172 36l-107 -505l-90 20l107 504l-82 18l-219 129l-74 113z" />
<glyph unicode="&#xb7;" horiz-adv-x="557" d="M78 559l244 160l157 -246l-243 -158z" />
<glyph unicode="&#xb8;" horiz-adv-x="538" d="M57 -375l74 41l51 -78l154 -32l45 211l-154 32l60 279l80 -19l-41 -198l80 -19l59 -112l-35 -164l-121 -90l-182 39z" />
<glyph unicode="&#xb9;" horiz-adv-x="495" d="M158 1337l22 111l53 -12l154 73l111 -22l-148 -694l-88 20l131 610l-184 -96z" />
<glyph unicode="&#xba;" horiz-adv-x="684" d="M111 889l18 84l391 -82l-18 -84zM178 1264l31 143l92 98l88 23l103 -23l73 -53l45 -125l-32 -153l-80 -97l-99 -18l-102 22l-74 58zM260 1270l55 -111l99 -20l98 78l20 100l-57 110l-106 23l-88 -82z" />
<glyph unicode="&#xbb;" horiz-adv-x="1275" d="M-2 172l539 363l-344 550l79 52l398 -631l-619 -414zM481 70l539 362l-344 551l80 51l395 -631l-616 -413z" />
<glyph unicode="&#xbc;" horiz-adv-x="1611" d="M27 207l1566 1196l52 -68l-1565 -1198zM311 1430l25 110l53 -12l152 76l112 -25l-147 -692l-88 18l131 611l-184 -97zM836 203l18 86l377 332l98 -21l-84 -399l135 -29l-16 -82l-137 29l-45 -211l-86 18l45 211zM948 264l215 -45l62 293z" />
<glyph unicode="&#xbd;" horiz-adv-x="1611" d="M35 207l1567 1196l51 -68l-1565 -1198zM344 1425l25 109l53 -10l151 73l113 -22l-147 -694l-88 18l129 612l-183 -98zM885 -29l24 113l391 303l15 72l-58 84l-98 22l-84 -53l-16 -78l-80 17l20 92l82 82l111 24l84 -16l86 -68l43 -108l-23 -105l-399 -309l342 -72 l-18 -88z" />
<glyph unicode="&#xbe;" horiz-adv-x="1697" d="M88 203l1567 1196l51 -68l-1567 -1198zM240 1106l84 31l47 -129l186 -39l107 129l-66 157l-115 27l-26 -10l-43 69l245 164l-266 58l17 77l348 -73l-23 -103l-166 -110l119 -68l60 -162l-25 -112l-82 -86l-162 -39l-90 18l-117 111zM881 203l18 86l377 332l98 -21 l-84 -399l135 -29l-16 -82l-137 29l-45 -213l-86 18l45 213zM993 264l215 -45l62 291z" />
<glyph unicode="&#xbf;" horiz-adv-x="1122" d="M53 291l37 170l113 145l86 53l284 78l45 213l95 -20l-58 -275l-325 -86l-76 -57l-72 -100l-24 -113l22 -115l51 -88l123 -100l224 -47l143 39l82 53l80 98l12 64l90 -19l-18 -88l-113 -141l-96 -61l-172 -44l-289 62l-135 108l-64 93zM573 1296l193 129l127 -196 l-195 -131z" />
<glyph unicode="&#xc0;" horiz-adv-x="1333" d="M-10 219l850 1378l110 -24l215 -1602l-104 21l-66 590l-600 127l-299 -512zM446 793l533 -113l-102 817zM651 2003l47 80l619 -387l-49 -80z" />
<glyph unicode="&#xc1;" d="M-8 217l850 1378l110 -24l215 -1602l-104 21l-66 590l-600 127l-299 -512zM449 791l532 -113l-102 817zM584 1851l725 101l10 -92l-721 -105z" />
<glyph unicode="&#xc2;" d="M-8 217l850 1378l110 -24l213 -1602l-102 21l-66 590l-600 127l-299 -512zM449 791l532 -113l-104 817zM557 1864l428 159l324 -327l-66 -60l-278 279l-367 -141z" />
<glyph unicode="&#xc3;" d="M-4 215l848 1378l110 -24l215 -1602l-104 21l-66 590l-598 127l-301 -512zM453 788l530 -112l-102 817zM553 1876l268 176l115 -24l176 -271l238 158l49 -76l-254 -168l-103 23l-176 274l-262 -170z" />
<glyph unicode="&#xc4;" d="M-6 215l848 1376l110 -22l215 -1604l-104 23l-66 590l-598 127l-301 -512zM451 786l530 -112l-102 817zM586 1966l192 133l125 -201l-192 -129zM1022 1874l192 133l125 -201l-192 -129z" />
<glyph unicode="&#xc5;" d="M-4 217l842 1368l-11 4l-75 60l-50 120l29 144l96 94l93 25l137 -29l73 -59l50 -127l-31 -140l-96 -94l-90 -24l-7 2l213 -1592l-104 21l-66 590l-598 127l-301 -512zM453 791l530 -113l-102 817zM793 1776l63 -111l113 -23l104 74l21 99l-68 112l-119 25l-94 -82z" />
<glyph unicode="&#xc6;" horiz-adv-x="1927" d="M-63 264l837 1381l90 -21l133 -1255l250 1175l799 -170l-18 -86l-703 150l-121 -574l459 -98l-21 -96l-458 98l-137 -647l700 -150l-18 -88l-797 170l2 13l-57 575l-537 113l-297 -512zM395 838l467 -101l-71 764z" />
<glyph unicode="&#xc7;" horiz-adv-x="1353" d="M115 762l65 307l121 207l109 137l184 119l184 47l238 -49l143 -119l117 -176l45 -166l-100 -27l-39 150l-97 156l-112 90l-197 41l-135 -35l-162 -103l-98 -129l-105 -180l-57 -276l21 -203l41 -168l102 -152l113 -81l192 -41l141 30l152 101l94 120l82 -61l-102 -133 l-185 -121l-180 -39l-78 17l-26 -117l80 -19l61 -112l-35 -164l-121 -90l-182 39l-70 110l74 41l49 -78l156 -32l43 211l-152 32l41 197l-75 16l-152 109l-115 178l-47 174z" />
<glyph unicode="&#xc8;" horiz-adv-x="1173" d="M72 129l315 1491l881 -186l-19 -86l-784 165l-121 -573l449 -94l-21 -96l-448 94l-138 -647l783 -166l-19 -88zM616 1937l50 80l618 -387l-51 -82z" />
<glyph unicode="&#xc9;" horiz-adv-x="1171" d="M72 131l315 1491l881 -186l-19 -86l-784 166l-121 -574l449 -94l-21 -96l-448 94l-138 -647l783 -166l-19 -88zM549 1788l723 102l12 -92l-721 -104z" />
<glyph unicode="&#xca;" horiz-adv-x="1169" d="M76 131l315 1491l881 -186l-19 -86l-784 166l-121 -574l449 -94l-21 -96l-448 94l-138 -647l783 -166l-19 -88zM526 1800l428 160l324 -326l-68 -61l-276 278l-369 -141z" />
<glyph unicode="&#xcb;" horiz-adv-x="1171" d="M68 131l317 1491l879 -186l-19 -86l-782 166l-123 -574l448 -94l-20 -96l-449 94l-137 -647l783 -166l-19 -88zM545 1909l194 133l125 -201l-192 -129zM983 1815l193 133l124 -201l-192 -127z" />
<glyph unicode="&#xcc;" horiz-adv-x="516" d="M100 39l318 1491l96 -21l-317 -1491zM223 1937l49 80l619 -387l-51 -82z" />
<glyph unicode="&#xcd;" horiz-adv-x="516" d="M102 37l316 1489l96 -21l-317 -1489zM156 1784l725 100l10 -92l-721 -104z" />
<glyph unicode="&#xce;" horiz-adv-x="516" d="M106 37l318 1491l96 -21l-317 -1491zM135 1796l428 160l324 -326l-66 -61l-278 278l-367 -141z" />
<glyph unicode="&#xcf;" horiz-adv-x="516" d="M104 39l316 1491l96 -21l-315 -1491zM160 1905l192 133l125 -201l-192 -129zM596 1812l195 134l124 -201l-194 -129z" />
<glyph unicode="&#xd0;" horiz-adv-x="1345" d="M39 868l20 97l174 -37l142 665l489 -104l215 -125l125 -193l41 -167l29 -236l-60 -274l-124 -211l-105 -129l-194 -127l-240 -29l-494 104l156 727zM174 178l379 -80l209 23l153 108l91 111l118 197l50 231l-25 217l-41 150l-96 149l-187 113l-374 80l-121 -570l403 -84 l-22 -98l-402 86z" />
<glyph unicode="&#xd1;" horiz-adv-x="1413" d="M72 143l315 1491l113 -24l538 -1501l281 1327l96 -21l-317 -1491l-107 23l-540 1511l-283 -1335zM596 1810l266 177l117 -25l176 -270l238 157l49 -75l-256 -168l-103 22l-176 275l-262 -172z" />
<glyph unicode="&#xd2;" horiz-adv-x="1433" d="M100 752l64 305l123 207l108 137l185 119l178 47l237 -49l150 -117l119 -187l43 -167l28 -238l-65 -309l-125 -207l-113 -139l-178 -119l-184 -37l-232 49l-153 109l-115 178l-47 176zM201 743l22 -208l35 -156l107 -158l112 -82l193 -41l139 29l160 100l88 121l117 193 l57 270l-29 225l-31 142l-104 159l-113 88l-196 41l-135 -36l-160 -101l-88 -119l-117 -194zM635 1942l49 79l619 -387l-52 -82z" />
<glyph unicode="&#xd3;" horiz-adv-x="1435" d="M102 750l64 305l123 207l108 137l185 119l178 47l237 -49l150 -117l119 -187l43 -168l28 -237l-65 -309l-125 -207l-113 -139l-178 -119l-184 -37l-232 49l-153 109l-115 178l-47 176zM203 741l22 -209l35 -155l107 -158l112 -82l193 -41l139 29l160 100l88 121l117 193 l57 270l-29 225l-30 142l-105 159l-113 88l-196 41l-135 -37l-160 -100l-88 -119l-117 -194zM569 1788l723 102l13 -92l-721 -104z" />
<glyph unicode="&#xd4;" horiz-adv-x="1433" d="M98 750l66 305l123 207l106 137l187 119l178 47l237 -49l148 -117l121 -187l43 -168l26 -237l-65 -309l-123 -207l-113 -139l-178 -119l-184 -37l-232 49l-153 111l-115 176l-47 176zM201 741l22 -209l35 -155l107 -158l112 -82l193 -41l139 29l160 100l88 121l117 193 l55 270l-27 225l-31 142l-104 159l-113 88l-196 41l-135 -37l-160 -100l-88 -119l-117 -194zM541 1800l428 160l323 -326l-67 -61l-279 278l-366 -141z" />
<glyph unicode="&#xd5;" horiz-adv-x="1433" d="M104 750l64 305l123 207l108 137l185 119l180 47l235 -49l150 -117l119 -187l45 -168l26 -237l-65 -309l-125 -207l-113 -139l-178 -119l-184 -37l-232 49l-153 109l-115 178l-47 176zM205 741l22 -209l35 -155l107 -158l114 -82l191 -41l139 29l160 100l88 121l117 193 l57 270l-29 225l-30 142l-105 159l-113 88l-196 41l-135 -37l-160 -100l-88 -119l-117 -194zM539 1817l266 176l117 -25l176 -270l237 155l49 -73l-256 -168l-102 20l-176 275l-262 -170z" />
<glyph unicode="&#xd6;" horiz-adv-x="1433" d="M100 756l64 307l123 205l108 137l185 119l180 49l235 -51l150 -117l119 -184l45 -170l26 -238l-65 -309l-125 -207l-113 -139l-178 -117l-184 -39l-232 49l-153 111l-115 176l-47 176zM201 750l22 -211l35 -156l107 -158l114 -82l191 -41l139 29l160 100l88 121l117 195 l57 268l-29 225l-31 144l-104 157l-113 89l-196 43l-135 -39l-160 -101l-88 -119l-117 -192zM567 1915l195 131l125 -199l-193 -129zM1006 1821l192 133l125 -201l-193 -127z" />
<glyph unicode="&#xd7;" horiz-adv-x="1296" d="M53 352l500 324l-313 493l77 52l314 -492l491 320l49 -78l-491 -322l319 -499l-77 -50l-318 498l-502 -324z" />
<glyph unicode="&#xd8;" horiz-adv-x="1435" d="M96 750l66 307l121 207l108 135l184 121l181 47l235 -51l119 -95l57 86l78 -51l-74 -108l91 -134l43 -167l26 -240l-65 -307l-123 -209l-115 -139l-178 -117l-182 -39l-234 49l-88 64l-63 -95l-80 49l71 105l-108 166l-45 174zM197 743l22 -211l37 -155l80 -119l721 1083 l-105 84l-196 41l-138 -39l-157 -100l-88 -119l-117 -192zM401 190l74 -53l193 -41l137 31l160 98l88 123l116 193l58 268l-27 225l-31 144l-55 82z" />
<glyph unicode="&#xd9;" horiz-adv-x="1382" d="M123 551l221 1044l98 -22l-219 -1028l15 -203l94 -149l174 -103l115 -24l186 20l147 98l105 189l217 1024l98 -21l-223 -1044l-113 -215l-198 -121l-224 -29l-153 31l-195 111l-129 200zM635 1898l49 80l619 -387l-52 -80z" />
<glyph unicode="&#xda;" horiz-adv-x="1382" d="M121 551l221 1044l98 -22l-219 -1028l15 -203l94 -149l174 -103l114 -24l187 20l147 98l105 189l217 1024l98 -21l-223 -1044l-113 -215l-198 -121l-224 -29l-153 31l-195 111l-129 200zM565 1749l723 100l12 -92l-722 -104z" />
<glyph unicode="&#xdb;" horiz-adv-x="1382" d="M123 553l223 1044l98 -22l-219 -1028l15 -203l94 -149l174 -103l115 -24l186 20l147 98l103 189l219 1024l98 -21l-223 -1044l-113 -215l-198 -121l-226 -29l-151 31l-195 111l-129 200zM543 1761l428 162l323 -328l-67 -59l-279 279l-366 -144z" />
<glyph unicode="&#xdc;" horiz-adv-x="1382" d="M121 549l221 1044l98 -20l-219 -1030l15 -203l96 -150l172 -102l114 -25l187 21l147 98l105 189l217 1024l98 -21l-223 -1044l-113 -215l-198 -121l-224 -29l-153 33l-195 111l-129 198zM565 1866l195 133l125 -201l-193 -129zM1001 1774l195 131l125 -199l-193 -129z " />
<glyph unicode="&#xdd;" horiz-adv-x="1030" d="M23 1591l122 -26l355 -738l618 531l127 -27l-719 -610l-161 -760l-95 21l162 759zM326 1726l723 103l12 -92l-721 -105z" />
<glyph unicode="&#xde;" horiz-adv-x="1267" d="M23 53l317 1493l96 -20l-63 -299l508 -109l221 -125l63 -102l45 -182l-47 -220l-112 -145l-105 -65l-246 -31l-512 110l-69 -325zM207 451l495 -107l209 27l70 47l92 112l37 181l-37 141l-43 61l-186 117l-492 105z" />
<glyph unicode="&#xdf;" horiz-adv-x="1224" d="M66 106l249 1172l129 217l179 51l227 -49l221 -125l66 -102l45 -185l-27 -122l-102 -158l-123 -64l53 -90l64 -200l-43 -201l-113 -150l-107 -63l-245 -31l-123 27l20 96l105 -23l211 23l67 43l92 115l29 143l-61 227l-78 62l-164 35l20 96l158 -33l133 29l109 131 l24 113l-37 141l-40 61l-191 115l-190 41l-115 -33l-102 -178l-246 -1151z" />
<glyph unicode="&#xe0;" horiz-adv-x="1193" d="M61 594l21 90l121 207l186 121l180 43l197 -41l143 -111l66 -98l31 145l94 -20l-156 -737l107 -234l-88 -43l-82 190l-324 -98l-199 43l-153 115l-117 184zM164 590l24 -215l95 -142l114 -92l164 -35l285 93l102 479l-104 147l-111 99l-164 34l-137 -43l-147 -90 l-111 -184zM467 1442l47 80l592 -369l-51 -82z" />
<glyph unicode="&#xe1;" horiz-adv-x="1208" d="M68 596l20 90l121 207l186 121l180 43l197 -41l143 -111l66 -98l31 145l94 -20l-156 -737l107 -234l-88 -43l-82 191l-324 -99l-198 43l-154 115l-117 184zM170 592l25 -215l94 -141l114 -93l164 -34l285 92l102 479l-104 147l-111 99l-164 35l-137 -43l-147 -91 l-111 -184zM399 1307l691 96l12 -94l-690 -99z" />
<glyph unicode="&#xe2;" horiz-adv-x="1214" d="M66 598l18 90l123 207l186 121l180 43l197 -41l141 -111l68 -98l31 145l94 -20l-156 -737l107 -234l-88 -43l-84 191l-322 -99l-199 43l-153 115l-117 184zM168 594l25 -215l94 -141l114 -93l164 -34l285 92l102 479l-104 147l-111 99l-166 35l-135 -41l-147 -93 l-111 -184zM389 1323l397 150l306 -306l-68 -61l-258 258l-338 -131z" />
<glyph unicode="&#xe3;" horiz-adv-x="1198" d="M70 594l20 90l121 207l186 121l183 43l194 -41l144 -111l67 -98l29 145l94 -20l-156 -737l109 -234l-90 -43l-82 190l-324 -98l-198 43l-152 115l-119 184zM172 590l27 -215l92 -142l115 -92l163 -35l287 93l100 477l-104 149l-111 99l-163 34l-138 -43l-147 -90 l-111 -184zM385 1341l246 154l110 -22l170 -252l217 137l50 -74l-236 -149l-92 20l-174 256l-242 -149z" />
<glyph unicode="&#xe4;" horiz-adv-x="1196" d="M70 594l20 90l121 207l186 121l181 43l196 -41l144 -111l65 -98l31 145l94 -20l-156 -737l107 -234l-88 -43l-82 193l-324 -101l-198 43l-154 117l-117 184zM172 590l25 -215l94 -142l115 -92l163 -35l285 93l102 479l-104 147l-111 99l-163 34l-138 -40l-147 -91 l-111 -186zM387 1395l193 133l125 -201l-193 -129zM823 1303l195 133l125 -201l-193 -129z" />
<glyph unicode="&#xe5;" horiz-adv-x="1169" d="M68 594l20 90l121 207l186 121l180 43l39 -8l-61 49l-49 121l31 141l94 96l92 25l137 -31l74 -59l49 -125l-31 -140l-94 -96l-80 -20l139 -105l66 -98l31 145l94 -20l-156 -737l107 -234l-88 -43l-82 190l-324 -98l-198 43l-154 115l-117 184zM170 590l25 -215l94 -142 l114 -92l164 -35l285 93l102 479l-104 147l-111 99l-164 34l-137 -43l-147 -90l-111 -184zM596 1223l61 -111l113 -22l107 73l20 99l-68 112l-118 25l-97 -82z" />
<glyph unicode="&#xe6;" horiz-adv-x="1458" d="M43 473l10 49l90 137l119 72l115 31l149 -33l107 -111l51 232l-160 147l-73 17l-95 -25l-32 -41l-88 64l43 63l194 49l55 -12l109 -78l137 -145l98 63l158 54l152 -33l123 -121l75 -152l2 -186l-28 -129l-641 137l-25 -100l21 -109l51 -129l106 -94l129 -29l123 48 l117 84l47 -76l-137 -97l-156 -55l-160 35l-147 115l-47 94l-207 -125l-180 39l-101 72l-81 116zM147 471l21 -127l111 -129l129 -29l131 70l55 111l-2 157l-88 111l-133 29l-150 -74zM739 608l553 -116l6 159l-63 142l-92 92l-117 24l-111 -49l-112 -84l-49 -98z" />
<glyph unicode="&#xe7;" horiz-adv-x="1069" d="M70 578l18 90l121 206l182 119l184 47l230 -49l145 -114l90 -144l-84 -57l-82 131l-110 96l-193 41l-137 -43l-141 -90l-111 -186l-10 -50l25 -215l94 -141l110 -92l191 -41l139 47l133 86l49 -86l-141 -96l-186 -47l-166 35l-25 -119l80 -17l60 -112l-35 -166l-119 -90 l-182 39l-72 112l74 41l51 -78l154 -32l45 209l-152 32l43 209l-129 97l-119 186z" />
<glyph unicode="&#xe8;" horiz-adv-x="1087" d="M61 569l19 90l117 209l178 119l178 47l215 -45l154 -127l79 -153l3 -187l-27 -129l-819 174l24 -215l92 -137l117 -96l191 -41l135 43l139 88l49 -84l-143 -96l-187 -47l-223 47l-155 116l-115 185zM188 653l727 -153l5 159l-72 136l-119 106l-178 37l-133 -45l-139 -88z M455 1419l49 80l592 -369l-52 -81z" />
<glyph unicode="&#xe9;" horiz-adv-x="1087" d="M68 573l18 91l117 208l178 119l178 47l215 -45l154 -127l80 -153l2 -187l-27 -129l-819 174l24 -215l93 -137l116 -96l191 -41l135 43l139 88l49 -84l-143 -96l-186 -47l-224 47l-155 117l-115 184zM195 657l727 -153l4 160l-72 135l-119 106l-178 37l-133 -45l-139 -88z M389 1286l690 96l13 -92l-691 -98z" />
<glyph unicode="&#xea;" horiz-adv-x="1085" d="M61 567l19 90l115 209l178 119l180 47l215 -45l154 -127l79 -153l3 -187l-27 -129l-819 174l24 -213l92 -139l115 -96l191 -41l137 43l139 88l49 -84l-145 -96l-187 -47l-221 47l-155 116l-117 185zM188 651l727 -153l5 159l-72 136l-121 106l-178 37l-133 -43l-137 -90z M375 1294l397 150l305 -305l-67 -62l-258 258l-338 -131z" />
<glyph unicode="&#xeb;" horiz-adv-x="1085" d="M63 571l19 91l117 208l178 119l178 47l215 -45l154 -127l80 -153l2 -187l-27 -129l-819 174l24 -213l92 -139l117 -96l191 -41l135 43l139 88l49 -84l-143 -96l-186 -47l-224 47l-155 116l-115 185zM190 655l728 -153l4 160l-72 135l-119 106l-178 39l-133 -45l-139 -90z M371 1376l192 131l125 -198l-192 -129zM807 1282l194 133l125 -201l-192 -129z" />
<glyph unicode="&#xec;" horiz-adv-x="485" d="M86 29l209 981l94 -21l-209 -981zM117 1423l47 80l592 -368l-51 -82z" />
<glyph unicode="&#xed;" horiz-adv-x="485" d="M43 1294l690 97l10 -95l-688 -98zM84 37l209 979l94 -21l-209 -979z" />
<glyph unicode="&#xee;" horiz-adv-x="485" d="M37 1309l397 149l303 -305l-65 -61l-258 258l-338 -131zM86 37l209 981l94 -21l-209 -979z" />
<glyph unicode="&#xef;" horiz-adv-x="485" d="M27 1382l192 134l125 -201l-192 -129zM84 35l207 979l94 -19l-207 -981zM463 1290l194 133l125 -200l-194 -129z" />
<glyph unicode="&#xf0;" horiz-adv-x="1202" d="M45 563l10 53l125 211l189 119l241 31l88 -19l156 -102l117 -160l35 -135l38 201l-6 352l-61 150l-201 -144l-57 82l194 141l-139 84l-121 25l-174 -25l-8 99l186 24l158 -32l189 -111l110 80l57 -80l-114 -84l82 -197l-6 -378l-72 -340l-133 -267l-199 -127l-233 -18 l-90 18l-213 117l-119 191zM139 569l31 -217l96 -149l176 -99l58 -12l200 19l150 98l104 207l-51 223l-96 141l-141 84l-56 13l-209 -25l-151 -96z" />
<glyph unicode="&#xf1;" horiz-adv-x="1175" d="M98 111l207 979l92 -19l-30 -147l116 57l195 43l201 -43l129 -145l26 -185l-149 -708l-94 20l145 684l-21 146l-81 102l-152 31l-158 -35l-184 -88l-150 -713zM399 1327l248 156l109 -25l172 -252l217 140l49 -76l-236 -150l-94 21l-172 256l-241 -150z" />
<glyph unicode="&#xf2;" horiz-adv-x="1173" d="M80 575l18 87l125 204l185 123l180 49l203 -43l143 -116l123 -191l28 -235l-18 -88l-123 -207l-190 -123l-181 -49l-200 41l-144 118l-118 189zM186 571l23 -209l96 -147l109 -98l166 -35l135 47l143 90l113 189l10 43l-25 213l-96 143l-108 94l-170 37l-133 -41 l-146 -96l-108 -183zM463 1425l49 80l592 -368l-51 -82z" />
<glyph unicode="&#xf3;" horiz-adv-x="1177" d="M80 578l18 86l125 204l185 123l180 49l203 -43l143 -116l123 -191l28 -235l-18 -88l-123 -207l-190 -123l-181 -49l-200 41l-144 118l-118 189zM186 573l23 -208l96 -148l109 -98l166 -35l135 47l143 90l113 189l10 43l-25 213l-96 143l-108 94l-170 37l-133 -41 l-146 -96l-108 -182zM389 1290l692 96l11 -92l-689 -98z" />
<glyph unicode="&#xf4;" horiz-adv-x="1181" d="M82 575l18 87l125 204l185 123l180 49l203 -43l141 -116l123 -191l30 -235l-18 -88l-125 -207l-188 -123l-181 -49l-200 41l-144 118l-120 189zM186 571l25 -209l94 -147l111 -98l166 -35l135 47l143 90l113 189l10 43l-25 213l-98 143l-106 94l-170 37l-133 -41 l-146 -96l-108 -183zM385 1303l397 149l303 -305l-67 -62l-256 258l-338 -131z" />
<glyph unicode="&#xf5;" horiz-adv-x="1185" d="M80 575l18 87l125 204l185 123l180 49l203 -43l143 -116l123 -191l28 -235l-18 -88l-123 -207l-190 -123l-181 -49l-200 41l-144 118l-118 189zM186 571l25 -209l94 -147l109 -98l166 -35l135 47l143 90l113 189l10 43l-25 213l-96 143l-108 94l-170 37l-133 -41 l-146 -96l-108 -183zM373 1325l248 156l108 -25l172 -252l217 139l49 -75l-235 -150l-94 21l-174 256l-240 -150z" />
<glyph unicode="&#xf6;" horiz-adv-x="1183" d="M82 573l18 86l125 205l185 123l180 49l203 -43l143 -116l123 -191l28 -235l-18 -89l-123 -206l-190 -123l-181 -49l-200 41l-144 118l-118 189zM188 569l23 -209l96 -147l109 -98l166 -35l135 47l143 90l113 189l10 43l-25 213l-96 143l-108 94l-170 37l-133 -41 l-146 -96l-108 -183zM379 1378l192 131l125 -198l-192 -129zM815 1284l193 133l125 -200l-193 -130z" />
<glyph unicode="&#xf7;" horiz-adv-x="1261" d="M76 707l20 100l998 -211l-21 -100zM342 291l180 115l117 -179l-180 -116zM508 1067l180 117l117 -180l-180 -115z" />
<glyph unicode="&#xf8;" horiz-adv-x="1167" d="M82 575l18 87l125 202l185 125l180 49l203 -43l32 -28l60 90l82 -53l-68 -99l37 -28l123 -189l28 -237l-18 -89l-123 -204l-190 -123l-181 -51l-200 43l-45 34l-58 -88l-84 56l66 96l-23 20l-118 189zM188 571l23 -211l96 -145l4 -6l459 678l-16 14l-170 37l-133 -41 l-146 -98l-108 -183zM385 141l31 -24l166 -35l135 45l143 92l113 187l10 45l-25 213l-96 143l-18 14z" />
<glyph unicode="&#xf9;" horiz-adv-x="1165" d="M121 389l151 707l95 -21l-146 -682l21 -147l82 -101l151 -32l156 34l182 91l152 710l94 -20l-209 -979l-94 20l32 146l-116 -58l-195 -43l-201 43l-126 146zM444 1436l50 80l589 -369l-49 -82z" />
<glyph unicode="&#xfa;" horiz-adv-x="1165" d="M125 387l151 707l95 -21l-146 -682l21 -147l82 -101l151 -32l156 34l182 91l152 710l94 -20l-209 -979l-94 20l33 146l-117 -58l-195 -43l-200 43l-127 146zM375 1296l690 97l12 -93l-688 -98z" />
<glyph unicode="&#xfb;" horiz-adv-x="1165" d="M129 385l150 707l94 -21l-146 -682l23 -147l80 -101l153 -32l156 34l182 90l152 711l94 -20l-209 -979l-94 20l31 146l-115 -58l-195 -43l-200 43l-129 146zM371 1309l399 149l303 -305l-67 -61l-256 258l-338 -131z" />
<glyph unicode="&#xfc;" horiz-adv-x="1165" d="M129 383l152 707l94 -21l-146 -682l21 -147l82 -101l151 -33l156 35l182 90l152 711l94 -20l-209 -979l-94 20l33 146l-115 -58l-197 -41l-200 41l-127 146zM365 1382l194 134l125 -201l-192 -127zM803 1290l192 133l125 -200l-192 -129z" />
<glyph unicode="&#xfd;" horiz-adv-x="1017" d="M-190 -399l20 98l61 -12l138 34l164 111l120 168l-215 1085l109 -22l184 -957l563 797l105 -22l-653 -928l-152 -203l-182 -119l-181 -47zM238 1217l690 96l12 -92l-690 -99z" />
<glyph unicode="&#xfe;" horiz-adv-x="1206" d="M-18 -371l417 1970l93 -18l-140 -659l109 65l170 43l196 -43l148 -113l121 -186l26 -237l-18 -91l-123 -210l-182 -121l-187 -43l-198 41l-125 86l-86 104l-129 -608zM223 317l107 -122l119 -78l165 -35l142 39l147 90l111 186l10 52l-25 215l-102 141l-109 94l-163 35 l-142 -45l-157 -88z" />
<glyph unicode="&#xff;" horiz-adv-x="1017" d="M-190 -397l20 98l61 -12l138 37l164 108l120 168l-215 1085l109 -22l184 -956l563 796l105 -22l-653 -928l-152 -203l-182 -119l-181 -47zM223 1311l193 133l125 -201l-193 -129zM659 1217l195 133l125 -201l-193 -127z" />
<glyph unicode="&#x152;" horiz-adv-x="1798" d="M35 815l65 307l123 205l109 137l184 119l178 49l158 -35l147 -116l121 -185l27 -106l67 313l768 -164l-16 -86l-674 144l-123 -574l340 -71l-20 -97l-340 72l-137 -647l674 -143l-19 -89l-770 164l68 314l-76 -93l-178 -116l-185 -39l-151 33l-154 110l-115 176l-47 176z M137 809l23 -211l35 -156l106 -157l113 -82l112 -25l140 31l157 98l90 123l115 193l55 268l-24 225l-31 144l-104 157l-113 90l-117 25l-135 -39l-160 -100l-88 -119l-116 -193z" />
<glyph unicode="&#x153;" horiz-adv-x="1572" d="M61 635l19 86l100 209l156 131l160 53l125 -27l122 -112l86 -195l154 142l158 51l153 -33l123 -119l74 -153l2 -187l-27 -127l-641 135l-26 -98l22 -110l49 -129l107 -95l129 -26l123 47l117 84l49 -78l-140 -96l-155 -56l-160 35l-147 115l-70 190l-158 -141l-162 -55 l-122 26l-123 115l-90 182zM166 426l67 -139l86 -94l91 -19l116 51l115 97l86 192l10 45l2 207l-69 137l-88 90l-95 21l-108 -45l-117 -105l-84 -186l-10 -47zM850 578l555 -119l4 159l-61 142l-95 92l-116 27l-111 -52l-111 -96l-51 -84z" />
<glyph unicode="&#x178;" horiz-adv-x="1032" d="M23 1593l122 -26l355 -738l620 531l125 -27l-717 -610l-161 -760l-97 21l162 759zM328 1849l192 133l125 -200l-192 -129zM764 1755l192 133l125 -200l-192 -127z" />
<glyph unicode="&#x2c6;" horiz-adv-x="942" d="M102 1309l400 149l303 -305l-68 -59l-258 256l-336 -131z" />
<glyph unicode="&#x2dc;" horiz-adv-x="1040" d="M143 1337l248 154l109 -23l172 -251l217 137l49 -76l-236 -148l-94 19l-174 258l-239 -150z" />
<glyph unicode="&#x2000;" horiz-adv-x="1049" />
<glyph unicode="&#x2001;" horiz-adv-x="2099" />
<glyph unicode="&#x2002;" horiz-adv-x="1049" />
<glyph unicode="&#x2003;" horiz-adv-x="2099" />
<glyph unicode="&#x2004;" horiz-adv-x="699" />
<glyph unicode="&#x2005;" horiz-adv-x="524" />
<glyph unicode="&#x2006;" horiz-adv-x="349" />
<glyph unicode="&#x2007;" horiz-adv-x="349" />
<glyph unicode="&#x2008;" horiz-adv-x="262" />
<glyph unicode="&#x2009;" horiz-adv-x="419" />
<glyph unicode="&#x200a;" horiz-adv-x="116" />
<glyph unicode="&#x2010;" horiz-adv-x="942" d="M78 451l20 92l727 -154l-20 -92z" />
<glyph unicode="&#x2011;" horiz-adv-x="942" d="M78 451l20 92l727 -154l-20 -92z" />
<glyph unicode="&#x2012;" horiz-adv-x="942" d="M78 451l20 92l727 -154l-20 -92z" />
<glyph unicode="&#x2013;" horiz-adv-x="1196" d="M74 573l18 93l983 -211l-18 -93z" />
<glyph unicode="&#x2014;" horiz-adv-x="2093" d="M186 643l21 92l1671 -354l-20 -92z" />
<glyph unicode="&#x2018;" horiz-adv-x="514" d="M59 1141l25 108l88 97l207 147l49 -70l-195 -139l125 -184l-192 -133z" />
<glyph unicode="&#x2019;" horiz-adv-x="448" d="M96 1036l195 140l-125 184l192 133l107 -174l-25 -109l-88 -96l-207 -147z" />
<glyph unicode="&#x201a;" horiz-adv-x="514" d="M74 -150l194 140l-125 184l193 133l106 -174l-24 -108l-88 -97l-207 -147z" />
<glyph unicode="&#x201c;" horiz-adv-x="1015" d="M154 1190l24 110l88 97l207 145l49 -67l-194 -142l125 -184l-193 -133zM524 1110l25 111l88 96l207 147l49 -69l-195 -142l125 -182l-192 -133z" />
<glyph unicode="&#x201d;" horiz-adv-x="958" d="M141 1077l195 142l-125 182l192 133l107 -172l-25 -111l-88 -96l-207 -147zM512 997l195 142l-125 184l192 133l107 -174l-25 -111l-88 -96l-207 -145z" />
<glyph unicode="&#x201e;" horiz-adv-x="1015" d="M123 -121l194 141l-124 183l192 133l107 -172l-25 -111l-88 -96l-207 -147zM494 -201l194 142l-125 184l193 133l106 -174l-24 -111l-88 -96l-207 -145z" />
<glyph unicode="&#x2022;" horiz-adv-x="847" d="M78 481l43 209l141 135l137 35l189 -39l110 -90l72 -180l-43 -209l-141 -135l-137 -35l-189 39l-110 90z" />
<glyph unicode="&#x2026;" horiz-adv-x="1503" d="M160 143l192 133l125 -200l-192 -129zM565 57l191 133l125 -200l-193 -127zM965 -27l194 133l125 -200l-192 -129z" />
<glyph unicode="&#x202f;" horiz-adv-x="419" />
<glyph unicode="&#x2039;" horiz-adv-x="790" d="M119 580l618 413l51 -80l-536 -362l342 -551l-80 -51z" />
<glyph unicode="&#x203a;" horiz-adv-x="790" d="M-4 117l536 362l-342 551l80 51l396 -630l-619 -414z" />
<glyph unicode="&#x205f;" horiz-adv-x="524" />
<glyph unicode="&#x20ac;" horiz-adv-x="1552" d="M66 725l18 88l168 -35l41 189l-168 34l18 89l174 -37l105 190l108 135l185 121l184 47l307 -65l144 -119l118 -176l39 -148l-98 -26l-37 131l-96 157l-113 89l-266 57l-135 -37l-162 -102l-98 -129l-86 -146l645 -137l-19 -88l-657 139l-41 -188l657 -140l-18 -88 l-639 138l16 -150l41 -168l103 -151l112 -82l263 -56l141 31l151 103l82 102l84 -61l-92 -117l-184 -119l-180 -41l-306 66l-151 110l-115 176l-47 176l-18 201z" />
<glyph unicode="&#x2122;" horiz-adv-x="1339" d="M211 1540l16 78l424 -90l-16 -78l-170 37l-121 -572l-84 19l121 571zM621 856l137 649l110 -22l78 -543l287 465l110 -23l-139 -649l-76 17l111 522l-307 -481l-37 8l-92 555l-109 -512z" />
<glyph unicode="&#x25fc;" horiz-adv-x="1105" d="M0 0v1106h1106v-1106h-1106z" />
</font>
</defs>
</svg>
