<?xml version="1.0" standalone="no"?>
<!DOCTYPE svg PUBLIC "-//W3C//DTD SVG 1.1//EN" "http://www.w3.org/Graphics/SVG/1.1/DTD/svg11.dtd" >
<svg xmlns="http://www.w3.org/2000/svg" xmlns:xlink="http://www.w3.org/1999/xlink" version="1.1">
<metadata></metadata>
<defs>
<font id="btprotated" horiz-adv-x="1003" >
<font-face units-per-em="2048" ascent="1536" descent="-512" />
<missing-glyph horiz-adv-x="538" />
<glyph horiz-adv-x="0" />
<glyph horiz-adv-x="682" />
<glyph unicode=" "  horiz-adv-x="538" />
<glyph unicode="&#x09;" horiz-adv-x="538" />
<glyph unicode="&#xa0;" horiz-adv-x="538" />
<glyph unicode="!" horiz-adv-x="669" d="M41 158l244 159l155 -245l-241 -158zM197 420l221 1042l207 -45l-222 -1042z" />
<glyph unicode="&#x22;" horiz-adv-x="698" d="M29 1096l102 479l207 -43l-102 -481zM360 1024l103 481l207 -45l-103 -479z" />
<glyph unicode="#" horiz-adv-x="1400" d="M25 121l180 403l-152 31l43 199l197 -41l84 184l-238 51l43 201l281 -59l229 505l195 -86l-213 -465l282 -61l230 506l192 -84l-211 -465l166 -37l-43 -201l-209 46l-86 -185l252 -53l-41 -199l-297 64l-200 -445l-195 86l184 404l-280 59l-203 -442zM498 670l290 -64 l84 187l-290 61z" />
<glyph unicode="$" horiz-adv-x="1329" d="M-18 387l176 105l116 -187q14 -7 38.5 -23.5t37.5 -23.5l121 563l-115 82l-61 105l-51 188l37 174l208 143l132 13l36 178l168 -37l-28 -137l106 -23l29 138l170 -35l-35 -170l127 -76l141 -217l-161 -109l-125 172l-27 19l-102 -486l131 -92l59 -106l51 -189l-47 -219 l-211 -143l-147 -19l-43 -198l-170 35l35 170l-105 22l-37 -170l-168 37l39 184l-172 103zM446 1192l29 -102l39 -60l61 289l-16 -2l-102 -74zM512 190l106 -20l101 475l-96 70zM668 922l96 -68l98 459l-106 22zM799 180l35 6l100 72l22 102l-30 105l-29 59l-23 15z" />
<glyph unicode="%" horiz-adv-x="1611" d="M-8 281l1186 901l-193 41l-256 168l16 -119l-34 -164l-129 -176l-140 -53l-100 22l-111 100l-36 218l32 161l129 213l140 33l264 -57l297 -189l311 -65l137 100l117 -155l-1501 -1149zM338 1278l2 -80l209 248l-72 16l-76 -57zM389 1065l74 -16l69 53l66 121l4 102z M846 244l35 164l129 210l139 33l98 -20l115 -84l37 -250l-35 -162l-131 -178l-139 -53l-99 20l-110 103zM989 303l2 -82l209 252l-72 14l-75 -59zM1040 90l74 -16l72 53l65 121l4 100z" />
<glyph unicode="&#x26;" horiz-adv-x="1536" d="M123 479l33 158l120 147l103 68l199 72l-123 206l45 218l131 161l241 56l86 -19l177 -143l53 -203l-33 -151l-119 -150l-174 -104l182 -342l58 59l151 246l166 -107l-155 -262l-123 -119l65 -110l78 -62l160 -35l-45 -208l-199 43l-149 120l-68 123l-125 -84l-184 -47 l-287 60l-147 120l-68 105zM342 481l29 -100l28 -43l82 -70l189 -41l102 29l119 74l-219 405l-199 -73l-49 -33l-70 -86zM676 1147l90 -168l123 80l65 84l13 57l-19 78l-39 37l-86 18l-73 -12l-52 -66z" />
<glyph unicode="'" horiz-adv-x="509" d="M102 1079l164 103l-137 211l244 159l157 -243l-32 -150l-117 -145l-166 -111z" />
<glyph unicode="(" horiz-adv-x="833" d="M125 199l6 370l39 185l145 336l189 237l190 184l209 140l115 -181l-199 -131l-149 -145l-176 -219l-119 -275l-35 -168l-4 -301l72 -272l77 -195l129 -196l-178 -115l-137 207l-96 246z" />
<glyph unicode=")" horiz-adv-x="835" d="M-184 -291l196 127l150 148l176 219l121 276l35 168l4 299l-72 273l-78 192l-129 201l178 117l138 -211l98 -246l74 -293l-2 -369l-39 -184l-148 -338l-186 -238l-191 -186l-211 -133z" />
<glyph unicode="*" horiz-adv-x="1032" d="M92 1032l258 82l-200 178l143 158l180 -180l57 266l211 -45l-57 -264l240 90l67 -203l-258 -82l203 -178l-145 -158l-181 178l-57 -264l-211 45l57 265l-239 -91z" />
<glyph unicode="+" horiz-adv-x="1323" d="M82 688l45 211l410 -86l90 426l211 -45l-90 -426l411 -88l-45 -211l-412 86l-90 -424l-211 45l91 424z" />
<glyph unicode="," horiz-adv-x="604" d="M61 -164l160 109l-143 207l237 167l166 -239l-26 -152l-113 -149l-162 -115z" />
<glyph unicode="-" d="M82 395l45 209l754 -160l-45 -206z" />
<glyph unicode="." horiz-adv-x="587" d="M61 152l238 167l166 -239l-238 -166z" />
<glyph unicode="/" horiz-adv-x="1026" d="M-227 -289l1282 1952l178 -117l-1280 -1945z" />
<glyph unicode="0" horiz-adv-x="1351" d="M98 422l6 369l37 174l146 342l211 206l258 29l164 -35l221 -131l112 -274l-6 -371l-37 -174l-145 -340l-213 -207l-256 -28l-164 34l-223 131zM313 535l623 720l-94 56l-92 18l-154 -16l-129 -123l-119 -279l-33 -153zM379 291l135 -76l90 -20l154 18l127 121l119 278 l32 154l2 287z" />
<glyph unicode="1" horiz-adv-x="802" d="M115 1223l43 209l116 -25l164 51l105 74l207 -45l-316 -1491l-211 45l260 1223l-34 -15l-168 -61z" />
<glyph unicode="2" horiz-adv-x="1228" d="M-68 150l39 178l770 454l148 144l76 96l16 80l-25 102l-30 43l-84 68l-209 45l-101 -29l-45 -28l-67 -84l-21 -95l-206 45l30 144l119 149l104 68l185 49l303 -66l151 -118l68 -105l47 -184l-37 -176l-106 -135l-191 -187l-559 -319l692 -148l-45 -209z" />
<glyph unicode="3" horiz-adv-x="1306" d="M-20 469l210 49l43 -180l29 -41l141 -84l158 -35l166 21l111 69l86 146l14 59l-18 156l-134 139l-124 27l-125 -23l-97 178l420 305l-520 111l45 209l825 -176l-36 -170l-343 -268l70 -15l223 -221l27 -260l-27 -129l-125 -215l-198 -129l-248 -29l-227 47l-213 127 l-76 113z" />
<glyph unicode="4" horiz-adv-x="1263" d="M10 662l21 94l829 749l184 -39l-163 -772l272 -59l-45 -207l-272 57l-107 -510l-209 45l109 510zM371 803l301 -66l90 424z" />
<glyph unicode="5" horiz-adv-x="1345" d="M18 477l209 49l45 -180l27 -41l143 -84l160 -35l162 21l113 69l84 146l14 61l-21 166l-69 113l-144 84l-157 33l-107 -11l-96 -53l-199 78l234 692l790 -168l-45 -209l-600 127l-90 -266l121 27l227 -49l215 -125l129 -199l27 -250l-27 -129l-125 -215l-200 -129 l-246 -29l-230 49l-212 127l-76 111z" />
<glyph unicode="6" horiz-adv-x="1282" d="M80 639l70 322l147 339l211 207l258 29l162 -35l231 -137l64 -242l-205 -47l-43 148l-121 75l-96 21l-156 -16l-127 -125l-100 -228l92 47l188 23l101 -21l215 -127l127 -196l28 -248l-14 -68l-127 -213l-197 -131l-247 -28l-101 20l-213 127l-133 201zM295 580 q0 -39 4.5 -90t5.5 -87l72 -108l143 -84l29 -8l166 20l108 72l88 141l-20 166l-72 111l-143 86l-33 6l-160 -21l-114 -71z" />
<glyph unicode="7" horiz-adv-x="1122" d="M29 23l905 1146l-778 166l45 209l1038 -221l-35 -164l-936 -1188z" />
<glyph unicode="8" horiz-adv-x="1345" d="M29 453l39 180l104 133l221 117l-96 65l-51 203l37 172l151 199l266 32l269 -57l233 -135l58 -248l-37 -172l-117 -145l-152 -27l172 -186l48 -187l-39 -180l-121 -147l-111 -74l-248 -29l-293 64l-212 127l-74 110zM246 457l28 -101l25 -41l143 -84l222 -47l165 19 l39 24l68 84l20 84l-26 101l-74 116l-192 115l-213 -14l-117 -88l-68 -84zM463 1149l22 -80l72 -70l150 -73l176 18l90 23l51 65l18 84l-22 105l-125 73l-207 45l-143 -20l-64 -86z" />
<glyph unicode="9" horiz-adv-x="1280" d="M57 401l209 45l41 -145l123 -78l92 -18l156 18l129 123l96 225l-88 -45l-190 -22l-99 20l-215 125l-127 199l-28 248l14 67l127 215l197 131l247 27l99 -20l215 -127l131 -203l14 -299l-70 -324l-145 -340l-211 -207l-260 -28l-162 35l-231 137zM371 1085l20 -163 l70 -109l145 -88l29 -6l164 18l114 74l76 129l-12 178l-72 111l-145 84l-29 8l-164 -18l-110 -72z" />
<glyph unicode=":" horiz-adv-x="524" d="M61 150l238 167l166 -239l-238 -166zM180 834l238 167l166 -239l-236 -166z" />
<glyph unicode=";" horiz-adv-x="593" d="M104 -166l160 109l-143 207l237 167l166 -239l-28 -152l-111 -149l-162 -113zM240 834l237 167l166 -239l-235 -166z" />
<glyph unicode="&#x3c;" horiz-adv-x="1132" d="M111 856l893 610l133 -184l-705 -498l451 -725l-205 -120z" />
<glyph unicode="=" horiz-adv-x="1323" d="M41 422l43 209l1034 -221l-43 -207zM123 807l43 207l1034 -219l-43 -209z" />
<glyph unicode="&#x3e;" horiz-adv-x="1132" d="M-8 250l706 481l-442 742l195 112l569 -921l-891 -607z" />
<glyph unicode="?" horiz-adv-x="1091" d="M51 1081l33 146l117 149l106 66l185 47l303 -62l149 -120l70 -107l47 -182l-37 -176l-119 -148l-104 -65l-238 -66l-41 -186l-209 43l68 315l330 86l45 29l69 86l17 80l-27 100l-33 45l-82 68l-206 45l-105 -31l-43 -26l-65 -87l-21 -92zM158 158l243 159l156 -245 l-242 -158z" />
<glyph unicode="@" horiz-adv-x="1765" d="M88 567l43 201l117 201l106 131l187 121l161 43l232 26l229 -49l213 -108l131 -107l121 -188l35 -158l14 -240l-35 -168l-116 -215l-207 -133l-186 39l-99 141l-127 -73l-235 51l-150 119l-67 104l-47 187l36 174l119 151l105 68l184 47l166 -37l119 -133l18 92l184 -39 l-141 -674l86 -18l94 65l68 148l22 110v185l-30 121l-80 137l-94 72l-179 88l-157 34l-180 -20l-119 -33l-131 -88l-72 -94l-94 -160l-27 -129l19 -180l32 -119l80 -137l92 -72l160 -94l158 -33l180 21l31 -205l-219 -25l-228 49l-200 117l-131 107l-121 186l-43 162z M627 494l26 -101l29 -45l84 -67l135 -27l143 80l46 203l-129 153l-105 23l-100 -29l-45 -29l-66 -82z" />
<glyph unicode="A" horiz-adv-x="1392" d="M-51 229l885 1370l186 -40l252 -1610l-232 49l-77 545l-490 102l-295 -465zM592 836l338 -72l-72 493z" />
<glyph unicode="B" horiz-adv-x="1419" d="M45 111l317 1491l713 -152l221 -127l74 -115l49 -190l-26 -131l-131 -152l-99 -47l72 -84l55 -192l-41 -197l-121 -154l-116 -73l-254 -31zM305 279l463 -99l170 19l41 24l70 90l18 97l-49 168l-90 49l-525 112zM444 952l527 -110l106 4l103 88l16 80l-25 104l-28 39 l-148 88l-465 98z" />
<glyph unicode="C" horiz-adv-x="1417" d="M100 774l64 301l119 201l110 139l187 121l190 51l311 -67l152 -123l121 -187l57 -221l-213 -49l-47 184l-80 129l-84 70l-215 45l-98 -29l-133 -86l-76 -96l-94 -166l-49 -227l18 -184l31 -131l84 -123l86 -72l211 -43l102 27l127 88l119 149l178 -131l-148 -182 l-186 -119l-186 -49l-312 63l-155 121l-121 193l-43 164z" />
<glyph unicode="D" horiz-adv-x="1409" d="M41 113l317 1489l586 -123l217 -129l127 -195l41 -168l27 -235l-56 -267l-118 -206l-109 -134l-194 -127l-254 -32zM299 279l336 -70l168 18l125 84l69 90l99 166l43 191l-23 188l-33 121l-73 119l-146 88l-338 69z" />
<glyph unicode="E" horiz-adv-x="1232" d="M37 145l317 1489l1018 -215l-43 -202l-805 169l-86 -401l477 -100l-45 -215l-477 104l-98 -471l805 -170l-45 -203z" />
<glyph unicode="F" horiz-adv-x="1202" d="M51 59l318 1491l1017 -215l-45 -213l-804 170l-84 -391l477 -100l-45 -213l-477 102l-142 -674z" />
<glyph unicode="G" horiz-adv-x="1452" d="M98 764l66 303l119 201l110 139l187 121l188 51l311 -68l154 -122l121 -187l57 -221l-215 -49l-43 190l-82 123l-86 70l-215 45l-98 -29l-131 -86l-76 -96l-96 -166l-47 -227l18 -187l31 -129l84 -123l84 -71l211 -43l102 26l129 82l68 92l14 64l-277 59l45 213l490 -104 l-70 -328l-121 -153l-186 -121l-188 -49l-312 65l-153 121l-121 192l-45 164z" />
<glyph unicode="H" horiz-adv-x="1458" d="M37 156l317 1491l211 -45l-127 -605l705 -149l129 602l213 -43l-320 -1491l-211 47l144 674l-705 147l-145 -673z" />
<glyph unicode="I" horiz-adv-x="577" d="M76 51l315 1493l211 -45l-313 -1493z" />
<glyph unicode="J" horiz-adv-x="1128" d="M59 553l39 184l213 -45l-32 -151l18 -174l27 -39l86 -70l79 -18l103 28l41 27l88 154l227 1054l211 -47l-231 -1089l-127 -220l-119 -75l-188 -47l-181 36l-153 119l-72 119z" />
<glyph unicode="K" horiz-adv-x="1382" d="M37 158l315 1493l213 -47l-151 -719l870 565l303 -64l-799 -516l449 -966l-270 55l-363 789l-256 -162l-100 -473z" />
<glyph unicode="L" horiz-adv-x="1155" d="M90 135l318 1491l213 -45l-271 -1278l737 -160l-43 -211z" />
<glyph unicode="M" horiz-adv-x="1609" d="M45 170l315 1491l191 -39l201 -1229l680 1039l188 -39l-315 -1491l-209 45l186 884l-514 -813l-184 39l-142 957l-188 -887z" />
<glyph unicode="N" horiz-adv-x="1474" d="M43 156l317 1489l197 -43l490 -1233l231 1081l211 -45l-318 -1489l-194 41l-492 1237l-231 -1083z" />
<glyph unicode="O" horiz-adv-x="1495" d="M88 764l66 303l118 201l111 137l186 123l187 51l311 -68l156 -122l120 -189l43 -168l27 -235l-63 -303l-123 -203l-109 -135l-186 -123l-191 -47l-309 63l-153 123l-121 188l-45 166zM309 754l19 -193l28 -119l84 -125l88 -73l209 -43l103 30l131 82l76 101l96 164 l49 229l-23 190l-26 117l-82 131l-88 70l-213 43l-101 -29l-129 -84l-75 -98l-99 -164z" />
<glyph unicode="P" horiz-adv-x="1329" d="M45 55l317 1491l666 -141l219 -127l76 -117l47 -188l-63 -299l-119 -152l-117 -71l-254 -31l-452 96l-107 -506zM410 727l415 -88l172 18l37 29l70 84l43 199l-27 104l-26 41l-148 86l-418 88z" />
<glyph unicode="Q" horiz-adv-x="1495" d="M104 780l66 299l119 205l110 137l187 121l188 49l309 -65l156 -121l121 -188l43 -168l27 -238l-64 -301l-121 -205l-108 -135l-95 -61l134 -199l-168 -107l-142 226l-106 -31l-309 68l-152 118l-123 191l-45 166zM326 770l20 -192l29 -119l82 -135l88 -68l203 -41 l-115 164l170 108l127 -204l55 39l80 108l96 162l49 229l-24 191l-27 116l-82 132l-88 67l-213 45l-100 -29l-129 -83l-76 -97l-98 -166z" />
<glyph unicode="R" horiz-adv-x="1372" d="M63 150l318 1490l688 -147l217 -125l76 -115l51 -192l-29 -127l-124 -154l-113 -80l-148 -12l136 -768l-230 51l-112 727l-373 80l-146 -674zM465 989l440 -92l166 18l39 25l74 88l6 31l-31 102l-24 41l-146 88l-440 94z" />
<glyph unicode="S" horiz-adv-x="1277" d="M8 424l203 74l90 -168l129 -76l201 -41l168 18l98 64l21 88l-27 104l-33 50l-100 79l-248 181l-150 116l-84 129l-34 154l34 180l224 160l252 29l206 -45l220 -129l114 -213l-202 -91l-89 150l-124 76l-136 26l-166 -18l-102 -64l-10 -45l29 -102l34 -47l97 -76l251 -188 l148 -117l70 -107l49 -188l-47 -215l-203 -152l-273 -26l-268 57l-237 144z" />
<glyph unicode="T" horiz-adv-x="948" d="M41 1384l45 203l1034 -219l-45 -201l-407 86l-275 -1288l-215 45l275 1288z" />
<glyph unicode="U" horiz-adv-x="1443" d="M-70 180v39h70v-39h-70zM104 578l218 1030l215 -47l-213 -994l20 -166l74 -112l147 -90l94 -21l168 21l115 73l86 148l211 993l217 -49l-221 -1026l-127 -219l-205 -131l-254 -27l-164 33l-221 131l-131 199zM1446 180v39h70v-39h-70z" />
<glyph unicode="V" horiz-adv-x="1185" d="M57 1614l230 -49l190 -1227l676 1042l227 -49l-886 -1368l-183 39z" />
<glyph unicode="W" horiz-adv-x="1589" d="M145 1653l220 -47l18 -1051l442 950l193 -37l20 -1056l447 958l217 -47l-672 -1415l-178 37l-33 1052l-461 -946l-178 37z" />
<glyph unicode="X" horiz-adv-x="1265" d="M-98 166l651 641l-336 850l252 -55l252 -633l491 477l252 -55l-655 -639l340 -850l-256 53l-254 635l-485 -477z" />
<glyph unicode="Y" horiz-adv-x="1091" d="M-45 1610l272 -56l320 -639l551 451l272 -57l-762 -623l-157 -737l-211 43l157 741z" />
<glyph unicode="Z" horiz-adv-x="1226" d="M-12 158l37 170l1011 942l-739 157l45 211l1024 -217l-39 -170l-1012 -942l775 -164l-48 -215z" />
<glyph unicode="[" horiz-adv-x="868" d="M-74 -420l467 2198l611 -131l-46 -207l-401 84l-377 -1780l400 -86l-43 -209z" />
<glyph unicode="\" horiz-adv-x="884" d="M164 1763l211 35l377 -2304l-211 -29z" />
<glyph unicode="]" horiz-adv-x="868" d="M-135 -420l45 207l401 -84l377 1780l-399 86l43 209l610 -131l-467 -2198z" />
<glyph unicode="^" horiz-adv-x="1216" d="M47 1141l631 393l416 -616l-179 -117l-297 452l-456 -288z" />
<glyph unicode="_" horiz-adv-x="1216" d="M82 113l43 206l1010 -215l-43 -206z" />
<glyph unicode="`" horiz-adv-x="958" d="M379 1335l110 176l639 -405l-112 -178z" />
<glyph unicode="a" horiz-adv-x="1259" d="M92 584l19 100l129 215l190 125l184 47l203 -43l148 -117l14 64l209 -43l-150 -705l103 -260l-195 -82l-69 172l-232 -86l-252 56l-149 120l-123 191zM305 573l21 -165l73 -113l86 -70l148 -32l194 69l82 391l-65 101l-80 69l-148 29l-100 -27l-117 -75l-86 -144z" />
<glyph unicode="b" horiz-adv-x="1245" d="M59 109l318 1490l209 -45l-115 -546l180 49l207 -43l148 -121l124 -191l29 -245l-22 -103l-127 -213l-189 -125l-186 -49l-199 41l-147 152l-19 -97zM334 358l145 -141l152 -33l104 29l113 76l86 143l6 33l-18 166l-74 112l-84 74l-146 27l-100 -29l-100 -65z" />
<glyph unicode="c" horiz-adv-x="1148" d="M92 573l21 101l127 213l188 125l186 49l242 -51l148 -119l120 -191l-176 -116l-102 155l-84 74l-146 29l-100 -29l-117 -74l-86 -143l-6 -35l19 -164l73 -114l86 -70l144 -31l102 27l162 108l115 -180l-191 -125l-184 -49l-240 53l-151 119l-121 191z" />
<glyph unicode="d" horiz-adv-x="1241" d="M82 569l20 103l127 215l189 123l186 49l207 -43l141 -119l119 547l211 -45l-317 -1489l-209 43l18 94l-194 -74l-197 41l-152 119l-122 191zM299 561l18 -168l74 -114l82 -68l152 -31l190 70l84 391l-65 100l-78 68l-146 31l-106 -29l-115 -74l-84 -145z" />
<glyph unicode="e" horiz-adv-x="1183" d="M92 567l21 101l116 217l181 129l188 47l240 -51l147 -121l68 -105l49 -184l-51 -246l-758 160l16 -119l74 -110l86 -72l141 -31l103 29l139 88l113 -180l-166 -107l-185 -47l-239 49l-152 119l-112 191zM350 690l541 -117l-6 103l-45 86l-88 74l-152 30l-102 -28 l-127 -99z" />
<glyph unicode="f" horiz-adv-x="819" d="M88 823l45 207l182 -39l29 139l139 230l209 55l209 -45l-45 -211l-166 37l-67 -20l-76 -123l-23 -107l256 -53l-45 -209l-254 55l-170 -802l-211 45l170 802z" />
<glyph unicode="g" horiz-adv-x="1214" d="M31 -264l125 168l221 -174l143 -33l103 29l39 26l86 144l32 149l-196 -74l-197 41l-151 121l-123 191l-27 245l20 101l130 215l186 125l184 47l209 -43l143 -117l15 64l211 -46l-236 -1101l-125 -211l-114 -72l-183 -51l-243 53zM303 557l19 -164l71 -112l84 -70l152 -33 l192 70l82 391l-65 100l-78 70l-150 31l-102 -29l-115 -76l-84 -145z" />
<glyph unicode="h" horiz-adv-x="1232" d="M59 106l318 1491l209 -43l-121 -587l55 30l178 47l224 -45l168 -139l28 -264l-143 -682l-207 43l137 649l-18 144l-62 51l-143 28l-113 -26l-159 -92l-140 -650z" />
<glyph unicode="i" horiz-adv-x="546" d="M55 33l215 1009l211 -45l-215 -1011zM242 1391l243 159l158 -243l-242 -160z" />
<glyph unicode="j" horiz-adv-x="575" d="M-287 -401l45 206l164 -34l70 20l74 121l239 1135l211 -46l-250 -1163l-133 -233l-211 -56zM281 1397l241 157l160 -243l-244 -160z" />
<glyph unicode="k" horiz-adv-x="1130" d="M59 129l318 1493l207 -47l-197 -926l541 352l295 -63l-539 -350l375 -672l-281 61l-276 492l-176 -115l-60 -268z" />
<glyph unicode="l" horiz-adv-x="618" d="M111 303l260 1217l209 -43l-252 -1174l26 -94l19 -31l141 -28l-45 -207l-227 45l-82 131z" />
<glyph unicode="m" horiz-adv-x="1943" d="M61 190l215 1010l211 -45l-28 -131l63 57l178 47l222 -45l151 -129l21 -108l129 86l182 49l223 -49l170 -135l31 -269l-146 -682l-208 45l139 652l-21 143l-59 47l-145 33l-99 -29l-180 -121l-133 -618l-207 43l137 653l-18 140l-60 51l-145 30l-111 -26l-163 -92 l-140 -652z" />
<glyph unicode="n" horiz-adv-x="1236" d="M61 111l213 1007l211 -45l-26 -129l61 55l180 50l222 -48l168 -137l32 -266l-147 -682l-207 43l139 651l-18 144l-60 49l-147 31l-111 -27l-161 -94l-140 -647z" />
<glyph unicode="o" horiz-adv-x="1230" d="M92 571l21 99l127 215l190 125l184 49l224 -47l147 -121l121 -191l33 -247l-23 -101l-127 -213l-190 -125l-185 -47l-221 45l-151 121l-121 193zM307 559l19 -164l75 -112l84 -72l125 -27l103 29l116 74l86 145l7 31l-19 166l-78 114l-82 70l-127 29l-100 -29l-117 -78 l-84 -141z" />
<glyph unicode="p" horiz-adv-x="1290" d="M-4 -373l317 1493l213 -45l-14 -65l178 47l207 -41l150 -121l122 -193l29 -245l-22 -101l-125 -215l-191 -125l-184 -49l-201 43l-145 150l-121 -576zM373 358l149 -139l148 -33l104 29l113 76l86 143l6 33l-16 164l-76 114l-84 70l-146 31l-98 -29l-102 -65z" />
<glyph unicode="q" horiz-adv-x="1230" d="M82 573l20 101l129 215l189 123l184 49l207 -43l143 -119l15 66l211 -43l-318 -1493l-209 45l123 575l-196 -74l-197 41l-150 119l-122 191zM301 565l18 -170l72 -114l82 -68l152 -31l192 70l82 391l-65 100l-78 68l-146 31l-106 -29l-115 -74l-84 -145z" />
<glyph unicode="r" horiz-adv-x="940" d="M61 31l213 1009l209 -43l-16 -79l168 67l117 -24l172 -140l26 -223l-211 -31l-24 146l-49 49l-58 10l-192 -92l-148 -692z" />
<glyph unicode="s" d="M57 338l207 47l33 -111l111 -81l84 -17l122 23l54 53l-17 67l-76 64l-213 109l-151 122l-53 217l145 193l256 33l148 -31l213 -133l59 -191l-201 -45l-28 103l-117 86l-84 16l-139 -18l-33 -58l14 -57l78 -65l209 -99l143 -119l53 -165l-20 -95l-131 -168l-240 -38 l-147 32l-223 135z" />
<glyph unicode="t" horiz-adv-x="788" d="M92 909l43 209l184 -39l68 322l209 -45l-68 -322l250 -53l-43 -209l-252 53l-90 -424l17 -145l59 -47l139 -31l-45 -209l-188 43l-166 133l-33 267l98 458z" />
<glyph unicode="u" horiz-adv-x="1226" d="M102 436l146 682l209 -45l-140 -651l17 -146l63 -47l144 -30l112 26l164 92l137 650l211 -45l-217 -1008l-209 45l29 129l-63 -53l-179 -51l-223 49l-170 135z" />
<glyph unicode="v" horiz-adv-x="1075" d="M72 1098l225 -51l147 -768l445 645l227 -50l-649 -917l-176 39z" />
<glyph unicode="w" horiz-adv-x="1355" d="M80 1124l205 -41l47 -659l307 584l160 -33l43 -660l309 582l207 -43l-512 -946l-162 35l-49 653l-311 -578l-162 35z" />
<glyph unicode="x" horiz-adv-x="1105" d="M-98 123l504 420l-291 590l270 -56l190 -393l332 279l271 -56l-502 -422l289 -589l-271 57l-192 389l-332 -276z" />
<glyph unicode="y" horiz-adv-x="1073" d="M-205 -416l43 207l101 -20l100 28l129 84l125 172l-205 1043l227 -49l140 -760l450 637l230 -52l-646 -907l-180 -248l-184 -118l-186 -50z" />
<glyph unicode="z" horiz-adv-x="1048" d="M2 104l39 172l674 517l-504 106l45 207l797 -168l-37 -170l-674 -516l541 -117l-43 -207z" />
<glyph unicode="{" horiz-adv-x="704" d="M-35 -86l31 147l121 152l73 45l68 82l10 45l-112 172l39 182l174 115l8 39l-31 108l-47 72l-47 187l31 147l118 149l105 68l219 57l47 -208l-178 -48l-47 -26l-64 -84l-12 -53l27 -103l49 -76l47 -182l-39 -178l-178 -117l117 -178l-39 -178l-117 -150l-78 -49l-63 -80 l-11 -55l25 -100l31 -47l143 -115l-129 -168l-174 137l-70 105z" />
<glyph unicode="|" horiz-adv-x="512" d="M-61 -463l467 2196l208 -45l-467 -2196z" />
<glyph unicode="}" horiz-adv-x="704" d="M-70 -248l181 45l43 31l67 82l12 53l-26 100l-49 76l-49 185l36 178l181 116l-117 179l39 178l119 147l73 49l68 82l10 54l-26 102l-31 45l-144 115l129 172l177 -142l67 -104l47 -184l-30 -148l-119 -151l-76 -47l-68 -86l-8 -39l111 -174l-39 -183l-172 -112l-8 -45 l26 -101l52 -73l45 -187l-31 -147l-119 -152l-104 -67l-217 -56z" />
<glyph unicode="~" horiz-adv-x="1236" d="M90 553l318 207l196 -41l141 -221l62 -13l231 152l111 -168l-315 -209l-205 43l-140 213l-57 12l-229 -147z" />
<glyph unicode="&#xa1;" horiz-adv-x="583" d="M61 -27l222 1043l204 -45l-221 -1041zM246 1321l241 158l158 -244l-239 -158z" />
<glyph unicode="&#xa2;" horiz-adv-x="1177" d="M92 588l21 100l123 215l194 123l188 49l35 162l201 -43l-35 -162l43 -8l148 -121l120 -188l-163 -105l-103 152l-88 69l-137 -645l98 25l168 106l111 -165l-193 -125l-184 -50l-43 9l-33 -162l-201 43l35 162l-153 121l-129 192zM303 557l14 -162l80 -114l45 -31l129 604 l-51 -8l-121 -74l-80 -145z" />
<glyph unicode="&#xa3;" horiz-adv-x="1222" d="M-61 158l45 209l190 108l76 135l39 176l-201 43l45 213l201 -43l43 207l119 221l114 76l191 49l160 -34l155 -132l82 -227l-43 -205l-213 45l37 170l-37 84l-78 70l-61 12l-103 -28l-41 -25l-81 -156l-35 -170l258 -55l-45 -213l-258 55l-39 -176l-82 -184l-103 -78 l711 -151l-45 -209z" />
<glyph unicode="&#xa4;" horiz-adv-x="1175" d="M-6 262l215 154l-19 166l17 75l82 142l-133 229l184 109l131 -222l115 27l166 -35l94 -73l209 149l127 -172l-219 -156l20 -163l-16 -76l-84 -142l137 -229l-186 -106l-132 219l-114 -27l-166 35l-94 70l-203 -148zM406 573l8 -102l82 -104l104 -23l115 64l47 90l-2 104 l-84 107l-105 22l-114 -63z" />
<glyph unicode="&#xa5;" horiz-adv-x="1267" d="M111 393l36 174l338 -71l21 98l-336 72l37 174l317 -68l-336 811l267 -57l227 -627l446 483l269 -57l-627 -606l317 -68l-36 -174l-336 72l-23 -98l338 -72l-37 -174l-338 71l-71 -335l-207 43l72 338z" />
<glyph unicode="&#xa6;" horiz-adv-x="471" d="M-102 -463l217 1022l209 -45l-218 -1022zM160 764l205 969l208 -45l-206 -967z" />
<glyph unicode="&#xa7;" horiz-adv-x="1040" d="M2 340l207 49l33 -110l112 -82l80 -19l127 25l49 51l-10 82l-68 61l-213 111l-151 121l-53 219l145 178l82 12l-74 54l-51 223l145 192l254 31l146 -31l213 -133l61 -190l-198 -45l-29 102l-119 88l-82 17l-141 -23l-29 -53l11 -68l75 -65l205 -111l141 -119l60 -166 l-21 -88l-129 -149l-86 -8l76 -56l51 -155l-20 -97l-133 -168l-240 -36l-145 30l-224 136zM336 803l10 -78l113 -80l76 -33l129 23l53 67l-6 97l-115 84l-78 32l-141 -20z" />
<glyph unicode="&#xa8;" horiz-adv-x="1054" d="M365 1321l243 160l150 -244l-236 -160zM844 1219l233 161l158 -243l-244 -158z" />
<glyph unicode="&#xa9;" horiz-adv-x="1773" d="M88 827l43 203l119 201l104 129l185 123l166 43l229 24l223 -49l207 -119l131 -102l121 -188l43 -162l27 -232l-44 -202l-118 -201l-105 -129l-186 -123l-162 -43l-231 -27l-230 50l-200 118l-134 105l-118 188l-43 162zM303 819l21 -188l30 -111l84 -129l90 -78l160 -94 l158 -33l186 19l113 35l129 84l74 94l92 160l28 129l-20 186l-29 115l-84 125l-98 84l-154 90l-157 32l-187 -20l-112 -33l-127 -84l-76 -94l-94 -158zM453 725l45 215l108 135l94 62l166 43l217 -47l131 -107l82 -125l-159 -104l-66 98l-74 66l-127 26l-90 -26l-41 -25 l-61 -80l-27 -129l23 -94l26 -41l72 -62l129 -26l94 31l99 61l104 -160l-125 -82l-166 -43l-215 45l-135 107l-61 96z" />
<glyph unicode="&#xaa;" horiz-adv-x="1005" d="M162 1221l14 67l105 172l227 101l160 -35l98 -99l12 58l148 -31l-103 -481l64 -170l-162 -70l-43 109l-135 -47l-203 43l-160 192zM342 1214l10 -102l70 -102l115 -25l114 33l49 235l-75 97l-121 26l-109 -63z" />
<glyph unicode="&#xab;" horiz-adv-x="1337" d="M94 637l619 414l114 -177l-454 -296l295 -457l-179 -115zM578 535l612 415l115 -178l-451 -297l291 -457l-178 -114z" />
<glyph unicode="&#xac;" horiz-adv-x="1241" d="M127 795l45 213l1034 -220l-137 -638l-211 45l92 426z" />
<glyph unicode="&#xad;" d="M82 395l45 209l754 -160l-45 -206z" />
<glyph unicode="&#xae;" horiz-adv-x="1773" d="M88 827l43 203l119 201l104 129l185 123l166 43l229 24l223 -49l207 -119l131 -102l121 -188l43 -162l27 -232l-44 -202l-118 -201l-105 -129l-186 -123l-162 -43l-231 -27l-230 50l-200 118l-134 105l-118 188l-43 162zM303 819l21 -188l30 -111l84 -129l90 -78l160 -94 l158 -33l186 19l113 35l129 84l74 94l92 160l28 129l-20 186l-29 115l-84 125l-98 84l-154 90l-157 32l-187 -20l-112 -33l-127 -84l-76 -94l-94 -158zM545 453l162 757l366 -77l117 -68l39 -61l26 -101l-18 -88l-66 -80l-59 -41l-51 -6l74 -358l-187 41l-61 327l-94 21 l-66 -303zM821 879l137 -29l60 6l35 41l2 8l-17 51l-51 31l-137 29z" />
<glyph unicode="&#xaf;" horiz-adv-x="950" d="M344 1223l41 192l768 -164l-41 -192z" />
<glyph unicode="&#xb0;" horiz-adv-x="929" d="M76 1133l49 233l156 152l157 38l207 -45l127 -98l82 -203l-49 -233l-158 -152l-155 -39l-207 45l-129 99zM283 1147l73 -137l148 -31l123 96l24 119l-76 141l-153 31l-115 -100z" />
<glyph unicode="&#xb1;" horiz-adv-x="1239" d="M-25 268l43 201l998 -211l-43 -201zM172 926l45 209l338 -72l68 319l211 -43l-68 -321l340 -72l-45 -209l-340 72l-64 -301l-211 45l64 301z" />
<glyph unicode="&#xb2;" horiz-adv-x="612" d="M127 874l33 154l329 258l11 43l-31 43l-53 12l-51 -28l-19 -88l-137 30l27 127l83 95l121 26l86 -18l90 -72l50 -121l-25 -118l-291 -234l252 -53l-31 -152z" />
<glyph unicode="&#xb3;" horiz-adv-x="622" d="M96 1057l137 53l50 -137l129 -27l71 90l-47 101l-78 16l-30 -20l-76 116l174 119l-190 39l32 152l385 -82l-30 -140l-123 -84l84 -57l59 -137l-25 -121l-88 -98l-170 -41l-100 22l-123 115z" />
<glyph unicode="&#xb4;" horiz-adv-x="948" d="M354 1272l752 108l29 -206l-750 -113z" />
<glyph unicode="&#xb5;" horiz-adv-x="1173" d="M-29 -377l316 1489l209 -43l-140 -651l19 -144l61 -49l144 -30l112 26l162 90l139 652l209 -45l-213 -1010l-211 45l27 131l-62 -55l-180 -49l-211 45l-65 61l-109 -508z" />
<glyph unicode="&#xb6;" horiz-adv-x="1239" d="M133 971l64 297l122 153l115 76l252 27l571 -121l-317 -1491l-211 45l107 504l-117 24l-107 -503l-213 45l109 505l-31 7l-219 129l-76 112z" />
<glyph unicode="&#xb7;" horiz-adv-x="557" d="M78 559l244 160l157 -246l-243 -158z" />
<glyph unicode="&#xb8;" horiz-adv-x="600" d="M82 -371l94 97l82 -78h115v157h-152v326h135v-211h68l94 -100v-182l-110 -130h-203z" />
<glyph unicode="&#xb9;" horiz-adv-x="495" d="M119 1296l35 162l69 -14l142 69l174 -36l-148 -689l-170 37l111 523l-144 -66z" />
<glyph unicode="&#xba;" horiz-adv-x="704" d="M59 879l33 151l490 -104l-31 -152zM158 1253l35 160l104 107l104 26l107 -22l88 -68l51 -141l-35 -158l-102 -108l-109 -25l-104 23l-88 67zM317 1266l39 -84l47 -11l72 62l17 72l-41 84l-56 12l-63 -66z" />
<glyph unicode="&#xbb;" horiz-adv-x="1337" d="M33 260l450 297l-290 457l178 114l391 -630l-615 -416zM510 158l455 297l-295 456l178 115l395 -631l-618 -413z" />
<glyph unicode="&#xbc;" horiz-adv-x="1611" d="M12 281l1514 1134l116 -155l-1501 -1149zM285 1386l34 162l70 -14l141 70l177 -37l-146 -690l-176 38l111 521l-140 -66zM799 186l24 119l375 322l119 -25l-76 -352l129 -27l-33 -151l-127 26l-41 -188l-139 31l39 188zM997 295l107 -23l29 138z" />
<glyph unicode="&#xbd;" horiz-adv-x="1611" d="M35 281l1513 1134l117 -155l-1501 -1149zM307 1386l35 162l70 -14l141 70l176 -37l-145 -690l-176 38l110 521l-139 -66zM901 -29l33 156l330 258l10 43l-31 45l-55 12l-49 -28l-19 -90l-139 30l27 127l86 94l120 29l86 -18l91 -74l49 -121l-27 -119l-289 -231l252 -53 l-33 -154z" />
<glyph unicode="&#xbe;" horiz-adv-x="1697" d="M78 272l1513 1133l117 -154l-1501 -1151zM176 1145l133 53l51 -135l132 -29l71 92l-49 101l-80 16l-26 -20l-76 116l174 117l-191 41l31 150l385 -82l-29 -138l-122 -84l84 -59l59 -135l-27 -123l-88 -98l-170 -39l-100 20l-123 117zM866 176l25 121l373 319l118 -24 l-73 -350l127 -29l-31 -152l-129 27l-41 -188l-139 30l41 189zM1063 285l106 -23l29 139z" />
<glyph unicode="&#xbf;" horiz-adv-x="1183" d="M55 326l33 143l207 -45l-19 -94l27 -103l29 -45l80 -67l209 -45l104 30l45 29l68 82l14 76l-27 106l-30 45l-267 215l66 314l211 -45l-39 -187l192 -155l66 -105l47 -182l-37 -176l-116 -150l-107 -67l-184 -47l-305 63l-148 121l-70 104zM559 1270l242 157l157 -241 l-241 -158z" />
<glyph unicode="&#xc0;" horiz-adv-x="1394" d="M-51 231l885 1371l186 -41l252 -1612l-232 49l-77 545l-490 104l-295 -465zM590 838l340 -72l-72 491zM616 2007l113 176l639 -405l-113 -179z" />
<glyph unicode="&#xc1;" horiz-adv-x="1392" d="M-51 231l885 1371l186 -41l252 -1612l-232 49l-77 545l-490 104l-295 -465zM590 838l340 -72l-72 491zM604 1942l750 110l30 -209l-749 -110z" />
<glyph unicode="&#xc2;" horiz-adv-x="1392" d="M-49 231l885 1368l186 -38l252 -1612l-232 49l-77 545l-490 104l-293 -465zM569 1913l469 184l351 -358l-152 -146l-252 256l-334 -133zM594 838l338 -72l-72 491z" />
<glyph unicode="&#xc3;" horiz-adv-x="1392" d="M-51 229l882 1370l189 -38l252 -1612l-232 49l-79 545l-488 104l-295 -465zM518 1915l320 205l151 -31l141 -221l222 143l110 -168l-305 -201l-143 31l-144 223l-237 -155zM590 838l340 -72l-72 491z" />
<glyph unicode="&#xc4;" horiz-adv-x="1392" d="M-51 231l885 1371l188 -41l250 -1612l-232 49l-77 545l-490 104l-293 -465zM561 2003l242 160l149 -244l-233 -160zM592 838l338 -72l-72 491zM1038 1901l234 161l158 -245l-242 -158z" />
<glyph unicode="&#xc5;" horiz-adv-x="1392" d="M-47 229l883 1370l22 -4l-86 68l-57 141l33 158l110 106l107 27l143 -31l86 -67l57 -142l-34 -157l-111 -107l-102 -26l20 -4l252 -1612l-232 49l-79 545l-488 104l-295 -465zM594 838l340 -72l-72 491zM881 1817l41 -78l84 -17l71 54l15 65l-48 82l-86 19l-63 -60z" />
<glyph unicode="&#xc6;" horiz-adv-x="1988" d="M-61 274l829 1381l197 -41l90 -916l182 858l844 -180l-45 -213l-631 135l-84 -393l387 -82l-45 -213l-387 82l-96 -461l630 -133l-45 -213l-845 181l-56 538l-428 92l-270 -471zM547 889l293 -64l-49 488z" />
<glyph unicode="&#xc7;" horiz-adv-x="1415" d="M98 776l64 301l121 205l108 135l189 121l190 51l309 -67l152 -121l123 -187l57 -221l-213 -51l-47 184l-80 129l-86 70l-213 45l-100 -27l-131 -86l-76 -98l-96 -164l-50 -229l21 -182l31 -131l82 -125l86 -70l211 -45l104 29l127 88l117 147l178 -131l-146 -180 l-186 -123l-188 -47l-129 27l-13 -60l66 -14l72 -117l-37 -178l-135 -105l-199 43l-96 144l112 74l64 -93l112 -24l33 155l-147 31l35 172l-50 10l-153 121l-121 191l-45 166z" />
<glyph unicode="&#xc8;" horiz-adv-x="1234" d="M37 145l317 1491l1018 -217l-43 -202l-805 172l-86 -404l477 -100l-45 -213l-477 100l-100 -467l805 -172l-43 -205zM545 1956l110 176l639 -406l-112 -178z" />
<glyph unicode="&#xc9;" horiz-adv-x="1232" d="M37 145l317 1491l1018 -217l-43 -202l-805 172l-86 -404l477 -100l-45 -213l-477 100l-100 -467l805 -172l-43 -205zM528 1890l752 111l29 -209l-750 -113z" />
<glyph unicode="&#xca;" horiz-adv-x="1230" d="M39 145l317 1491l1018 -217l-43 -202l-805 172l-86 -404l478 -100l-46 -213l-477 100l-100 -467l805 -172l-43 -205zM500 1862l465 186l354 -360l-156 -146l-252 256l-333 -133z" />
<glyph unicode="&#xcb;" horiz-adv-x="1232" d="M39 145l315 1491l1018 -217l-43 -202l-805 172l-86 -404l477 -100l-45 -213l-477 100l-98 -467l805 -172l-43 -205zM489 1950l244 159l148 -241l-234 -160zM969 1849l231 162l158 -246l-242 -157z" />
<glyph unicode="&#xcc;" horiz-adv-x="577" d="M76 51l317 1491l211 -45l-315 -1491zM188 1946l113 176l639 -406l-113 -178z" />
<glyph unicode="&#xcd;" horiz-adv-x="577" d="M76 49l317 1491l211 -45l-315 -1491zM176 1878l752 109l28 -207l-749 -113z" />
<glyph unicode="&#xce;" horiz-adv-x="577" d="M78 49l317 1491l211 -45l-315 -1491zM141 1849l469 185l351 -359l-152 -147l-252 258l-334 -133z" />
<glyph unicode="&#xcf;" horiz-adv-x="577" d="M76 49l317 1491l213 -45l-317 -1491zM135 1937l242 160l149 -242l-233 -159zM612 1837l234 162l158 -246l-242 -158z" />
<glyph unicode="&#xd0;" horiz-adv-x="1406" d="M-49 844l41 190l235 -49l131 617l586 -123l217 -127l129 -197l41 -168l27 -237l-55 -265l-121 -206l-107 -134l-196 -127l-252 -30l-584 123l143 682zM299 279l338 -72l166 18l123 84l73 92l99 164l41 193l-21 186l-33 123l-75 119l-148 88l-336 72l-86 -406l283 -59 l-41 -193l-283 60z" />
<glyph unicode="&#xd1;" horiz-adv-x="1474" d="M47 154l318 1491l194 -41l492 -1235l231 1081l211 -45l-315 -1491l-197 43l-492 1237l-229 -1085zM520 1860l320 204l151 -30l142 -222l221 144l110 -168l-305 -201l-143 31l-144 223l-237 -155z" />
<glyph unicode="&#xd2;" horiz-adv-x="1495" d="M84 766l66 301l120 205l109 135l186 121l189 51l311 -68l154 -120l120 -189l43 -168l29 -235l-63 -301l-125 -207l-107 -133l-188 -123l-191 -49l-307 65l-156 121l-120 190l-43 166zM305 758l19 -195l30 -119l82 -125l86 -71l211 -45l105 28l129 84l75 101l99 164 l47 227l-21 192l-28 119l-82 127l-86 70l-213 45l-103 -29l-129 -84l-75 -98l-99 -164zM594 1954l113 176l639 -406l-113 -178z" />
<glyph unicode="&#xd3;" horiz-adv-x="1497" d="M84 766l68 301l120 203l109 137l186 121l189 51l311 -68l154 -122l120 -187l43 -168l29 -235l-65 -301l-123 -207l-107 -133l-188 -125l-191 -47l-307 65l-156 121l-120 190l-45 166zM305 758l21 -195l30 -119l82 -127l86 -69l211 -45l105 28l129 84l75 101l99 164 l49 227l-23 192l-28 119l-82 127l-86 70l-213 45l-103 -29l-129 -84l-75 -98l-99 -164zM584 1888l751 109l29 -207l-750 -111z" />
<glyph unicode="&#xd4;" horiz-adv-x="1495" d="M86 766l66 301l120 203l109 137l186 121l189 51l311 -68l154 -122l120 -187l45 -168l27 -235l-63 -301l-125 -207l-107 -133l-188 -125l-191 -47l-307 65l-156 121l-120 190l-43 166zM307 756l19 -193l30 -119l82 -127l86 -69l211 -45l105 28l129 84l75 101l99 164 l47 227l-21 192l-28 119l-80 127l-88 70l-213 45l-103 -29l-129 -84l-75 -98l-97 -164zM547 1860l469 184l350 -358l-152 -146l-251 256l-334 -133z" />
<glyph unicode="&#xd5;" horiz-adv-x="1495" d="M88 766l66 299l120 205l109 137l186 121l189 51l311 -68l154 -122l120 -187l43 -168l29 -237l-63 -299l-125 -207l-107 -133l-188 -125l-191 -47l-307 65l-155 121l-121 188l-45 168zM309 756l19 -193l30 -119l82 -127l86 -69l211 -45l105 28l129 82l76 103l98 164 l47 227l-21 190l-28 119l-82 129l-86 70l-213 45l-103 -29l-129 -84l-75 -98l-99 -164zM500 1862l319 204l152 -30l141 -221l221 143l111 -168l-305 -201l-144 31l-143 223l-238 -155z" />
<glyph unicode="&#xd6;" horiz-adv-x="1495" d="M86 766l64 301l120 205l109 135l186 121l189 51l311 -68l154 -120l120 -189l45 -168l27 -235l-63 -301l-123 -207l-109 -133l-188 -123l-189 -49l-309 65l-156 121l-120 190l-43 166zM305 756l21 -193l28 -119l82 -125l88 -71l209 -45l105 28l129 84l75 101l99 164 l49 227l-23 192l-26 119l-82 127l-88 70l-213 45l-103 -29l-129 -84l-75 -98l-97 -164zM541 1948l241 159l150 -241l-234 -160zM1018 1847l233 162l158 -246l-242 -157z" />
<glyph unicode="&#xd7;" horiz-adv-x="1296" d="M33 381l438 307l-276 457l182 108l268 -444l424 297l125 -174l-440 -305l278 -459l-184 -107l-268 443l-424 -295z" />
<glyph unicode="&#xd8;" horiz-adv-x="1497" d="M84 764l66 301l120 205l109 135l186 121l191 51l309 -68l37 -30l41 63l149 -98l-55 -84l104 -160l43 -168l27 -235l-65 -301l-121 -207l-109 -133l-186 -123l-191 -49l-309 65l-35 27l-45 -70l-151 92l61 95l-104 167l-45 166zM303 756l23 -195l28 -119l33 -57l598 918 l-14 10l-213 45l-103 -29l-127 -84l-75 -98l-99 -164zM512 252l12 -6l211 -45l105 28l129 84l75 101l97 164l51 227l-25 192l-26 119l-29 51z" />
<glyph unicode="&#xd9;" horiz-adv-x="1443" d="M104 580l220 1026l213 -45l-211 -994l20 -166l72 -112l147 -88l94 -21l170 19l113 73l88 148l211 991l213 -45l-217 -1028l-129 -219l-205 -131l-252 -27l-166 35l-221 127l-129 203zM578 1913l112 176l639 -406l-112 -178z" />
<glyph unicode="&#xda;" horiz-adv-x="1443" d="M104 580l220 1026l213 -45l-211 -994l20 -166l72 -112l147 -88l94 -21l170 19l113 73l88 148l211 991l213 -45l-217 -1028l-129 -219l-205 -131l-252 -27l-166 35l-221 127l-129 203zM565 1845l752 111l29 -207l-750 -113z" />
<glyph unicode="&#xdb;" horiz-adv-x="1443" d="M104 580l220 1026l213 -45l-211 -994l20 -166l72 -112l147 -88l94 -21l170 19l113 73l88 148l211 991l213 -45l-217 -1028l-129 -219l-203 -131l-254 -29l-166 37l-221 127l-129 203zM530 1817l469 186l351 -361l-152 -145l-252 258l-334 -133z" />
<glyph unicode="&#xdc;" horiz-adv-x="1443" d="M102 580l220 1026l215 -45l-213 -994l20 -166l72 -112l149 -88l94 -21l168 19l113 73l88 148l211 991l215 -45l-219 -1028l-129 -219l-203 -131l-254 -29l-166 37l-219 127l-131 203zM522 1907l242 159l149 -241l-233 -160zM999 1806l234 162l158 -246l-244 -157z" />
<glyph unicode="&#xdd;" horiz-adv-x="1091" d="M-45 1612l270 -58l322 -636l551 452l272 -59l-762 -623l-155 -739l-213 45l157 739zM338 1823l752 110l28 -209l-749 -112z" />
<glyph unicode="&#xde;" horiz-adv-x="1329" d="M6 63l316 1491l213 -45l-52 -239l453 -96l219 -130l78 -114l47 -191l-63 -297l-121 -153l-117 -74l-252 -29l-453 97l-57 -265zM319 496l416 -88l170 18l39 27l70 86l43 198l-29 105l-27 39l-147 88l-416 88z" />
<glyph unicode="&#xdf;" horiz-adv-x="1286" d="M31 123l243 1149l138 229l209 55l311 -67l221 -127l76 -115l47 -190l-27 -129l-131 -152l-96 -49l68 -86l57 -190l-41 -197l-121 -154l-117 -71l-252 -31l-155 33l45 213l119 -25l172 19l39 24l67 88l23 99l-49 165l-95 54l-106 22l47 211l104 -22l107 6l102 88l17 80 l-25 104l-29 39l-147 88l-234 49l-67 -18l-74 -121l-237 -1116z" />
<glyph unicode="&#xe0;" horiz-adv-x="1255" d="M74 592l22 100l127 213l189 125l186 49l203 -43l147 -118l13 65l210 -45l-149 -702l102 -261l-196 -81l-68 169l-233 -83l-250 53l-152 121l-123 190zM289 580l20 -164l74 -115l86 -70l147 -30l193 67l84 394l-66 100l-79 67l-148 31l-100 -29l-119 -75l-84 -142z M446 1452l111 178l639 -405l-113 -181z" />
<glyph unicode="&#xe1;" horiz-adv-x="1269" d="M74 592l22 100l127 213l189 125l186 49l203 -43l147 -118l13 65l210 -45l-149 -702l102 -261l-196 -81l-68 169l-233 -83l-250 53l-152 121l-123 190zM289 580l20 -164l74 -115l86 -70l147 -30l193 67l84 394l-66 100l-79 67l-148 31l-100 -29l-119 -75l-84 -142z M430 1386l752 111l28 -207l-749 -112z" />
<glyph unicode="&#xe2;" horiz-adv-x="1275" d="M74 592l22 100l127 213l189 125l186 49l203 -43l147 -118l13 65l210 -45l-149 -702l102 -261l-196 -81l-68 169l-233 -83l-250 53l-152 121l-123 190zM289 580l20 -164l74 -115l86 -70l147 -32l193 69l84 391l-66 103l-79 67l-148 31l-100 -29l-119 -75l-84 -144z M397 1358l467 186l353 -360l-154 -146l-250 256l-334 -131z" />
<glyph unicode="&#xe3;" horiz-adv-x="1259" d="M74 592l22 100l127 213l189 125l186 49l203 -43l145 -118l15 65l210 -45l-149 -702l102 -261l-196 -84l-68 172l-233 -83l-250 53l-152 121l-123 190zM289 580l20 -164l74 -115l86 -70l147 -32l193 69l84 391l-66 103l-79 67l-148 31l-100 -29l-119 -75l-84 -144z M346 1360l320 207l151 -33l141 -219l222 143l110 -168l-305 -203l-143 31l-144 223l-237 -153z" />
<glyph unicode="&#xe4;" horiz-adv-x="1257" d="M74 592l22 100l127 213l191 125l186 49l201 -43l147 -118l15 65l208 -45l-149 -702l102 -261l-194 -81l-70 169l-233 -83l-250 53l-150 121l-123 190zM291 580l18 -164l74 -115l86 -70l149 -30l191 67l84 391l-66 103l-79 67l-148 31l-100 -29l-117 -75l-86 -142z M389 1448l244 160l149 -244l-235 -158zM868 1346l234 161l155 -243l-241 -158z" />
<glyph unicode="&#xe5;" horiz-adv-x="1230" d="M74 592l22 100l127 213l189 125l186 49l-49 39l-57 144l32 157l111 107l106 24l142 -30l86 -66l59 -141l-35 -160l-110 -106l-74 -17l137 -112l15 65l210 -45l-149 -702l102 -261l-196 -84l-68 172l-233 -83l-250 53l-152 121l-123 190zM289 580l20 -164l74 -115l86 -70 l147 -32l193 69l84 391l-66 103l-79 67l-148 31l-100 -29l-119 -75l-84 -144zM657 1274l41 -78l82 -18l72 53l14 67l-45 80l-86 19l-65 -60z" />
<glyph unicode="&#xe6;" horiz-adv-x="1519" d="M51 467l15 68l88 139l127 80l120 32l181 -36l39 -43l18 90l-84 112l-57 13l-66 -23l-39 -59l-182 114l76 129l209 58l90 -21l106 -73l111 -148l80 72l184 47l143 -29l138 -119l79 -145l23 -152l-49 -235l-619 131l13 -117l59 -110l86 -72l43 -8l92 31l139 88l117 -181 l-170 -106l-174 -51l-141 30l-133 144l-29 41l-213 -105l-215 45l-94 78l-86 125zM252 455l10 -80l74 -86l106 -23l90 39l41 82l-2 96l-67 74l-109 23l-98 -50zM840 645l413 -88l-4 100l-47 86l-78 70l-53 12l-104 -30l-107 -101z" />
<glyph unicode="&#xe7;" horiz-adv-x="1130" d="M74 571l20 101l129 213l189 125l184 49l242 -51l147 -119l123 -191l-180 -116l-103 159l-84 70l-143 31l-100 -29l-117 -76l-84 -143l-8 -35l20 -164l74 -112l86 -72l141 -31l103 29l164 106l114 -180l-192 -123l-185 -49l-104 23l-12 -62l65 -14l72 -117l-37 -178 l-135 -104l-199 43l-96 143l113 76l63 -95l113 -24l32 156l-147 30l37 172l-4 2l-150 119l-123 193z" />
<glyph unicode="&#xe8;" horiz-adv-x="1148" d="M74 569l22 101l117 215l180 127l185 49l241 -51l148 -119l67 -107l49 -182l-51 -246l-756 160l15 -119l74 -112l86 -72l141 -31l102 29l140 88l114 -178l-168 -109l-184 -47l-240 51l-149 119l-115 191zM332 690l540 -115l-4 103l-47 84l-88 74l-149 32l-105 -30 l-127 -97zM365 1448l112 178l639 -407l-112 -179z" />
<glyph unicode="&#xe9;" horiz-adv-x="1148" d="M74 569l22 101l117 215l180 127l185 49l241 -51l148 -119l67 -107l49 -182l-51 -246l-756 160l15 -119l74 -112l86 -72l141 -31l102 29l140 88l114 -178l-168 -109l-184 -47l-240 51l-149 119l-115 191zM332 690l540 -115l-4 103l-47 84l-88 74l-149 32l-105 -30 l-127 -97zM352 1382l752 111l29 -209l-750 -113z" />
<glyph unicode="&#xea;" horiz-adv-x="1146" d="M74 569l22 101l117 215l182 127l183 49l241 -51l148 -119l67 -107l49 -182l-51 -246l-756 160l15 -119l74 -114l86 -70l141 -31l102 29l140 88l114 -178l-168 -109l-184 -47l-240 51l-149 119l-115 191zM317 1354l469 184l351 -358l-152 -146l-252 256l-334 -133z M332 690l540 -115l-4 103l-47 84l-88 74l-149 32l-105 -30l-127 -97z" />
<glyph unicode="&#xeb;" horiz-adv-x="1146" d="M74 567l22 101l117 215l182 127l185 49l239 -51l150 -119l65 -107l49 -182l-51 -246l-756 160l15 -119l76 -112l84 -72l143 -31l102 29l138 88l114 -178l-168 -109l-182 -47l-242 51l-147 119l-115 191zM311 1442l242 160l149 -244l-233 -160zM332 688l542 -115l-6 103 l-47 84l-88 74l-149 32l-105 -30l-125 -97zM788 1339l234 162l158 -246l-244 -157z" />
<glyph unicode="&#xec;" horiz-adv-x="546" d="M55 31l215 1009l209 -43l-213 -1009zM66 1444l112 178l639 -405l-112 -181z" />
<glyph unicode="&#xed;" horiz-adv-x="546" d="M51 1380l752 111l28 -207l-749 -113zM55 33l215 1009l209 -43l-213 -1009z" />
<glyph unicode="&#xee;" horiz-adv-x="546" d="M16 1352l469 186l351 -360l-152 -146l-252 256l-334 -131zM55 33l215 1009l209 -45l-213 -1009z" />
<glyph unicode="&#xef;" horiz-adv-x="546" d="M10 1442l242 160l149 -244l-233 -160zM55 33l215 1009l211 -45l-215 -1009zM487 1339l234 162l158 -244l-242 -157z" />
<glyph unicode="&#xf0;" horiz-adv-x="1263" d="M61 584l15 67l129 213l196 129l246 29l98 -21l166 -98l62 -80l8 248l-29 66l-137 -109l-129 172l125 92l-37 23l-94 20l-141 -20l-25 213l178 22l164 -34l143 -89l127 95l117 -156l-119 -92l66 -164l-6 -371l-68 -321l-135 -271l-201 -129l-250 -28l-98 20l-213 127 l-127 199zM274 571l23 -165l72 -111l143 -84l29 -6l168 18l108 72q15 31 40 75.5t42 80.5l-14 151l-74 113l-141 84l-31 6l-168 -21l-109 -71z" />
<glyph unicode="&#xf1;" horiz-adv-x="1236" d="M61 111l215 1009l209 -45l-26 -131l61 55l180 50l222 -48l168 -137l32 -266l-145 -682l-209 43l139 651l-18 144l-60 49l-145 31l-113 -27l-161 -92l-140 -649zM326 1356l319 207l152 -33l141 -219l221 143l111 -168l-305 -203l-144 31l-143 223l-238 -153z" />
<glyph unicode="&#xf2;" horiz-adv-x="1234" d="M92 569l23 101l127 215l190 125l184 49l222 -47l149 -121l121 -191l31 -247l-23 -101l-127 -213l-188 -125l-185 -49l-223 47l-147 119l-123 193zM309 559l19 -164l73 -114l86 -70l125 -27l103 29l114 74l86 145l7 31l-17 166l-78 114l-84 70l-127 27l-100 -29l-117 -76 l-84 -143zM412 1442l112 178l639 -406l-112 -180z" />
<glyph unicode="&#xf3;" horiz-adv-x="1239" d="M90 571l23 101l127 215l190 125l184 49l222 -47l149 -121l121 -191l31 -247l-23 -101l-127 -213l-188 -125l-185 -49l-223 47l-147 119l-123 193zM307 561l19 -164l73 -114l86 -70l125 -27l103 29l114 74l86 145l7 31l-17 166l-78 114l-84 70l-127 27l-100 -29l-117 -76 l-84 -143zM397 1378l750 111l29 -207l-748 -113z" />
<glyph unicode="&#xf4;" horiz-adv-x="1243" d="M92 569l21 101l127 215l190 125l184 49l222 -49l149 -119l121 -191l31 -247l-23 -101l-127 -213l-188 -125l-185 -49l-223 47l-147 119l-123 193zM307 557l19 -162l73 -114l86 -72l125 -25l103 29l114 74l86 143l7 33l-17 166l-78 114l-84 70l-127 27l-100 -29l-115 -76 l-86 -143zM362 1348l469 184l351 -358l-152 -146l-252 256l-334 -131z" />
<glyph unicode="&#xf5;" horiz-adv-x="1247" d="M92 569l23 101l127 215l190 125l184 47l222 -47l149 -119l121 -191l31 -247l-23 -101l-127 -213l-190 -125l-183 -49l-223 47l-147 119l-123 193zM307 557l21 -162l73 -114l86 -72l125 -25l103 27l114 74l86 145l7 33l-17 164l-78 116l-84 70l-127 27l-100 -29l-117 -76 l-84 -143zM313 1350l320 206l151 -32l142 -219l221 143l110 -168l-305 -203l-143 31l-143 223l-238 -153z" />
<glyph unicode="&#xf6;" horiz-adv-x="1245" d="M92 569l21 101l127 215l190 125l184 49l222 -47l149 -121l123 -191l29 -247l-21 -101l-127 -213l-190 -125l-185 -49l-223 47l-147 119l-123 193zM307 557l19 -162l75 -114l84 -70l125 -27l103 29l116 74l84 143l9 33l-19 166l-78 114l-84 70l-125 27l-100 -29l-117 -76 l-86 -143zM356 1438l242 159l150 -243l-234 -160zM834 1335l233 162l158 -244l-242 -157z" />
<glyph unicode="&#xf7;" horiz-adv-x="1261" d="M41 649l45 211l1032 -219l-45 -211zM281 305l241 150l160 -236l-244 -158zM444 1075l244 160l158 -244l-242 -149z" />
<glyph unicode="&#xf8;" horiz-adv-x="1228" d="M92 571l23 101l127 213l188 125l184 49l220 -47l36 57l152 -96l-47 -74l10 -8l123 -191l29 -247l-21 -101l-127 -213l-190 -125l-185 -49l-221 47l-35 -53l-151 94l47 74l-10 6l-123 191zM297 561l20 -168l50 -100l348 536l-99 21l-104 -27l-119 -80l-88 -149zM510 195 l100 -21l107 27l121 80l88 149l6 31l-19 170l-49 98z" />
<glyph unicode="&#xf9;" horiz-adv-x="1226" d="M104 434l144 684l209 -45l-138 -651l17 -143l61 -50l144 -30l112 26l162 92l139 652l209 -45l-213 -1010l-211 45l27 129l-61 -53l-181 -49l-221 47l-168 135zM395 1446l113 178l639 -405l-113 -181z" />
<glyph unicode="&#xfa;" horiz-adv-x="1226" d="M104 434l144 684l209 -45l-138 -651l17 -143l61 -50l144 -30l112 26l162 92l139 652l209 -45l-213 -1010l-211 45l27 129l-61 -53l-181 -49l-221 47l-168 135zM383 1380l752 111l28 -207l-749 -113z" />
<glyph unicode="&#xfb;" horiz-adv-x="1226" d="M102 434l146 684l207 -45l-138 -651l17 -143l61 -50l144 -30l112 26l162 92l139 652l211 -45l-215 -1010l-211 45l29 129l-64 -53l-180 -49l-221 47l-168 135zM346 1352l469 184l350 -358l-151 -146l-252 256l-334 -131z" />
<glyph unicode="&#xfc;" horiz-adv-x="1226" d="M104 432l146 684l209 -45l-140 -651l17 -144l61 -49l146 -30l112 26l162 92l137 652l211 -45l-215 -1010l-211 45l29 129l-61 -53l-181 -49l-223 47l-168 135zM342 1440l242 159l149 -243l-233 -160zM819 1337l234 162l157 -244l-241 -157z" />
<glyph unicode="&#xfd;" horiz-adv-x="1079" d="M-207 -414l45 207l101 -20l100 26l127 84l127 174l-205 1043l227 -49l140 -762l450 637l228 -47l-641 -910l-183 -248l-182 -118l-186 -49zM289 1348l753 110l29 -207l-749 -112z" />
<glyph unicode="&#xfe;" horiz-adv-x="1267" d="M-20 -365l419 1971l209 -45l-114 -547l180 49l205 -43l149 -119l123 -192l29 -246l-23 -101l-127 -215l-188 -124l-185 -50l-198 43l-148 148l-121 -574zM354 365l150 -140l149 -32l103 28l114 74l84 145l9 33l-19 164l-76 115l-84 71l-143 29l-100 -29l-103 -65z" />
<glyph unicode="&#xff;" horiz-adv-x="1079" d="M-205 -416l43 207l101 -20l100 26l129 84l125 174l-205 1043l227 -49l140 -762l452 637l226 -47l-641 -910l-183 -248l-182 -118l-186 -50zM248 1407l241 160l150 -244l-233 -160zM725 1305l233 161l158 -243l-244 -158z" />
<glyph unicode="&#x152;" horiz-adv-x="1859" d="M88 506l4 368l37 177l147 340l211 206l258 29l164 -35l215 -157l19 -45l26 129l844 -181l-45 -211l-631 134l-84 -392l303 -65l-45 -213l-303 65l-98 -460l631 -136l-45 -211l-844 179l29 129l-35 -33l-262 -57l-164 34l-223 131zM301 543l66 -166l135 -78l90 -20l172 14 l127 121l121 278l32 156l3 297l-66 166l-133 80l-109 24l-153 -18l-129 -123l-121 -279l-33 -153z" />
<glyph unicode="&#x153;" horiz-adv-x="1634" d="M74 629l20 100l109 217l172 129l166 53l151 -32l129 -115l72 -127l102 90l183 49l143 -30l139 -117l80 -148l21 -151l-50 -234l-616 131l10 -116l62 -113l86 -70l41 -10l96 31l135 88l117 -180l-168 -107l-176 -49l-142 29l-133 143l-63 105l-125 -91l-166 -53l-150 31 l-131 117l-104 188zM289 616l2 -159l55 -109l68 -67l51 -11l86 31l96 78l68 149l8 33v160l-59 113l-66 65l-55 12l-82 -32l-99 -80l-67 -148zM950 618l414 -88v101l-51 86l-78 71l-49 11l-107 -29l-106 -102z" />
<glyph unicode="&#x178;" horiz-adv-x="1093" d="M-43 1612l270 -58l320 -636l551 452l272 -59l-760 -623l-157 -739l-213 45l157 739zM297 1884l242 160l149 -244l-233 -160zM774 1782l234 162l157 -246l-241 -158z" />
<glyph unicode="&#x2c6;" d="M346 1237l469 184l350 -358l-151 -145l-252 256l-334 -132z" />
<glyph unicode="&#x2dc;" horiz-adv-x="1101" d="M344 1229l322 207l149 -33l141 -221l222 145l110 -168l-303 -203l-145 31l-144 223l-237 -153z" />
<glyph unicode="&#x2000;" horiz-adv-x="1091" />
<glyph unicode="&#x2001;" horiz-adv-x="2183" />
<glyph unicode="&#x2002;" horiz-adv-x="1091" />
<glyph unicode="&#x2003;" horiz-adv-x="2183" />
<glyph unicode="&#x2004;" horiz-adv-x="727" />
<glyph unicode="&#x2005;" horiz-adv-x="545" />
<glyph unicode="&#x2006;" horiz-adv-x="363" />
<glyph unicode="&#x2007;" horiz-adv-x="363" />
<glyph unicode="&#x2008;" horiz-adv-x="272" />
<glyph unicode="&#x2009;" horiz-adv-x="436" />
<glyph unicode="&#x200a;" horiz-adv-x="121" />
<glyph unicode="&#x2010;" d="M82 395l45 209l754 -160l-45 -206z" />
<glyph unicode="&#x2011;" d="M82 395l45 209l754 -160l-45 -206z" />
<glyph unicode="&#x2012;" d="M82 395l45 209l754 -160l-45 -206z" />
<glyph unicode="&#x2013;" horiz-adv-x="1257" d="M82 518l43 205l1010 -215l-43 -205z" />
<glyph unicode="&#x2014;" horiz-adv-x="2154" d="M82 612l43 207l1907 -405l-43 -207z" />
<glyph unicode="&#x2018;" horiz-adv-x="575" d="M70 1145l32 151l115 146l168 108l113 -176l-166 -100l139 -213l-244 -160z" />
<glyph unicode="&#x2019;" horiz-adv-x="509" d="M102 1079l164 103l-137 211l244 159l157 -243l-32 -150l-117 -145l-166 -111z" />
<glyph unicode="&#x201a;" horiz-adv-x="575" d="M78 -106l164 102l-138 211l244 160l158 -244l-33 -152l-117 -145l-166 -109z" />
<glyph unicode="&#x201c;" horiz-adv-x="1077" d="M76 1198l33 150l114 147l166 107l115 -175l-166 -104l129 -209l-234 -162zM567 1094l31 149l115 148l168 106l112 -174l-166 -102l140 -213l-244 -160z" />
<glyph unicode="&#x201d;" horiz-adv-x="1019" d="M102 1130l164 105l-137 211l244 160l155 -246l-30 -148l-117 -147l-166 -109zM592 1026l164 104l-129 209l235 162l158 -246l-31 -147l-119 -147l-163 -109z" />
<glyph unicode="&#x201e;" horiz-adv-x="1077" d="M84 -55l164 104l-137 211l243 160l156 -246l-31 -149l-117 -148l-165 -106zM573 -160l164 105l-129 209l236 161l157 -245l-32 -150l-117 -147l-164 -107z" />
<glyph unicode="&#x2022;" horiz-adv-x="847" d="M78 481l43 209l141 135l137 35l189 -39l110 -90l72 -180l-43 -209l-141 -135l-137 -35l-189 39l-110 90z" />
<glyph unicode="&#x2026;" horiz-adv-x="1564" d="M61 152l238 167l166 -239l-238 -166zM549 66l237 167l166 -239l-237 -166zM1038 -20l238 167l166 -239l-238 -166z" />
<glyph unicode="&#x202f;" horiz-adv-x="436" />
<glyph unicode="&#x2039;" horiz-adv-x="851" d="M90 586l617 415l116 -178l-450 -299l286 -454l-176 -115z" />
<glyph unicode="&#x203a;" horiz-adv-x="851" d="M29 209l450 297l-291 457l177 114l395 -631l-615 -415z" />
<glyph unicode="&#x205f;" horiz-adv-x="545" />
<glyph unicode="&#x20ac;" horiz-adv-x="1572" d="M68 692l36 174l148 -32l22 98l-149 33l37 172l172 -37l82 141l108 135l189 123l190 49l311 -65l152 -123l123 -186l51 -201l-211 -51l-45 163l-80 132l-86 67l-213 45l-100 -26l-137 -84l-76 -99l-39 -67l491 -105l-34 -172l-529 113l-20 -98l526 -113l-37 -174l-489 104 l6 -65l31 -129l88 -125l86 -72l211 -45l104 29l127 88l107 133l174 -131l-129 -166l-189 -121l-186 -49l-313 68l-154 120l-121 189l-45 166l-16 157z" />
<glyph unicode="&#x2122;" horiz-adv-x="1359" d="M168 1487l33 158l495 -107l-32 -156l-164 35l-113 -532l-170 35l113 532zM621 836l145 688l168 -35l67 -430l234 364l168 -34l-146 -691l-151 33l76 356l-199 -329l-88 18l-49 383l-76 -356z" />
<glyph unicode="&#x25fc;" horiz-adv-x="1136" d="M0 0v1137h1137v-1137h-1137z" />
</font>
</defs>
</svg>
